<mxfile host="Electron" agent="Mozilla/5.0 (Windows NT 10.0; Win64; x64) AppleWebKit/537.36 (KHTML, like Gecko) draw.io/26.2.2 Chrome/134.0.6998.178 Electron/35.1.2 Safari/537.36" version="26.2.2">
  <diagram name="Page-1" id="0Uu-aVtsp0E2VjHbBYcq">
    <mxGraphModel dx="1647" dy="1389" grid="1" gridSize="10" guides="1" tooltips="1" connect="1" arrows="1" fold="1" page="0" pageScale="1" pageWidth="827" pageHeight="1169" math="0" shadow="0">
      <root>
        <mxCell id="0" />
        <mxCell id="1" parent="0" />
        <mxCell id="q4-OsenWkqFwDgvqK5dO-10" value="" style="sketch=0;aspect=fixed;pointerEvents=1;shadow=0;dashed=0;html=1;strokeColor=none;labelPosition=center;verticalLabelPosition=bottom;verticalAlign=top;align=center;fillColor=#00188D;shape=mxgraph.mscae.enterprise.internet_hollow;labelBackgroundColor=none;" vertex="1" parent="1">
          <mxGeometry x="342" y="-211" width="100" height="62" as="geometry" />
        </mxCell>
        <mxCell id="q4-OsenWkqFwDgvqK5dO-16" value="" style="rounded=0;whiteSpace=wrap;html=1;" vertex="1" parent="1">
          <mxGeometry x="515" y="-232.49" width="209" height="132" as="geometry" />
        </mxCell>
        <mxCell id="q4-OsenWkqFwDgvqK5dO-2" style="edgeStyle=orthogonalEdgeStyle;rounded=0;orthogonalLoop=1;jettySize=auto;html=1;entryX=0;entryY=0.5;entryDx=0;entryDy=0;" edge="1" parent="1" source="MCWtsF1nj_VE4NP892tD-1" target="nApf8z-3uc3gBv6YrtkV-2">
          <mxGeometry relative="1" as="geometry" />
        </mxCell>
        <mxCell id="MCWtsF1nj_VE4NP892tD-1" value="best cities" style="image;aspect=fixed;perimeter=ellipsePerimeter;html=1;align=center;shadow=0;dashed=0;spacingTop=3;image=img/lib/active_directory/list.svg;" parent="1" vertex="1">
          <mxGeometry x="-60" y="-30" width="35" height="50" as="geometry" />
        </mxCell>
        <mxCell id="MCWtsF1nj_VE4NP892tD-3" value="" style="shape=image;verticalLabelPosition=bottom;labelBackgroundColor=default;verticalAlign=top;aspect=fixed;imageAspect=0;image=data:image/png,iVBORw0KGgoAAAANSUhEUgAAAgAAAAIACAYAAAD0eNT6AAAAAXNSR0IArs4c6QAAIABJREFUeAHtvQm4ZElZ532rWBoGBAFRQVlkCpcLVX0z/nHu9dLid1EQFwQRSgRxATfAUflABz9EWZRVxG5wwAFZxEE2Bx0HZJlxVDYdQEEWZRNoRGigm27pjYam+CrKvEV2dubNc/KNiBNxzq+fp5/Km3ki4n1/7z/eeM/Jk3E2NvgPAhCAAAQgAAEIQAACEIAABCAAAQhAAAIQgAAEIAABCEAAAhCAAAQgAAEIQAACEIAABCAAAQhAAAIQgAAEIAABCEAAAhCAAAQgAAEIQAACEIAABCAAAQhAYB0Ch5um2ZL0EElP996/WtJ7JX1C0kWSvsT/MEADg9DAw9dJELSBAAQGRGBzc/P6ku4n6U8lXUhyH0Ryp1CjWG2jgV8aUCrDFQhAoC0B59wxSS+QdCmLPos+GhinBpxzv9w2Z3AcBCBQOYHJZOIlvUbSCZL+OJM+cSfusxrw3v/nytMa5kMAAgcRaJrma733z5P0xdnJz2sWAzSABiQ94qD8wWcQgEClBJxz95R0PomeRI8G0MABGvi1SlMcZkMAAvMEjhw5coakZx8w4dvcKMQx3FCGBkaiAefcI+fzCH9DAAKVETh69OiNnHN/xeLPGR8aQAMdNfDrlaU7zIUABPYJ7OzsfL2kf+o46TnLG8lZHrqgIGihAb4O2E+o/AuBWghMJpObSvrHFhOcBZ8FHw2ggaUacM49upa8h50QGD2BnZ2dG0h6B4s/Z3hoAA3E0ABFwOiXFQBUQuCQpJfHmPT0weKBBtDAjAaeVEkOxEwIjJNA2NFrZsIuvazHMSR2NIAG1tDA48aZWfEaAoUTkPTNkj63xqSmUOA7YDSABlppwDn35MJTIeZBYHQEDkt6I4s/Z3VoAA2k1oD3/imjy7A4DIFSCTjnfiLRpH+fpLO99/eYTCZnSrrZ3t7eNUvlgF0QgMBVCXjv7y3pigT54QlXHYm/IACB7ATCgizpgxEn+Bedcy/23t8+uzMMCAEIRCfgnLtroid+PjG6sXQIAQi0JxDz7D/sGuic+5b2o3MkBCBQAwHv/VmSLox4orB/zwC/DqhBANg4TAKS/j7CpA6PBT5H0rWGSQmvIACBcFVP0scj5Iv9xX//36dCFwIQyExg+r38/iRc998T3vsfy2w6w0EAAj0Q8N5/U4ICIOSe3+rBHYaEwHgJOOeeFmEyP3y8BPEcAuMjECFnLDvZ4ErA+OSEx30RiPCwn+f3ZTvjQgAC/RBIWACEwuC3+/GKUSEwIgKTyeTmxon8b03TfO2IkOEqBCCwsbFhzBvLzv5Pv++9/52NjY1DwIYABBIRcM79iGUiO+cemsg0uoUABAomYMkbbdtSBBQsAEyrn4CkJ7adjAuOu+jYsWPXq58CHkAAAl0JLMgHp8/eY37mnPs9rgR0jQ7HQ6AFAUmvMEzWF7QYgkMgAIEBEjDkjXUKhadTBAxQRLjULwFJ71p3IoevD/q1ntEhAIG+CKybN9Zt55x7BkVAX9Fm3EESkPSxdSck2/wOUhI4BYFWBNbNG8Z2z6YIaBUeDoLAagKSLjJMyBuuHoEjIACBIRIw5I11vgKYbfNfKAKGqCh8yk5A0pXrTuTjx49fI7vBDAgBCBRBYN28EandsygCipABRtRMwDIZa/Yb2yEAARsBS+6I1PY5Gxsbh21e0BoCIyZgmYgjxobrEBg9AUvuiNj29ykCRi9FAKxLwDIR1x2TdhCAQP0ELLkjcluKgPrlhAd9ELBMxD7sZUwIQKAMApbcEbutc+65XAkoQxdYUREBy0SsyE1MhQAEIhOw5I4UbSkCIgeY7oZPwDIRh08HDyEAgWUELLkjVVuKgGXR4n0ILCBgmYgLuuMtCEBgJAQsuUPSgySdMPYxuzfA7Os/4ifKIxEhbtoIWCagbWRaQwACNROw5g7v/c+mKgKccy+mCKhZXdiehYB1EmcxkkEgAIHiCMTIHc65n0lZBOzt7V2zOHAYBIFSCMSYxKX4gh0QgEA+ArFyh3PupyV90dLfsrbe+5dQBOTTBCNVRmDZxGnzfmWuYi4EIBCRQJscseyYeTMoAuaJ8DcEMhBYNkHbvJ/BPIaAAAQKJdAmRyw7ZpFLJ59M+lOprgRIeilXAhZR571RE1g2Qdu8P2pwOA+BkRNokyOWHbMMnff+JykCltHhfQhEJrBsgrZ5P7IpdAcBCFREoE2OWHbMQW567x+YsAh4GVcCDqLPZ6MisGyCtnl/VKBwFgIQuAqBNjli2TFX6WjBHxQBC6DwFgRiE1g2Qdu8H9sW+oMABOoh0CZHLDumjZfe+/tKunJZH8b3Xy7pWm3s4BgIDJaAZRINFgqOQQACKwnkyB3e+x+W9AXLWAe0pQhYGWUOGDSBAybH7NaaC18PGgzOQQACBxLIlTtSFgHOuT/mSsCBYebDIRPINYmHzBDfIDBGAjlzh3PuPqmuBFAEjFG9+HyKQM5JDHIIQGA4BHLnDufcD6UqArz3/50rAcPRJp60JJB7Erc0i8MgAIHCCfSROyQdT1UESHrlkSNHzigcO+ZBIB6BPiZxPOvpCQIQ6ItAX7nDe39vioC+os64gyLQ1yQeFEScgcAICfSZO6ZFwOctNhzQ9lVcCRihoMfo8gGTYOGd/7PHj5EXPkMAAv9OYDYXdH0dg6H3/l6SkhQBzrk/pwiIESX6KJpA14k7e3zRjmEcBCCQlMBsLuj6OpZhzrm7Sfpc1/HbHB+KgL29vevEspV+IFAcgTYTYdkxxTmDQRCAQDYCy/JCm/djGinp+ygCYhKlr9EQaDNZlx0zGkg4CgEIXI3AsrzQ5v2rdWZ8w3v/vamKAO/9q7kSYAwQzcsk0GayLjumTI+wCgIQyEFgWV5o834K+7z33yPp8jbjdz2GIiBFxOizdwJdJ8Ls8b0bjwEQgEBvBGZzQdfXqYxOWQRIeg1XAlJFjn57IdB14s4e34vBDAoBCBRBYDYXdH2d0gHn3HenuhIg6bW7u7vXTWk/fUMgG4GuE3f2+GxGMhAEIFAcgdlc0PV1amecc3elCEhNmf6rJ9B14s4eX73zOAABCKxNYDYXdH299qAdGkr6LoqADsA4dHwEuk7c2ePHRwuPIQCBfQKzuaDr6/0+Uv87LQIu62pfy+Nfx9cBqSNI/0kJtBT6wl0BkxpG5xCAQNEEaskd3vu7SEpSBHjv//rYsWPXKzpQGAeBZQRqmcTL7Od9CECgHwI15Y7JZPLtki622LysbSgCNjc3r99PFBgVAgYCy0Td5n3DsDSFAAQqJ9AmRyw7pg/XKQL6oM6YRRNYNkHbvF+0YxgHAQgkJdAmRyw7JqlhB3TunLtjqisBkl7PlYAD4PNReQSWTdA275fnDRZBAAK5CLTJEcuOyWXjonEkfZukzy6zzfg+RcAi6LxXJgGL2Mv0CKsgAIEcBGrOHYmLgDdwJSCHAhnDTKDmSWx2ng4gAIG1CdSeO7z3ZyW8EvCGs8466yvWhktDCOQgUPskzsGIMSAAgasTGELuaJrmDpL+zeLLAW3fSBFwdd3wTkEEDhDvwt/+zx5fkBuYAgEIZCYwmwu6vs5s6oHDUQQciIcPh0yg68SdPX7IXPANAhA4mMBsLuj6+uCe8386mUx2uRKQnzsj9kyg68SdPb5n0xkeAhDokcBsLuj6ukezlw7tnJOkz3T1pc3xzrk37ezs3GDp4HwAgT4ItBHvsmP6sJcxIQCBMggsywtt3i/Dg6tbMS0CLmjjQ9djKAKuzpt3eibQVcSzx/dsOsNDAAI9EpjNBV1f92j2yqElhUsBSYoA7/2buRKwMgQckItA14k7e3wuGxkHAhAoj8BsLuj6ujxvrmqR934i6fyufrU8/m1Hjx690VVH5C8I9ECgpWAX/iKgB3MZEgIQKITA0HMHRUAhQsOMdASGPonTkaNnCIybwBhyR9M0WymvBOzu7t543CrC+14JjGES9wqYwSEwUAJjyR3TIuDTFn8PaPt3FAEDnSA1uHWAMBde9p89vgb/sBECEEhDYDYXdH2dxqJ0vU4mkzMlUQSkQ0zPfRDoOnFnj+/DXsaEAATKICDp87P5oOPra5XhRXsrUhYBzrm3bG1tfWV7azgSAhEIdJy0V7kqEGF4uoAABColYNk0p9bL3s65Y5I+Zcmby9p679/KrwMqnQy1mr1MjG3er9Vn7IYABOwEJH20TZ5YdMxkMvF2C/rpQdI3S/r4Ir8ivPf27e3tm/TjGaOOjoBFsKODhcMQgMBpApLetm7+cM799OmOKnzRNM3tJJ23rv8r2nFjYIWaqNLkFUK8yiX/+WOrdBijIQCBKAQk/dF8Tujw98uiGNFjJ5PJZDNhEfD3tX5N0mNIGLorgQ4T9mrFQNexOB4CEBgOAefcow354/Ih3PTmvf8mSf9q4HC1vDrT1zskfdVwFIMnxRGYEdtBQlz4WXHOYBAEIJCNgPf+Hpb84b1/TDZjEw7EPQEJ4dJ1WgKWCZzWMnqHAARKJhDO4CVdacghlzVNc4uSfWxr2/b29jdK+piBxcKTrGl/XAloGwiO60bAIthuI3E0BCAwNALhp2uWHOK9f8lQmCQuAv6BrwOGopSC/LBM3oLcwBQIQKAHApJ+zZJDQlvn3CN7MD3JkFtbW7eV9C9WJkvav3Mymdw0ieF0Ok4CS4R20OWo05+NkxheQwAC+wS2trZufbII+KIlj0g64Zy7/36ftf/rnDtCEVB7FEdiv2XijgQRbkIAAgcQkPR/LHlk2vaEpN/Y2Ng4fMBQ1Xwk6T9aNkpawfNdx44d++pqYGBouQRWCO302f6i48r1CssgAIFcBJxzd1uUH9Z87zXhMnou21OO0zTNbSSduyaHA3OvpHfv7Ox8TUr76XsEBCziHAEeXIQABFYTOCTp7y25ZK7tFyQ9Jyygq4cu+4jt7e1vkPSROf9WLe5tP38PRUDZ8S/eOoswi3cOAyEAgSwEvPd3t+SSA9q+w3v/+Mlk8p2Sbnns2LHrZXEo4iDT+yQ+fICPbRf8Rce9p2mar41oLl2NiYBFlGPihK8QgMDBBLz3f2bJJ7TVogW+zXvvnUwmNz84OnwKgQUELJNuQXe8BQEIjJTA9Ez3UktOoe3aRcA/SbrZSKWH2+sSsEy4dcekHQQgMEwC3vsHWnIKbdcuAMKVgvdxJWCY8yqZV5YJl8woOoYABKol4L1/niWv0NZWBJx55plfV614MDwvActky2spo0EAAjUQ2N3dva5z7k2W3EJbWxHAlYAaZkoBNlomWgHmYwIEIFAgAUk3jPzTwDY3w3GMThcO7+dKQIETozSTKABKiwj2QGAYBMLP0ySFh9iwMPfD4P07OztfPww14UUSApbJmcQgOoUABAZDYHNz8/qSXmPJM7Q1FVAfDr/OGIygcCQuAcvkimsJvUEAAkMksLm5eW3v/e9acg1tTUXAB5umucUQtYVPRgKWiWUcmuYQgMCICEj6AUkXWHIObdcuBCgCRjTXWrtqmVCtB+FACEAAAhsbG9vb2zeRdE6ERwhzX0H3+wo+Ep5NgBAhcJoABcBpFLyAAAQyEZC0I+l1lvxD27WuBnxoMpncKlOYGaZ0ApZJVLpv2AcBCJRNwDkn7/1LJF1uyUW07VQMUASUPS3yWWeZOPmsZCQIQGDIBMK+Ac65Bzjn/lzSxZa8RNtWxcCHh6wnfGtJwDJZWg7BYRCAAARaE9jb27vmZDLZdc49VNKzvPf/W9IHJJ0n6RJLzqLtl4uD1gHhwOESsEyI4VLBMwhAAAJFETgk6UWWfD3ftijvMKYfAvOi6PJ3PxYzKgQgAIHxEdjb27uO9/7NXXL0QceOjyAeX43AQQJZ9dnVOuMNCEAAAhBIRkDSV02/DjH/DDKZkXRcD4FVi/xBn9fjJZZCAAIQGAYB59y3SLrwoNzc5rNh0MALE4E2Qll2jGlgGkMAAhCAwFoEvPd3WZaX276/1sA0GhaBtmJZdNywSOANBCAAgXoILMrJXd6rx1MsTUagi2Dmj01mFB1DAAIQgMCBBObzcde/D+ycD8dBoKtoZo8fByG8hAAEIFAegdlcvM7r8jzCouwE1hHOfpvsxjIgBCAAAQicIrCfh9f9F4wQ2FhXPKEd+CAAAQhAoB8CltxN/u4nZsWNahFRcc5gEAQgAIGRELDkbgqAkYhklZsWEa3qm88hAAEIQCANAUvupgBIE5PqerWIqDpnMRgCEIDAQAhYcjcFwEBEYHXDIiLr2LSHAAQgAIH1CFhyNwXAeswH18oiosHBwCEIQAAClRCw5G4KgEqCnNpMi4hS20b/EIAABCCwmIAld1MALGY6unctIhodLByGAAQgUAgBS+6mACgkiH2bYRFR37YzPgQgAIGxErDkbgqAsapmzm+LiOa64k8IQAACEMhEwJK7KQAyBan0YSwiKt037IMABCAwVAKW3E0BMFRVdPTLIqKOQ3E4BCAAAQhEImDJ3RQAkYJQezcWEdXuO/ZDAAIQqJWAJXdTANQa9ch2W0QU2RS6gwAEIACBlgQsuZsCoCXkoR9mEdHQ2eAfBCAAgVIJWHI3BUCpUc1sl0VEmU1lOAhAAAIQmBKw5G4KAGR0ioBFRCCEAAQgAIF+CFhyNwVAPzErblSLiIpzBoMgAAEIjISAJXdTAIxEJKvctIhoVd98DgEIQAACaQhYcjcFQJqYVNerRUTVOYvBEIAABAZCwJK7KQAGIgKrGxYRWcemPQQgAAEIrEfAkrspANZjPrhWFhENDgYOQQACEKiEgCV3UwBUEuTUZlpElNo2+ocABCAAgcUELLmbAmAx09G9axHR6GDhMAQgAIFCCFhyNwVAIUHs2wyLiPq2nfEhAAEIjJWAJXdTAIxVNXN+W0Q01xV/QgACEIBAJgKW3E0BkClIpQ9jEVHpvmEfBCAAgaESsORuCoChqqKjXxYRdRyKwyEAAQhAIBIBS+6mAIgUhNq7sYiodt+xHwIQgECtBCy5mwKg1qhHttsiosim0B0EIAABCLQkYMndFAAtIQ/9MIuIhs4G/yAAAQiUSsCSuykASo1qZrssIspsKsNBAAIQgMCUgCV3UwAgo1MELCICIQQgAAEI9EPAkrspAPqJWXGjWkRUnDMYBAEIQGAkBCy5mwJgJCJZ5aZFRKv65nMIQAACEEhDwJK7KQDSxKS6Xi0iqs5ZDIYABCAwEAKW3E0BMBARWN2wiMg6Nu0hAAEIQGA9ApbcTQGwHvPBtbKIaHAwcAgCEIBAJQQsuZsCoJIgpzbTIqLUttE/BCAAAQgsJmDJ3RQAi5mO7l2LiEYHC4chAAEIFELAkrspAAoJYt9mWETUt+2MDwEIQGCsBCy5mwJgrKqZ89siormu+BMCEIAABDIRsORuCoBMQSp9GIuISvcN+yAAAQgMlYAld1MADFUVHf2yiKjjUBwOAQhAAAKRCFhyNwVApCDU3o1FRLX7jv0QgAAEaiVgyd0UALVGPbLdFhFFNoXuIAABCECgJQFL7qYAaAl56IdZRDR0NvgHAQhAoFQCltxNAVBqVDPbZRFRZlMZDgIQgAAEpgQsuZsCABmdImAREQghAAEIQKAfApbcTQHQT8yKG9UiouKcwSAIQAACIyFgyd0UACMRySo3LSJa1TefQwACEIBAGgKW3E0BkCYm1fVqEVF1zmIwBCAAgYEQsORuCoCBiMDqhkVE1rFpDwEIQAAC6xGw5G4KgPWYD66VRUSDg4FDEIAABCohYMndFACVBDm1mRYRpbaN/iEAAQhAYDEBS+6mAFjMdHTvWkQ0Olg4DAEIQKAQApbcTQFQSBD7NsMior5tZ3wIQAACYyVgyd0UAGNVzZzfFhHNdcWfEIAABCCQiYAld1MAZApS6cNYRFS6b9gHAQhAYKgELLmbAmCoqujol0VEHYficAhAAAIQiETAkrspACIFofZuLCKq3XfshwAEIFArAUvupgCoNeqR7baIKLIpdAcBCEAAAi0JWHI3BUBLyEM/zCKiobPBPwhAAAKlErDkbgqAUqOa2S6LiDKbynAQgAAEIDAlYMndFADI6BQBi4hACAEIQAAC/RCw5G4KgH5iVtyoFhEV5wwGQQACEBgJAUvupgAYiUhWuSnp6N7e3nVWHcfnEIAABCBQDgEKgHJigSUQgAAEIACBbAQoALKhZiAIQAACEIBAOQQoAMqJBZZAAAIQgAAEshGgAMiGmoEgAAEIQAAC5RCgACgnFlgCAQhAAAIQyEaAAiAbagaCAAQgAAEIlEOAAqCcWGAJBCAAAQhAIBsBCoBsqBkIAhCAAAQgUA4BCoByYoElEIAABCAAgWwEKACyoWYgCEAAAhCAQDkEKADKiQWWQAACEIAABLIRoADIhpqBIAABCEAAAuUQoAAoJxZYAgEIQAACEMhGgAIgG2oGggAEIAABCJRDgAKgnFjktuSw934i6SHOuWdIep2k90s6T9LFVmHQXl+CAQzQQDYNhJwVclfIYa+d5rSHNE2ztbGxcTh3cq1lPKs+a/ETOzc2No4cOXKG9/5ezrk/lnS+Nfi0z5bcKCYEa+bb2hoIue7lzrkfDDmQxeDLBKya+nJPvCqWwGQyuZWkp0v6jDXgtF87CbGIs4ijgf41cIGkcyTdstiEndEwaz7PaCpDdSWwtbV1a0nPl/R5a6Bpz8KPBtDAgDTweefcc8PJUde8OqTjrfEcEovB+CLpWpJ+ke/ySdjWCU57NDRwDVzmvX/MWL8asMZ2MIvmUByRdFTSe6yBpT2JHw2ggRFp4N1N09xuKOtAWz+s8W07DsdlICDppyRdZg0q7Un8aAANjFADl3rvH5ghVRczhDXGxTgyckMOOeeebA0m7Un6aAANoAGdM5afDlpjPfJ1t3/3w/f9zrkXWgNJexI/GkADaOC0Bv5gb2/vmv1n+LQWWOOd1jp6X0Xg0PQuf35e1P/Pi4gBMUADw9LAi4Z+JYACYNUSW/Dnkp5qDSDtT1f8JO9hJW/iSTzNGvDeP6XgJcBsmjX/mw2gg/UITG/4MwvcKgDaU0CgATQwZA045x6wXpYuv5U1buV7OEALvfe3l3SpNXi0J3GjATSABlZq4PLJZHLmAJeSDWvsh8ikaJ/ChhX8zn/lhOXKCJd/0QAaiKmBd29ubl676MVhDeMoANaA1mcTSY+yBo32FBBoAA2ggc4a+JU+c3+Ksa0aSGETfS4hsL29/Q1s9NN50sY8C6AvzirRwHg1cOnQnh1AAbBksS3xbX7yx+JvnbC0R0NowKSB3y9xbVjXJqsW1h2Xdh0JNE1zC0lXWANGe9Pk5+xvvGd/xJ7YBw18fkhXAazrQcdljMPXJSDp6dZg0Z7FHw2gATRg1kDYKngQ/1m1MAgIpTsR7j6VdL41WLQ3T3zOAjkLRANo4IKhPD7YuiaUvnYOwj7v/b2tgaI9iz8aQANoII4GnHP3HMLiYtXDEBgU74Okl1sDRfs4Ex+OcEQDaMB7/5LiF44WBlq13GIIDjESOCzp09ZA0Z6khQbQABqIpoHzh/CgIKsejGsbzVcR8N5PrEGifbRJz/e/fP+LBtDAKQ04546tyt+lf25dG0r3r3r7nHM/Zw0S7SkA0AAaQAPRNfDg2hcYqyZq9794+51zz7AGifbRJz5ngZwFogE0cHbxC8gKA61rw4ru+dhKQNLrrEGiPQUAGkADaCCuBrz3r7bm977bWzXRt/2DH1/S+61Bon3ciQ9PeKIBNCDpvbUvQFYd1+5/8fZLOs8aJNqTrNAAGkAD0TXw8eIXkBUGWjWxons+thKQdKk1SLSPPvH5/pfvf9EAGrjYmt/7bm9dG/q2f/DjSzphDRLtKQDQABpAA9E1cKL2Bciqidr9L95+a4BoH33Sc+bHmR8aQAOnNFD8ArLCQOv6sKJ7PrYSsAaI9hQAaAANoIE0GrDm977bW3XRt/2DH98aINqnmfhwhSsaQAO1L0BWDdfuf/H2WwNEe5IUGkADaCCNBopfQFYYaNXFiu752ErAGiDap5n4cIUrGkAD1vzed3urhvu2f/DjWwNEe5IUGkADaCCNBmpfgKy6qN3/4u23Boj2aSY+XOGKBtBA8QvICgOtGl7RPR9bCVgDRHuSFBpAA2ggjQas+b3v9lZd9G3/4Me3Boj2aSY+XOGKBtBA7QuQVcO1+1+8/dYA0Z4khQbQABpIo4HiF5AVBlp1saJ7PrYSsAaI9mkmPlzhigbQgDW/993equG+7R/8+NYA0Z4khQbQABpIo4HaFyCrLmr3v3j7rQGifZqJD1e4ogE0UPwCssJAq4ZXdM/HVgLWANGeJIUG0AAaSKMBa37vu71VF33bP/jxrQGifZqJD1e4ogE0UPsCZNVw7f4Xb781QLTvlKTO896/VdKrJP2BpKdKepL3/jGSHhH+994/PrznnHva9JhXOefeIumjkq4cMe/LJL1P0hu89/9d0jMDp+n/j5rnJ+lsSf/NOfe/JP2DpE+OmB2PF6708cLFLyArDLTOuRXd87GVgDVAtF9YAFzuvX+zpHOcc/d3zmlnZ+cG1lhtbm5ee3t7+xu999/rvf9/pwXCuwdYGJw7Xbwf6py769bW1q03NjYOWflJumGIhXPuPpIeK+mVkj6BhhdqmKKhgKLBqvm+21vnVt/2D358a4Bofzp5/mM4o/fe32Vvb+86OYUj6T9MJpNvD1cSvPd/LemKyuISCqY/c849QNItc7ILY5155plfF4oC59zvSXpvZHYvze3PZDK5uaQTkf1YtyD4l9z+h/kg6dJC/F+X26l2udnFHs8ag9j20N8cAWuARt7+Y977pzjnjs1h7fXPkAC99/eYXiG4oOAYvdE59yNnnXXWV/QKbG7waUHwM9Ovai438rt4d3f3unNDJP9TUrgyZFp8YrT33j8vubNzA3jv7x3D9hL6mHOtuj+tDKtzuDaDrQEaY/twed8590N7e3vXLD3ekq4l6bskvejk9+TWxSzGgvJF7/0fSnJcOv48AAAgAElEQVSlswv2bW5uXl/ScUl/uu6VFefcPXP76r3/nRLmpvf+h3vw/SUl+B7DhtzsYo9nZRDbHvqbI2AN0MjahzPWO84hrObPra2trzx5M9yDJb2jj7h5718t6Wg1wOYM3d7evolz7uck/d+O/F4011XyPyV9X0cbYxR38318UdJXJXd2ZoBwtUXSxQX4Ps9irb9nXKvypTUOVTpdk9HWAI2k/Xudc3erKa6rbJ1MJt85vQkuJOm1klOHdp8YID8v6fktr6r825EjR85YFZOYn0+vXPR9L8jbYvrUpq9wtaWDLlPr3tx/G59LPsYai5J9G4Rt1gANvP3nnHOPzp28cwpL0sNSxnD6k72sZ4E5+YWrApI+uIqhc+77c9oVxnLO/dUquxJ//oTcPodfjyT2ybyod7EvN7/Y43XxddGxse2hvzkCi6Dz3qkz4nc4575lDtfg/pT0l4nifcI598jBAZtzSNJ/bHnH/Qvmmib/8+TPQ8P+CFkXrLnx7pTcyZkBQqEu6d/mbOjTf/PYM+5V+dIaiyqdrsloa4AG2v6/5P4pXx+a2draum3LxatrIgtXTu7Th0+5x5T0xJZz4DNhH4ec9knaaWlb1/i2Of6S3P6Gqyw9+tuGSedjcuolxVjWeKSwiT5nCFgDNLD2X5D0oBk8g37ZYfHqkriuDD/DGjS4qXPhVyCS/rXtHPDef09OLsePH7+GpM+0tS/yca/M6WsYyzn3wsg+dNF9kmNzM4w9njUese2hvzkC1gANqP2FzrnvmMMz2D+ni9fHI8fvhPf+gYOFNueYc+4HO/L7/bkukv85vQcjyeK0wvdfTO7czADhaoOkC1fY1AcH05gzLlb50hqPKp2uyWhrgAbS/sKmaZqa4ma1dbpRkCk5zcc+/PbcaldN7SW9Zp7Bir/Pz713xPRnn1HjvMLHU2Plvn+mkJ89Rudc03xYZGsbrRx0zKI+eS8igYPgj+Szz4T94SMiraKrsPVu5Pi+fci/lpgP6mQyuZWkzj+hbJrmzvN9pfzbOXckcpzbLHLZt/8NOw724GcbFqZjUmojR9/WmOSwcdRjWANUefuwM963jU0A073iw/0OpuQ00z48pbDaDX7Wib+kx83434Xjs9YZz9JG0ofWtLWLX6ePdc4912Jv17bT3S5L3vL6NJuucejKorTju/o7f3xp/gzOnnngI/o7/Ezt/oMLaAuHws/zIsf5OS2GHcwh0/snPrYmw/PCzXk5YUh69pq2rrVw5d7+1zn33Tn9yzlWTp2kGMvKKoVN9DlDwBqgWts7535zBsOYXh6S9IGIcbssPDxnTAC993e38PPe7+XkNX2WwVqL+Rp+Zt/+N3eBswaTtdnn1EmKsaysUthEnzMErAGqtP3rc9+MNYO815eS7hQ5Zs/v1aEeBpf0Py0MnXPPyGn2dLfCzvcrrOOj9/6tOX2b/tTxU+vYWkObnCxTjGVlnMIm+pwhYA1Qhe0/0zTNLWYQjOpl7K1Sm6a5w5gA7uzsfP3JHfbCPQ9rn9WFvQM2NjYO5+QWFmajzW39zbr97/SZFm1tq+64nBpJMZZVcylsos8ZAtYA1dbee/+TM+6P6uXRo0dvJOmyiDF776gAbmxsnNw58ddj8PPen5WTnaQnxLB7VR89fL3xrFU21fx5To2kGMvKPoVN9DlDwBqgmtp77/96Y2Pj0Iz7o3rpvf9PkeN1zqgAbmwclvSRGAydc0/LyS5schXD7hV9XJL5p6AhHp9YYVN1Z/2z/uTUSIqxZn1Z53UKm+hzhsA6Qam0zRcmk8nmjOtFvNzZ2bnB9vb2N4Sf0TVNc5utra1bhzP1FMZJ+vuYsQs3w6Wwc0Wf4SbGsMf9gyWdI+lFkl4h6U8kvWx6Q9hjnXM/HS4PTyaTm67or/XH3vvvjcjv3JzF6PRBOZdGtH/Rwpp1+99wtSGxP4t8zPpea3EWeqA1PoW6NRyzrAGqqH0RP1WT5MJl5OmjWs8/gN/nJP3z9Gl9T3fOPcB7f/t1lTcdN2ry2t3dvfG69nRtN/2t98Ml/csBzJb5d17Y+Mg598vOuW9d92d40yJj2RjrvL/TlYPl+DV2LuzqU9btf8PNlGtooatPvR5viXcJba3xKcGHQdtgDVAl7fv+qdqh8HS8SDdihf37ny/pB7pcbpX0zMixOi/XxAhXRJxzb4po/yfDlYLw+/G2T6yTdDNJMTdP+pL3/im5GIZxJIUCKtmClnn733D5v/WDmFL6nbLvnPpIMZaVTQqb6HOGgDVAlbR/+ozLWV82TXM7SW9IxOkC59zvOefueNDl5N3d3esmeFDK6zOBDJf8u+6532WRuyh8jeC9v9dBBVWCzZOCjf+cieGpYZxzxxLpMPjy0Zy+hB08E/rSRT9Jj83JNMVY1hilsIk+ZwhYA1RB+y+E79hnXM72Mpz1S7okE6Nwc9rjwja/8w567380gQ0vmB8nxd/OubsmsH1Z0g5XBp4Q9vmf8yWcbabaTtfNjZXyz1BMnZeCZw/b/56dwo/S+kwphhx9W3nmsHHUY1gDVHp759yL+wiwpJ8/+V3/iR74fD74HL7r3vd7er/BskVv3fezXFWR9PQeGF7pnPsfofgIv9eX9F0Jbcj6u/nY+0Dsc8m8/W8oZNa5F2RdrffWbn8O1/rvvj7W/bdWv6uxe93A1NJuMpl8e+5geO8f2NPif5VE5Zx7i6SHJbLliTm4eu9f0rPW3n/yfot3JLThfTk47o/hnPuJBL5k3f53MpnsJvDhKnOnlP7341brv1aOtfpdjd3WABXe/oMHfTeeIkhN0zSSwh38RSaUiHb9Wgp+831K+u2INhcZk/Dd/Lzfqf4Oz22IzTP39r9j0MR+jFLpIFe/+36s+28uO0c7zrqBqaTdo3IGdnNz8/oJvysubfF6XA624QbHSrRmic9jc7DcH+Pkw4HeE5lpzq8xwuX/KJsxRWZgif/Stvsxq/VfK+Na/a7GbmuASm6/vb39jTkDMaYzk+BrLraSXlWyziLY9p5cLMM40w2Uli46Xf3Juf3v9ApbNNu7+pr7+Jy6SDGWlVcKm+hzhoA1QAW3/8cZN5O/DLsMxv6deMFsQwJ+VnKo0wEkfZWkdxXOw7Qo5fwNvXPubhFZXtx2L4UYenHOPTmi7aaY5bAjBrM++7Ay6tP2UYxtDVDB7bPcpLYvkumWtMUnlIjxevm+7zn+DZsBee9fHdH+0mKV5Z6KEKuzzjrrKyR9PhLLrNv/TnfHLC12yezJMbdSjmHVWErb6PvfLwcmE681+Jb2mS9L3ibCI2Jri8Pf9TGBJP24pIO2UK6N476978jJU9LrLfNrpm227X9TbGc948d+HIr6N6cmUoxl5ZvCJvqcIWANUKHtr5D0H2bcTPrSe//4QjmkTGYXJoV6QOfTxxo/KfKjjVOyatW39/6bDnA76kfheRQxNJvzqwtJT4xhc019RA16D51ZWfdg8riGtAao0PZvzBXF8GCZsWxKMh/rpmm+NhfnReM0TXML7/3zBnTvxa8s8jPFe5F+S597+9+wJ0OrYmoox6WIfc4+rXHIaesox7IGqND2v5UrmE3T3KFQBskTpff+3rk4HzTO9HHK4WFHl1cei7cd5GfMz/b29q4pKTwHYW2d5Nz+dzKZnGmxtda2MWPeR19W7n3YPKoxrQEqtP39cgXROfebhTJYO7F38OfsXJzbjHPs2LGv9t4/xrqwdfA/OuOmaW7TxtcYx1gfbxyedRHDjjZ9SPqNPuPS19ht2JR8jJVbyb4NwjZrgEps772/fa7gTLfbjb4QlMh1gU3/lItzl3G2t7dvMi0ELlhgc+mx+qUuvlqOlfQQA5+s2/9K+keDraXHfKl9lviW0NYasxJ8GLQN1gAV2D7cAHitHEHb29u7TsSfUy1NAgUyPm3rZDLxOVivM0b4uZtz7pclfaJkhnO2/c06vq7TJmyUNTf26biuej/n9r/TR2q3tm2V7TV9vk5cS2pjZV2SL4O0xRqgAtuH/f+z/BfpRqraE9s5WWAbBpkWauFst4YtZE+EmxsN7nZqui6T8MuXTgMZDnbOPbrAPJNl3hqwFdHUGrcinBiyEdYAldbee/+/c8VL0oNL878Hey4MP8vLxdwyTtixzjn30yf3EvhwD5y6LBg5f1v/nHVY5NxnY+i7QB7E36L3Etoe5Fubz0rwYdA2tAlCZcc8J1fARrb3/0EL2G/kYh5jnPAVkff+xySV+rOyN8Tws00f4Ua+Neb3JUeOHDmjTf/WY8LeCGvYd5BWq/rMyq/v9tbY9W3/4Me3BqjA9lmeUheE4Zz7HwX630eC+2zfewKsM1FDIeCce4CkjxUWx3CD3c3W8alrm+lzFsJ4XXSTbfvfkztsPqqjbV38KP7YrvEs7Xhr7ErzZ3D2WANUYPucl0/fXqD/fSW1P611ckz3xj+7pO2cnXM/l4unpL/rqONfyGjbOzra1pf+k4ybi3OqcayxS2UX/U4JWANUWnvv/Y/mCu5YdwBcFnPn3P1zsU8xjvd+Iun/LvMv8/v/J4WPi/qUFLZVbr2A5dr+d2tr67Zd7BrisYviVdN71pjU5GuVtloDVGD778sViAHsPNc66beM88VN02zl4p9onMPT38df2tLn2Az3+7sybGyUyMerdNs0zZ07+Jpt+19Jv9LBrn1ug/r3KoGq8A9r/Cp0uS6TrQEqrf1kMvnOHBGY/rRsUMkmUiz/ZTKZ3DxHDFKOMZlMNvu++9w59zMpfdzve6rly9rEP+f2v5Le1samIR+zH6Na/7XGpla/q7HbGqDS2jvn7pgD/s7Ozg1K870ge95Z402B87oJT5SU9Ioeub5u3qZUf0t6bRs/c23/O32+w+gL7FTxztVvG00ddEwuO0c7zkHwK/1sJ0cwp3dPjz5BHaCR90m6ZY5YJB7jsHPuaQf4mVIDXwjbGif271T30x0TV/mSbfvflvassrf6z3PEPuUY1nmT0jb63tjYsAaotPZN0zQ5Aruzs/M1pfleoD0flZSlIEsdc+fck/vg671/YGrfQv/h3o1V/uXc/regmzF7LSJyxD7lGKs0terzlLbR9wALAEnfliOwu7u7N14lXj4/dWd5eDbDz+eISeoxnHO/10NMX5Xar2n/4ebHzxzkXyiCctgymUxuJenEQbaM5bMcvFOOYY1TStvoe4AFQLijOUdgNzc3r28V98ja/0ntNweGjYMk/UXmuF2xtbX1lTk07b3/sxW+ZfmFjaSHrbCj17PynLbliHvKMaysUtpG3wMsAJxzd8sR2OliMJpEZJ3I0/YXee9/dmNj41COGKUYIxQxJ69oZH3McNi2OIUv832u+N79Skk3nG+T4m/n3Jsi6a36+ZmCb84+rXHMaesox7IGqLT23vt75wqkpL5/K15rgnuj9347V5xij3PyYUI/nlP3Ycvp2D4s6s85960H+PV3i9rEfm9nZ+frufz/5U2ZYvPN3d8BemqVu3LbO7rxrAEqrX3O3egknVua/xXZE77jfalz7kiFk+6Qc+4tGVlfHrYrTs1pelXrkkV+ee9/J/X4of+T9yH8wqLxx/peDuYpx7DGLaVt9D3MrwBK3kO9VdVrnTSVtb/Ce/+7tf1k0Dl315ycvff3zZGwwuO0F/mV6/f/kl6/aPyxvpcj5inHsMYtpW30PcACwHv/+FyB5WmAX75UaZ3okj7vnHthePxrrvhZx5H0DxH8blUUOuf+2Gpvm/bOuUcv8mlra+vWbdpbjgmbR0nq+mTCVvwW+VTDexaeJbS1Mi7Bh0HbYA1Qge2fnytgkn67QP9rT4jhZrMXOeeO5YrjuuNkvlx96bFjx663rq1t24WttBdo+lNt21uOC09AXDB27Xo22W/hWUJbazxL8GHQNlgDVGD71+YKmKQHF+i/KeEU5M8J7/2rJd0pVzy7jjM9Yw0FSy7mx7va2PX46RbX82fhr+zazzrHS/rLjCxzxcw0zjocS2pjjWdJvgzSFmuACmz/rlyBaprmDgX6b0o4hfrz9vBTuL29vWvmim3bcST9bS5m3vuXtLXLcpykd8/59OuW/tq0ne6smbOYqmKetGFX8jFzOurMvGTfBmGbNUAFtr8wV2B2d3evG767LpBB54lWiQ8fkPSg8PS6XDFeNY6kJ2Rkd3HQ3CqbrJ+HJ/7N+uS9/x5rn6vah/0hZsfk9b9fVVrFrfTPrXEs3b/q7bMGqMT2Z5555tflCkzmn4MNdWHv6tcnJT0iPK0vV5yXjeO9v3vmOfADy2yJ9X54DPGsT+HsPFbfy/pxzv2v2TF5TQEQNLBML7wficAQJ1qOM5Z9/JIeN0SGlfj0qVAI9HlFIPdja733f7ivvVT/TiaTM2fi/4lU4+z3O32y5hdmxuxaEA72+H1Gtf5rjWmtfldjtzVAhbZ/RK4AhKfdFcpgsElxAe8Pe+9/NFfM58Y5dLIIuXyBTan4X3TkyJEz5myI+ufx48evIWl/Q6DXRe18QWeSfiojv1RxSdLvAlxVvWWNa1XO1misNUCFtn9RxliEp6h9qFAOSZJSwb7+yfb29k0yxv7UULnjn+N5FzOP4/2t1DwlvaZgTfU6h1KzT92/Na6p7Rt9/9YAFdr+3TkD65x7ZKEcek1ePTE5t2ma2+SMv/f+zZl9Tb7XhaTfDz6lvrIyfaw2N9Iu+SlpTh2nGMs6L1LYRJ8zBKwBKrT9iWPHjn31jJtJX05/wsSDgZYksR40Eq7I3Cxp0Gc67+EGts+EfftnTIj+0jn30BC31BsyOece0IM+qimMowc2c4fW2GY2d3zDWQNUcPv75Yym9/4pBbOoJuFFZJjtayBJ/zOi3a1iFZ5FkFLf0x0Br0x9v4GkV+ZmV9N4KWOco28r6xw2jnoMa4AKbp/8MumscMJ3z5I+XTCPVgvLgOwPl5Wz/ExQ0mt74PacWf3Ffj29qnVu7H5n+9va2vpKSVf0wK6auTDLq8bX1tjW6HNVNlsDVHD7j+UORHhiWsE8Yie9x57cCz9cio7db7T+Ul++3tdXT3tBfDrxzojhkcd/vu9jin/D/QUl66cE21Jwz9mnlWFOW0c5ljVAJbcPv2fOHVTv/fNKZhLLtsA1PKN+uiHPebH6jdnPZDL59hzxlxR2KIxWuLTtK1ymT+mfpF9J2T9P01ytmZT8c/TdVsvLjsth46jHWAZ+IO8/NXdwNzc3r73smeo9Mw2XxMP3rfeLYccs17A97fRmrrfF6DtWH5PJ5FazdqZ63eNXP89M5VPodzKZ7Kbqf/rQoZz7J2Qv0GLoOBX/XP1aGeSyc7TjWANUePtPJL5MulA34bGtkl5VAJsTzrk3hcesTiaTm+4bG8Ou/b7m/3XOfatz7oUzG8n0lXj/Yd62FH+Hm+Qk9fUQm0+ETXtS+BX6TPlLg1iFaAwtl9xHqtjm6tfKNpedox3HGqDS2+fYNGWReELhIem3Jc0/WjXHgvgu7/2vLvs9fIyYLfJ59r1QBDnnfiR8jyypj21ek++ZH/yd2zY3R2yvMkaurzlmYxvjtaRXxNDh0PuIwbrPPqzx6dP2UYxtDVDp7Z1zf9xnIL33e5LemYHTeyU9djKZbK7yN4Ytq8aY/Tzs9T694eulki6KMf5BfXjvHz87fsrX4THFB9mS4bOnp/QvRd+bm5vXl3RZBjZXKZZqHC8F/5x9WpnntHWUY1kDVEH7K7e2tm7bc3APe+9/2Hv/15JORGIWfj71hrDoN02z1cW/GON3GW/22HBZeVoU/bqk10m6OIY90z4+7b3/ydnxUr+W9JyI9q+zYIVfuxxO7WfM/p1zP9Qzs3U499ImJvc++rLGuQ+bRzWmNUCVtH9BKUHd2tq6taQHO+defPJ70PdLWrUNavh++V8l/W3YnnW6Q9udLL9xjxGzWDzDVyXe+4lz7ickPXW6q95HW3DZT8hhB8a/CPc5hN+Vx7KrbT+S/jkGT0sfTdPcoa29JRwn6WUWf8fUtoR4WWywxsoyNm1bELAGqJL2X3DOHWmBI/shYQFsmuYWko42TdNMb6JTuGoxmUxunuImrxgxywDqcPA/8Gia5s7e+3tIOu69v6/3/u7Oue8Ij+Lt8+w3XHmJwdLah3PuaRniEWWIULgWcIPofvFY/L9RoPfYiVXbPZo+jqGtAaqofdadAUtWT4yYlexfLtskPSkGywh9fGRjY+NQLr8t43jv7xXB3+IX7lg+WliX0NbKoQQfBm2DNUAVtf+i9/6sQQezpXMxYtZyqMEeFvZ7OPlVzidjsIzRh/d+uwbY3vuXxPB3LH3UENODbLTG6aC++SwCAWuAKmv/npC4I2CruosYMasaQATjp/csFHMm6px7cgS3knaxt7d3HUmfjaG/sfSRNCAZOrfGKYOJ4x7CGqDa2jvnHj3uiJ/a4MW8cI2ZYbgvQ9L7CtP+h0qPiXPunoUxM8+D1P6UHtNV9ln5rOqfz40ErAGqsP0VXX82Z0RcXPMYMSvOqYwGee//UwyGsfsIv6bIiKHzUN77P4zt89D76wy5sAbW+BTmzvDMsQao0vYfDpvTDC+a7TyKEbN2Iw3vqGPHjn21pAtjMIzdR84NkLpGdrplcvJNoGIz7bu/rpxLO97KrzR/BmePNUAVt3/DWO8HiBGzwU2Elg5J+tMY/BL18b6WbmQ/zDn3/Yl8Lv4yvsXv7IGKPKDF99A2sjl0N0/AGqDK2yd9mto861L+jhGzUnzJaYekh8Rgl7iPozmZtB1L0gsS+z3IQqAt31KPs8a8VL8GY5c1QLW3994/ZTDBbOlIjJi1HGowhznn7igpbL9c9ELjvX9MadDD9s+SPlM6uxLtKy2WXe2xMu06Hsd3JGAN0EDahweqVLGRSsfwLjw8RswWdjzQN6dP/LsgBrcMfby7tDB4778ng99FF2br+l9aLLvas67f++26jsfxHQnsg+ZfPTvFtrsdw5Hl8BixzmJoAYOELZpPXvr/VAxmGfv45gLQnTbBOffcjL4PqhA4DbHSF9a4V+p2PWZbAzSk9s65vwr7z9cTvfUsjRGz9Uauq9X0qYVF3vG/IoaPKoX09PL/+SvsHdSiHdPXUuK4rh1WFuuOS7uWBKwBGmD7T0i6U0t8VR4WI2ZVOt7B6PB0QUmfi8Gqhz7e3sHVpId67+/Sg/+DKSiSBidD59bYZzBx3ENYAzTQ9uERvE+wPHK3ZFXFiFnJ/llsm0wmNx3C42pLefql9/6/xtDbWPuwaLmEtta4leDDoG2wBmjg7T/qnLvP0AQQI2bOuR8c2D0Th733P1rSA36McXpE37qdbplc2/0TRV096DuG1vGNGmYfAGsAVrW3BmgM7cO9AQN4kuCh6Xfaz48Ys7Cj4i8dPXr0Rqt0VvLn001q3hmRS++LiPf+rX0zd859x5CY9uFL3zG0jm9lZh2f9isIWAM0pvbOubdIul+4sWkF1mI+Ds89cM79pqSwWKdamC51zr2waZr/p6KfUx52zt3VOfemhFxS8W7T74mtra1b9ylESc8cKNs2/KMc02f8YoxtjX8MG+jjAALWAI20/cfCouqc0wFoe/kobG8czvTD42ElfbCH+HxA0uNKfeDS1tbWbacF0Ud7YBNlUehg98N7EeHGxsb08n+4oTa3z4Mar6/4xRrXGv9YdtDPEgLWANFe50o6ezKZfOfm5ub1l2BO9nZY8CeTye7J56w/zHv/Z5IuLigm/xzYeO/vsbu7e+NkEA7oOFytaZrmDid38fv/JL1B0omC+CRdrLz3bz4ATdKPwtWgsXBO6WfSIGXo3Momg4njHsIaINpf5Qwn/HrgXWHjE+/9z4aFZ7qvwGGrysJC3zTNbZqmubNz7qGSni3pbyRdXkkMvhjYSPqjsBh77+/eNM3tdnZ2bmBls98+FGBh175wg6KkR0l67cl7FC6phE/SYgAGV5mn1bDe13at/1p1V6vf1dhtDRDtWyWWsId8OBv+y+lPzMLi/SxJTwqXy08u4o/w3v/q9O8nee9/V9KLvPevlvS3kj4mKSyg1SSujrZ+VtJ7pmforwy+T78/DnzC/08MjML/08v3T53+vCwc9wpJb5TE5ebh6mOoul/pVzULyRJDO+aBq/FY0i1vxyJgDRDtB7soX20yEmtijQbyaiBWnu+rH6te+rJ7NONaA0T7vAkB3vBGA+PRQO0LkVWrtftfvP3WANF+PMmIWBNrNJBXA8UvICsMtOplRfd8bCVgDRDt8yYEeMMbDYxHA9b83nd7q1b7tn/w41sDRPvxJCNiTazRQF4N1L4AWfVSu//F228NEO3zJgR4wxsNjEcDxS8gKwy0anVF93xsJWANEO3Hk4yINbFGA3k1YM3vfbe36qVv+wc/vjVAtM+bEOANbzQwHg3UvgBZtVq7/8Xbbw0Q7ceTjIg1sUYDeTVQ/AKywkCrXlZ0z8dWAtYA0T5vQoA3vNHAeDRgze99t7dqtW/7Bz++NUC0H08yItbEGg3k1UDtC5BVL7X7X7z9Y3o6mlWMtM+b/OAN75Fr4ETxC8gKA63xW9E9H1sJ8LQ0kqx1ktIeDaGBJBq42Jrf+25v1UXf9g9+fEnnWYNE+ySTn4fx8HQ7NDBuDXy89gXIujbU7n/x9kt6vzVItKcAQANoAA1E18B7i19AVhho1cSK7vnYSkDS66xBon30ic+Z37jP/Ig/8f+S9/7V1vzed3vr2tC3/YMf3zn3DGuQaE8BgAbQABqIroGza1+ArJqo3f/i7Zf0EGuQaB994nMGyBkgGkADDyp+AVlhoHVtWNE9H1sJNE2zZQ0S7SkA0AAaQAPRNXDUmt/7bm/VRN/2j2H8w5I+bQ0U7aNPfs4AOQNEA+PVwCc3NjYO1b4AWdeF2v2vwn5JL7MGivYUAGgADaCBOBpwzr24isVjhZFWPazono9jEPDe38saKNrHmfhwhCMaQAPe+3vEyO1992HVct/2j2L8zc3Na0s63xos2pO40AAaQFAzHOwAAA3VSURBVANmDVxw5MiRM4aw+Fi1MAQGVfgg6RxrsGhvnvh85zve73yJPbHf10D1P//bX/Ssa8J+P/ybmEDTNLeQdIU1YLSnCEADaAANrK2Bz08mk1slTvfZurfqIJuhDLSx4b1/njVgtF974u9X//zLmSAaGK8Gnj2ktci6HgyJRfG+hMpT0qXWoNGeIgANoAE00FkDl4QrscUvFB0MtGqgw1AcGoOAc+6R1qDRvvPE54xvvGd8xJ7Yn9KA9/4/x8jhJfVhXQtK8mUUtkx/EfBua+BoTxGABtAAGmitgXeF3Du0RcYa/6HxqMKfpmlux1cBrScuZ3CcwaEBNGDRwCWTyWSzisWho5EUAB2BlXK49/6B1uDRniICDaABNLBSAz9eSt6PbYc19rHtob8OBCT9ljWAtF85+S1nDrTlzBMN1K2BJ3ZIydUdas3/1Tk8MIMP8dNAFnDrJKY9GkIDCzXw34bwwJ+D1jxr3A/qm88yENjb27umpD+wBpL2CxMAZ291n70RP+K3rgZeEHJrhhTe6xDWvN+r8Qx+mkC4EvAYazBpTxGABtAAGtA5Gxsbh09n1wG/sMZ6wGjqc8059wB+HUACt05q2qOhkWrgEkmDveFv0YpmjfOiPnmvRwLTnwiyTwCXPte99Ek7tDNGDbxrqD/1O2g5ogA4iE6ln0m6lqRflHSxNcC052wQDaCBAWvg0vD16VAe79t1ybLGtet4HJ+RQHh2gHPuuTxFkARunei0R0MD00B4supzhra3f9flxRrTruNxfA8EJN1S0jmSLrAGnPYsBGgADVSsgfMlnT32hX9/GbLGcb8f/q2AQNjL2jl3T0kvlfQpa/Bpz0KABtBABRr4lPf+Jd77ewxxP3/L0mONnWVs2vZL4JBz7pikB0+vDrxG0vskfVzSZ63CoD0LAxpAAxk1EHJWyF0hh4VcdrakB0k6OvTNfCzLiDU+lrFpCwEIQAACEIBATwQoAHoCz7AQgAAEIACBPglQAPRJn7EhAAEIQAACPRGgAOgJPMNCAAIQgAAE+iRAAdAnfcaGAAQgAAEI9ESAAqAn8AwLAQhAAAIQ6JMABUCf9BkbAhCAAAQg0BMBCoCewDMsBCAAAQhAoE8CFAB90mdsCEAAAhCAQE8EKAB6As+wEIAABCAAgT4JUAD0SZ+xIQABCEAAAj0RoADoCTzDQgACEIAABPokQAHQJ33GhgAEIAABCPREgAKgJ/AMCwEIQAACEOiTAAVAn/QZGwIQgAAEINATAQqAnsAzLAQgAAEIQKBPAhQAfdIfyNgWEQ0EAW5AAAIQqI6AJXeHttU5jMHxCVhEFN8aeoQABCAAgTYELLmbAqAN4REcYxHRCPDgIgQgAIEiCVhyNwVAkSHNb5RFRPmtZUQIQAACEAgELLmbAgANnSJgEREIIQABCECgHwKW3E0B0E/MihvVIqLinMEgCEAAAiMhYMndFAAjEckqNy0iWtU3n0MAAhCAQBoCltxNAZAmJtX1ahFRdc5iMAQgAIGBELDkbgqAgYjA6oZFRNaxaQ8BCEAAAusRsORuCoD1mA+ulUVEg4OBQxCAAAQqIWDJ3RQAlQQ5tZkWEaW2jf4hAAEIQGAxAUvupgBYzHR071pENDpYOAwBCECgEAKW3E0BUEgQ+zbDIqK+bWd8CEAAAmMlYMndFABjVc2c3xYRzXXFnxCAAAQgkImAJXdTAGQKUunDWERUum/YBwEIQGCoBCy5mwJgqKro6JdFRB2H4nAIQAACEIhEwJK7KQAiBaH2biwiqt137IcABCBQKwFL7qYAqDXqke22iCiyKXQHAQhAAAItCVhyNwVAS8hDP8wioqGzwT8IQAACpRKw5G4KgFKjmtkui4gym8pwEIAABCAwJWDJ3RQAyOgUAYuIQAgBCEAAAv0QsORuCoB+YlbcqBYRFecMBkEAAhAYCQFL7qYAGIlIVrlpEdGqvvkcAhCAAATSELDkbgqANDGprleLiKpzFoMhAAEIDISAJXdTAAxEBFY3LCKyjk17CEAAAhBYj4Ald1MArMd8cK0sIhocDByCAAQgUAkBS+6mAKgkyKnNtIgotW30DwEIQAACiwlYcjcFwGKmo3vXIqLRwcJhCEAAAoUQsORuCoBCgti3GRYR9W0740MAAhAYKwFL7qYAGKtq5vy2iGiuK/6EAAQgAIFMBCy5mwIgU5BKH8YiotJ9wz4IQAACQyVgyd0UAENVRUe/LCLqOBSHQwACEIBAJAKW3E0BECkItXdjEVHtvmM/BCAAgVoJWHI3BUCtUY9st0VEkU2hOwhAAAIQaEnAkrspAFpCHvphFhENnQ3+QQACECiVgCV3UwCUGtXMdllElNlUhoMABCAAgSkBS+6mAEBGpwhYRARCCEAAAhDoh4Ald1MA9BOz4ka1iKg4ZzAIAhCAwEgIWHI3BcBIRLLKTYuIVvXN5xCAAAQgkIaAJXdTAKSJSXW9WkRUnbMYDAEIQGAgBCy5mwJgICKwumERkXVs2kMAAhCAwHoELLmbAmA95oNrZRHR4GDgEAQgAIFKCFhyNwVAJUFObaZFRKlto38IQAACEFhMwJK7KQAWMx3duxYRjQ4WDkMAAhAohIAld1MAFBLEvs2wiKhv2xkfAhCAwFgJWHI3BcBYVTPnt0VEc13xJwQgAAEIZCJgyd0UAJmCVPowFhGV7hv2QQACEBgqAUvupgAYqio6+mURUcehOBwCEIAABCIRsORuCoBIQai9G4uIavcd+yEAAQjUSsCSuykAao16ZLstIopsCt1BAAIQgEBLApbcTQHQEvLQD7OIaOhs8A8CEIBAqQQsuZsCoNSoZrbLIqLMpjIcBCAAAQhMCVhyNwUAMjpFwCIiEEIAAhCAQD8ELLmbAqCfmBU3qkVExTmDQRCAAARGQsCSuykARiKSVW5aRLSqbz6HAAQgAIE0BCy5mwIgTUyq69UiouqcxWAIQAACAyFgyd0UAAMRgdUNi4isY9MeAhCAAATWI2DJ3RQA6zEfXCuLiAYHA4cgAAEIVELAkrspACoJcmozLSJKbRv9QwACEIDAYgKW3E0BsJjp6N61iGh0sHAYAhCAQCEELLmbAqCQIPZthqQr1xXS8ePHr9G3/YwPAQhAYGwEJF1r3bw9bXfl2Jjh7wICki4yCOmGC7rkLQhAAAIQSEhgMpnc3JC3vxTyfkLz6LoWApI+tq6QvPe3r8VP7IQABCAwFALe+8m6eXva7qNDYYEfBgKS3rWukLz39zUMTVMIQAACEFiDgPf+7uvm7Wm7d64xLE2GRkDSKwxCes7QeOAPBCAAgdIJOOeeZsjb4SuAV5TuI/ZlICDpiQYhnX/kyJEzMpjJEBCAAAQgMCVguXI7zfdPBCYENpxz9zcUAF8K7cEIAQhAAAJ5CDjnjkg6Ycnb3vsfy2MtoxRNoGmaW1iEJOnDXAUoOsQYBwEIDIiA9/6/GnP2l7a2tm49ICS4YiEg6QNGQT3cMj5tIQABCEBgNYGdnZ2vkXS5MV+fu3okjhgNAe/97xoFdUnTNFujAYajEIAABHogIOllxlz9pXAFoQfTGbJUAs65b7WKStK5oTot1UfsggAEIFAzAe/9AyPk6VAA7NXMAdsTEJD0Xqu4vPdvpQhIEBy6hAAERk2gaZo7SLrYmqMlhQ2ADo8aJs5fnYCkh0UQV/h96Uecc8euPgLvQAACEIBAVwLe+7tIuiRGfnbOPbrr+Bw/AgLHjh27nqRPxxDZtFJ92Obm5rVHgA4XIQABCKQgcEjSz0v6XKy8vL29fZMUhtLnAAh47381ktDClYDw/wedc/cJT64aAB5cgAAEIJCDwKGmae4s6W8j5+On5jCeMSolML0KcG5k0YVC4Lxw56n3/ofDA4SOHj16o0oRYTYEIACBqARC3p1MJrdyzn33dGdW8/1YC3L4+Zz9Rw3bMDtzzt1zgXj2z+j599+vbMABDmgADdSkgQcNc8XCq+gEJP0JRcCprzBqmuDYyoKEBtDAIg38zfHjx68RfaGgw2ESCJfowxa/FAEUAWgADaCBqjVw0fb29jcMc6XCq2QEJpPJrqQrmPxVT/5FZwO8x1kiGhiHBk44534o2SJBx8MmEG7ak/RFigCKADSABtBAdRr4tWGvUHiXnICkX2DiVzfxOcMbxxkecSbOyzTw7OSLAwOMg4Bz7ue4EkARQCGIBtBAFRp4wd7e3jXHsTrhZRYC3vv7ck9AFZN/2RkB73O2iAaGr4EnbGxsHMqyKDDIuAhMJhMv6UOcBVAIoAE0gAaK0sBl3vufHNeKhLfZCezu7t6YfQKKmvic1Q3/rI4YE+ODNPDupmlul30xYMDxEnDOfX948h9nARQDaAANoIFeNBDO+h9z5MiRM8a7EuF5bwQ2NzevL+lRks4nAfSSAA46K+AzzhrRwDA18AVJz2eDn96WPgaeJRAKAefcL0t6P4UAhQAaQANoIIkGLpL0rKZpbjObf3kNgWIIeO/PkvTM8ChgkkCSJMBZ3TDP6ogrcV2kgQslvSL8Cmt3d/e6xSR6DIHAKgLhEZfe+x+T9KQgYknvkfRRSUHUi8TOe3BBA2hgbBq4VNInpydNfzE9gfoF7/02D/FZtcrwOQQgAAEIQAACEIAABCAAAQhAAAIQgAAEIAABCEAAAhCAAAQgAAEIQAACEIAABCAAAQhAAAIQgAAEIAABCEAAAhCAAAQgAAEIQAACEIAABCAAAQhAAAJ9EPj/AYhTZx/4s4MaAAAAAElFTkSuQmCC;" parent="1" vertex="1">
          <mxGeometry x="90" y="130" width="60" height="60" as="geometry" />
        </mxCell>
        <mxCell id="MCWtsF1nj_VE4NP892tD-5" value="" style="image;aspect=fixed;html=1;points=[];align=center;fontSize=12;image=img/lib/azure2/databases/Azure_Database_PostgreSQL_Server.svg;" parent="1" vertex="1">
          <mxGeometry x="336" y="353" width="48" height="64" as="geometry" />
        </mxCell>
        <mxCell id="MCWtsF1nj_VE4NP892tD-8" value="" style="sketch=0;pointerEvents=1;shadow=0;dashed=0;html=1;strokeColor=none;fillColor=#505050;labelPosition=center;verticalLabelPosition=bottom;verticalAlign=top;outlineConnect=0;align=center;shape=mxgraph.office.concepts.web_page;" parent="1" vertex="1">
          <mxGeometry x="562" y="-170" width="50" height="54" as="geometry" />
        </mxCell>
        <mxCell id="nApf8z-3uc3gBv6YrtkV-18" style="edgeStyle=orthogonalEdgeStyle;rounded=0;orthogonalLoop=1;jettySize=auto;html=1;exitX=1;exitY=0.75;exitDx=0;exitDy=0;" parent="1" source="nApf8z-3uc3gBv6YrtkV-2" target="nApf8z-3uc3gBv6YrtkV-15" edge="1">
          <mxGeometry relative="1" as="geometry" />
        </mxCell>
        <mxCell id="nApf8z-3uc3gBv6YrtkV-19" style="edgeStyle=orthogonalEdgeStyle;rounded=0;orthogonalLoop=1;jettySize=auto;html=1;" parent="1" source="nApf8z-3uc3gBv6YrtkV-2" target="MCWtsF1nj_VE4NP892tD-3" edge="1">
          <mxGeometry relative="1" as="geometry" />
        </mxCell>
        <mxCell id="q4-OsenWkqFwDgvqK5dO-22" value="Save cities + location" style="edgeLabel;html=1;align=center;verticalAlign=middle;resizable=0;points=[];" vertex="1" connectable="0" parent="nApf8z-3uc3gBv6YrtkV-19">
          <mxGeometry x="-0.1707" y="1" relative="1" as="geometry">
            <mxPoint as="offset" />
          </mxGeometry>
        </mxCell>
        <mxCell id="nApf8z-3uc3gBv6YrtkV-2" value="Retrieve cities GPS coordinates" style="rounded=1;whiteSpace=wrap;html=1;" parent="1" vertex="1">
          <mxGeometry x="60" y="-35" width="120" height="60" as="geometry" />
        </mxCell>
        <mxCell id="nApf8z-3uc3gBv6YrtkV-4" value="" style="sketch=0;outlineConnect=0;fontColor=#232F3E;gradientColor=none;fillColor=#7AA116;strokeColor=none;dashed=0;verticalLabelPosition=bottom;verticalAlign=top;align=center;html=1;fontSize=12;fontStyle=0;aspect=fixed;pointerEvents=1;shape=mxgraph.aws4.bucket_with_objects;" parent="1" vertex="1">
          <mxGeometry x="82.5" y="346" width="75" height="78" as="geometry" />
        </mxCell>
        <mxCell id="nApf8z-3uc3gBv6YrtkV-5" value="" style="sketch=0;aspect=fixed;pointerEvents=1;shadow=0;dashed=0;html=1;strokeColor=none;labelPosition=center;verticalLabelPosition=bottom;verticalAlign=top;align=center;fillColor=#00188D;shape=mxgraph.mscae.enterprise.internet_hollow" parent="1" vertex="1">
          <mxGeometry x="105" y="-211" width="100" height="62" as="geometry" />
        </mxCell>
        <mxCell id="q4-OsenWkqFwDgvqK5dO-23" style="edgeStyle=orthogonalEdgeStyle;rounded=0;orthogonalLoop=1;jettySize=auto;html=1;entryX=0.5;entryY=0;entryDx=0;entryDy=0;" edge="1" parent="1" source="nApf8z-3uc3gBv6YrtkV-15" target="nApf8z-3uc3gBv6YrtkV-20">
          <mxGeometry relative="1" as="geometry" />
        </mxCell>
        <mxCell id="q4-OsenWkqFwDgvqK5dO-24" value="Save weather forecast" style="edgeLabel;html=1;align=center;verticalAlign=middle;resizable=0;points=[];" vertex="1" connectable="0" parent="q4-OsenWkqFwDgvqK5dO-23">
          <mxGeometry x="-0.3192" relative="1" as="geometry">
            <mxPoint x="-41" y="-10" as="offset" />
          </mxGeometry>
        </mxCell>
        <mxCell id="q4-OsenWkqFwDgvqK5dO-26" style="edgeStyle=orthogonalEdgeStyle;rounded=0;orthogonalLoop=1;jettySize=auto;html=1;exitX=0.75;exitY=1;exitDx=0;exitDy=0;entryX=0.5;entryY=0;entryDx=0;entryDy=0;" edge="1" parent="1" source="nApf8z-3uc3gBv6YrtkV-15" target="q4-OsenWkqFwDgvqK5dO-25">
          <mxGeometry relative="1" as="geometry" />
        </mxCell>
        <mxCell id="q4-OsenWkqFwDgvqK5dO-27" value="Computed cities ranking" style="edgeLabel;html=1;align=center;verticalAlign=middle;resizable=0;points=[];" vertex="1" connectable="0" parent="q4-OsenWkqFwDgvqK5dO-26">
          <mxGeometry x="0.337" relative="1" as="geometry">
            <mxPoint y="5" as="offset" />
          </mxGeometry>
        </mxCell>
        <mxCell id="nApf8z-3uc3gBv6YrtkV-15" value="GET weather forecast for each cities" style="rounded=1;whiteSpace=wrap;html=1;" parent="1" vertex="1">
          <mxGeometry x="332" width="120" height="60" as="geometry" />
        </mxCell>
        <mxCell id="q4-OsenWkqFwDgvqK5dO-34" style="edgeStyle=orthogonalEdgeStyle;rounded=0;orthogonalLoop=1;jettySize=auto;html=1;" edge="1" parent="1" source="nApf8z-3uc3gBv6YrtkV-16" target="q4-OsenWkqFwDgvqK5dO-33">
          <mxGeometry relative="1" as="geometry" />
        </mxCell>
        <mxCell id="q4-OsenWkqFwDgvqK5dO-35" value="Save hotels descriptions and notations" style="edgeLabel;html=1;align=center;verticalAlign=middle;resizable=0;points=[];" vertex="1" connectable="0" parent="q4-OsenWkqFwDgvqK5dO-34">
          <mxGeometry x="-0.4914" y="3" relative="1" as="geometry">
            <mxPoint as="offset" />
          </mxGeometry>
        </mxCell>
        <mxCell id="nApf8z-3uc3gBv6YrtkV-16" value="Scrape best hotels for each scities" style="rounded=1;whiteSpace=wrap;html=1;" parent="1" vertex="1">
          <mxGeometry x="550" y="-60" width="120" height="60" as="geometry" />
        </mxCell>
        <mxCell id="nApf8z-3uc3gBv6YrtkV-20" value="" style="shape=image;verticalLabelPosition=bottom;labelBackgroundColor=default;verticalAlign=top;aspect=fixed;imageAspect=0;image=data:image/png,iVBORw0KGgoAAAANSUhEUgAAAgAAAAIACAYAAAD0eNT6AAAAAXNSR0IArs4c6QAAIABJREFUeAHtvQm4ZElZ532rWBoGBAFRQVlkCpcLVX0z/nHu9dLid1EQFwQRSgRxATfAUflABz9EWZRVxG5wwAFZxEE2Bx0HZJlxVDYdQEEWZRNoRGigm27pjYam+CrKvEV2dubNc/KNiBNxzq+fp5/Km3ki4n1/7z/eeM/Jk3E2NvgPAhCAAAQgAAEIQAACEIAABCAAAQhAAAIQgAAEIAABCEAAAhCAAAQgAAEIQAACEIAABCAAAQhAAAIQgAAEIAABCEAAAhCAAAQgAAEIQAACEIAABCAAAQhAYB0Ch5um2ZL0EElP996/WtJ7JX1C0kWSvsT/MEADg9DAw9dJELSBAAQGRGBzc/P6ku4n6U8lXUhyH0Ryp1CjWG2jgV8aUCrDFQhAoC0B59wxSS+QdCmLPos+GhinBpxzv9w2Z3AcBCBQOYHJZOIlvUbSCZL+OJM+cSfusxrw3v/nytMa5kMAAgcRaJrma733z5P0xdnJz2sWAzSABiQ94qD8wWcQgEClBJxz95R0PomeRI8G0MABGvi1SlMcZkMAAvMEjhw5coakZx8w4dvcKMQx3FCGBkaiAefcI+fzCH9DAAKVETh69OiNnHN/xeLPGR8aQAMdNfDrlaU7zIUABPYJ7OzsfL2kf+o46TnLG8lZHrqgIGihAb4O2E+o/AuBWghMJpObSvrHFhOcBZ8FHw2ggaUacM49upa8h50QGD2BnZ2dG0h6B4s/Z3hoAA3E0ABFwOiXFQBUQuCQpJfHmPT0weKBBtDAjAaeVEkOxEwIjJNA2NFrZsIuvazHMSR2NIAG1tDA48aZWfEaAoUTkPTNkj63xqSmUOA7YDSABlppwDn35MJTIeZBYHQEDkt6I4s/Z3VoAA2k1oD3/imjy7A4DIFSCTjnfiLRpH+fpLO99/eYTCZnSrrZ3t7eNUvlgF0QgMBVCXjv7y3pigT54QlXHYm/IACB7ATCgizpgxEn+Bedcy/23t8+uzMMCAEIRCfgnLtroid+PjG6sXQIAQi0JxDz7D/sGuic+5b2o3MkBCBQAwHv/VmSLox4orB/zwC/DqhBANg4TAKS/j7CpA6PBT5H0rWGSQmvIACBcFVP0scj5Iv9xX//36dCFwIQyExg+r38/iRc998T3vsfy2w6w0EAAj0Q8N5/U4ICIOSe3+rBHYaEwHgJOOeeFmEyP3y8BPEcAuMjECFnLDvZ4ErA+OSEx30RiPCwn+f3ZTvjQgAC/RBIWACEwuC3+/GKUSEwIgKTyeTmxon8b03TfO2IkOEqBCCwsbFhzBvLzv5Pv++9/52NjY1DwIYABBIRcM79iGUiO+cemsg0uoUABAomYMkbbdtSBBQsAEyrn4CkJ7adjAuOu+jYsWPXq58CHkAAAl0JLMgHp8/eY37mnPs9rgR0jQ7HQ6AFAUmvMEzWF7QYgkMgAIEBEjDkjXUKhadTBAxQRLjULwFJ71p3IoevD/q1ntEhAIG+CKybN9Zt55x7BkVAX9Fm3EESkPSxdSck2/wOUhI4BYFWBNbNG8Z2z6YIaBUeDoLAagKSLjJMyBuuHoEjIACBIRIw5I11vgKYbfNfKAKGqCh8yk5A0pXrTuTjx49fI7vBDAgBCBRBYN28EandsygCipABRtRMwDIZa/Yb2yEAARsBS+6I1PY5Gxsbh21e0BoCIyZgmYgjxobrEBg9AUvuiNj29ykCRi9FAKxLwDIR1x2TdhCAQP0ELLkjcluKgPrlhAd9ELBMxD7sZUwIQKAMApbcEbutc+65XAkoQxdYUREBy0SsyE1MhQAEIhOw5I4UbSkCIgeY7oZPwDIRh08HDyEAgWUELLkjVVuKgGXR4n0ILCBgmYgLuuMtCEBgJAQsuUPSgySdMPYxuzfA7Os/4ifKIxEhbtoIWCagbWRaQwACNROw5g7v/c+mKgKccy+mCKhZXdiehYB1EmcxkkEgAIHiCMTIHc65n0lZBOzt7V2zOHAYBIFSCMSYxKX4gh0QgEA+ArFyh3PupyV90dLfsrbe+5dQBOTTBCNVRmDZxGnzfmWuYi4EIBCRQJscseyYeTMoAuaJ8DcEMhBYNkHbvJ/BPIaAAAQKJdAmRyw7ZpFLJ59M+lOprgRIeilXAhZR571RE1g2Qdu8P2pwOA+BkRNokyOWHbMMnff+JykCltHhfQhEJrBsgrZ5P7IpdAcBCFREoE2OWHbMQW567x+YsAh4GVcCDqLPZ6MisGyCtnl/VKBwFgIQuAqBNjli2TFX6WjBHxQBC6DwFgRiE1g2Qdu8H9sW+oMABOoh0CZHLDumjZfe+/tKunJZH8b3Xy7pWm3s4BgIDJaAZRINFgqOQQACKwnkyB3e+x+W9AXLWAe0pQhYGWUOGDSBAybH7NaaC18PGgzOQQACBxLIlTtSFgHOuT/mSsCBYebDIRPINYmHzBDfIDBGAjlzh3PuPqmuBFAEjFG9+HyKQM5JDHIIQGA4BHLnDufcD6UqArz3/50rAcPRJp60JJB7Erc0i8MgAIHCCfSROyQdT1UESHrlkSNHzigcO+ZBIB6BPiZxPOvpCQIQ6ItAX7nDe39vioC+os64gyLQ1yQeFEScgcAICfSZO6ZFwOctNhzQ9lVcCRihoMfo8gGTYOGd/7PHj5EXPkMAAv9OYDYXdH0dg6H3/l6SkhQBzrk/pwiIESX6KJpA14k7e3zRjmEcBCCQlMBsLuj6OpZhzrm7Sfpc1/HbHB+KgL29vevEspV+IFAcgTYTYdkxxTmDQRCAQDYCy/JCm/djGinp+ygCYhKlr9EQaDNZlx0zGkg4CgEIXI3AsrzQ5v2rdWZ8w3v/vamKAO/9q7kSYAwQzcsk0GayLjumTI+wCgIQyEFgWV5o834K+7z33yPp8jbjdz2GIiBFxOizdwJdJ8Ls8b0bjwEQgEBvBGZzQdfXqYxOWQRIeg1XAlJFjn57IdB14s4e34vBDAoBCBRBYDYXdH2d0gHn3HenuhIg6bW7u7vXTWk/fUMgG4GuE3f2+GxGMhAEIFAcgdlc0PV1amecc3elCEhNmf6rJ9B14s4eX73zOAABCKxNYDYXdH299qAdGkr6LoqADsA4dHwEuk7c2ePHRwuPIQCBfQKzuaDr6/0+Uv87LQIu62pfy+Nfx9cBqSNI/0kJtBT6wl0BkxpG5xCAQNEEaskd3vu7SEpSBHjv//rYsWPXKzpQGAeBZQRqmcTL7Od9CECgHwI15Y7JZPLtki622LysbSgCNjc3r99PFBgVAgYCy0Td5n3DsDSFAAQqJ9AmRyw7pg/XKQL6oM6YRRNYNkHbvF+0YxgHAQgkJdAmRyw7JqlhB3TunLtjqisBkl7PlYAD4PNReQSWTdA275fnDRZBAAK5CLTJEcuOyWXjonEkfZukzy6zzfg+RcAi6LxXJgGL2Mv0CKsgAIEcBGrOHYmLgDdwJSCHAhnDTKDmSWx2ng4gAIG1CdSeO7z3ZyW8EvCGs8466yvWhktDCOQgUPskzsGIMSAAgasTGELuaJrmDpL+zeLLAW3fSBFwdd3wTkEEDhDvwt/+zx5fkBuYAgEIZCYwmwu6vs5s6oHDUQQciIcPh0yg68SdPX7IXPANAhA4mMBsLuj6+uCe8386mUx2uRKQnzsj9kyg68SdPb5n0xkeAhDokcBsLuj6ukezlw7tnJOkz3T1pc3xzrk37ezs3GDp4HwAgT4ItBHvsmP6sJcxIQCBMggsywtt3i/Dg6tbMS0CLmjjQ9djKAKuzpt3eibQVcSzx/dsOsNDAAI9EpjNBV1f92j2yqElhUsBSYoA7/2buRKwMgQckItA14k7e3wuGxkHAhAoj8BsLuj6ujxvrmqR934i6fyufrU8/m1Hjx690VVH5C8I9ECgpWAX/iKgB3MZEgIQKITA0HMHRUAhQsOMdASGPonTkaNnCIybwBhyR9M0WymvBOzu7t543CrC+14JjGES9wqYwSEwUAJjyR3TIuDTFn8PaPt3FAEDnSA1uHWAMBde9p89vgb/sBECEEhDYDYXdH2dxqJ0vU4mkzMlUQSkQ0zPfRDoOnFnj+/DXsaEAATKICDp87P5oOPra5XhRXsrUhYBzrm3bG1tfWV7azgSAhEIdJy0V7kqEGF4uoAABColYNk0p9bL3s65Y5I+Zcmby9p679/KrwMqnQy1mr1MjG3er9Vn7IYABOwEJH20TZ5YdMxkMvF2C/rpQdI3S/r4Ir8ivPf27e3tm/TjGaOOjoBFsKODhcMQgMBpApLetm7+cM799OmOKnzRNM3tJJ23rv8r2nFjYIWaqNLkFUK8yiX/+WOrdBijIQCBKAQk/dF8Tujw98uiGNFjJ5PJZDNhEfD3tX5N0mNIGLorgQ4T9mrFQNexOB4CEBgOAefcow354/Ih3PTmvf8mSf9q4HC1vDrT1zskfdVwFIMnxRGYEdtBQlz4WXHOYBAEIJCNgPf+Hpb84b1/TDZjEw7EPQEJ4dJ1WgKWCZzWMnqHAARKJhDO4CVdacghlzVNc4uSfWxr2/b29jdK+piBxcKTrGl/XAloGwiO60bAIthuI3E0BCAwNALhp2uWHOK9f8lQmCQuAv6BrwOGopSC/LBM3oLcwBQIQKAHApJ+zZJDQlvn3CN7MD3JkFtbW7eV9C9WJkvav3Mymdw0ieF0Ok4CS4R20OWo05+NkxheQwAC+wS2trZufbII+KIlj0g64Zy7/36ftf/rnDtCEVB7FEdiv2XijgQRbkIAAgcQkPR/LHlk2vaEpN/Y2Ng4fMBQ1Xwk6T9aNkpawfNdx44d++pqYGBouQRWCO302f6i48r1CssgAIFcBJxzd1uUH9Z87zXhMnou21OO0zTNbSSduyaHA3OvpHfv7Ox8TUr76XsEBCziHAEeXIQABFYTOCTp7y25ZK7tFyQ9Jyygq4cu+4jt7e1vkPSROf9WLe5tP38PRUDZ8S/eOoswi3cOAyEAgSwEvPd3t+SSA9q+w3v/+Mlk8p2Sbnns2LHrZXEo4iDT+yQ+fICPbRf8Rce9p2mar41oLl2NiYBFlGPihK8QgMDBBLz3f2bJJ7TVogW+zXvvnUwmNz84OnwKgQUELJNuQXe8BQEIjJTA9Ez3UktOoe3aRcA/SbrZSKWH2+sSsEy4dcekHQQgMEwC3vsHWnIKbdcuAMKVgvdxJWCY8yqZV5YJl8woOoYABKol4L1/niWv0NZWBJx55plfV614MDwvActky2spo0EAAjUQ2N3dva5z7k2W3EJbWxHAlYAaZkoBNlomWgHmYwIEIFAgAUk3jPzTwDY3w3GMThcO7+dKQIETozSTKABKiwj2QGAYBMLP0ySFh9iwMPfD4P07OztfPww14UUSApbJmcQgOoUABAZDYHNz8/qSXmPJM7Q1FVAfDr/OGIygcCQuAcvkimsJvUEAAkMksLm5eW3v/e9acg1tTUXAB5umucUQtYVPRgKWiWUcmuYQgMCICEj6AUkXWHIObdcuBCgCRjTXWrtqmVCtB+FACEAAAhsbG9vb2zeRdE6ERwhzX0H3+wo+Ep5NgBAhcJoABcBpFLyAAAQyEZC0I+l1lvxD27WuBnxoMpncKlOYGaZ0ApZJVLpv2AcBCJRNwDkn7/1LJF1uyUW07VQMUASUPS3yWWeZOPmsZCQIQGDIBMK+Ac65Bzjn/lzSxZa8RNtWxcCHh6wnfGtJwDJZWg7BYRCAAARaE9jb27vmZDLZdc49VNKzvPf/W9IHJJ0n6RJLzqLtl4uD1gHhwOESsEyI4VLBMwhAAAJFETgk6UWWfD3ftijvMKYfAvOi6PJ3PxYzKgQgAIHxEdjb27uO9/7NXXL0QceOjyAeX43AQQJZ9dnVOuMNCEAAAhBIRkDSV02/DjH/DDKZkXRcD4FVi/xBn9fjJZZCAAIQGAYB59y3SLrwoNzc5rNh0MALE4E2Qll2jGlgGkMAAhCAwFoEvPd3WZaX276/1sA0GhaBtmJZdNywSOANBCAAgXoILMrJXd6rx1MsTUagi2Dmj01mFB1DAAIQgMCBBObzcde/D+ycD8dBoKtoZo8fByG8hAAEIFAegdlcvM7r8jzCouwE1hHOfpvsxjIgBCAAAQicIrCfh9f9F4wQ2FhXPKEd+CAAAQhAoB8CltxN/u4nZsWNahFRcc5gEAQgAIGRELDkbgqAkYhklZsWEa3qm88hAAEIQCANAUvupgBIE5PqerWIqDpnMRgCEIDAQAhYcjcFwEBEYHXDIiLr2LSHAAQgAIH1CFhyNwXAeswH18oiosHBwCEIQAAClRCw5G4KgEqCnNpMi4hS20b/EIAABCCwmIAld1MALGY6unctIhodLByGAAQgUAgBS+6mACgkiH2bYRFR37YzPgQgAIGxErDkbgqAsapmzm+LiOa64k8IQAACEMhEwJK7KQAyBan0YSwiKt037IMABCAwVAKW3E0BMFRVdPTLIqKOQ3E4BCAAAQhEImDJ3RQAkYJQezcWEdXuO/ZDAAIQqJWAJXdTANQa9ch2W0QU2RS6gwAEIACBlgQsuZsCoCXkoR9mEdHQ2eAfBCAAgVIJWHI3BUCpUc1sl0VEmU1lOAhAAAIQmBKw5G4KAGR0ioBFRCCEAAQgAIF+CFhyNwVAPzErblSLiIpzBoMgAAEIjISAJXdTAIxEJKvctIhoVd98DgEIQAACaQhYcjcFQJqYVNerRUTVOYvBEIAABAZCwJK7KQAGIgKrGxYRWcemPQQgAAEIrEfAkrspANZjPrhWFhENDgYOQQACEKiEgCV3UwBUEuTUZlpElNo2+ocABCAAgcUELLmbAmAx09G9axHR6GDhMAQgAIFCCFhyNwVAIUHs2wyLiPq2nfEhAAEIjJWAJXdTAIxVNXN+W0Q01xV/QgACEIBAJgKW3E0BkClIpQ9jEVHpvmEfBCAAgaESsORuCoChqqKjXxYRdRyKwyEAAQhAIBIBS+6mAIgUhNq7sYiodt+xHwIQgECtBCy5mwKg1qhHttsiosim0B0EIAABCLQkYMndFAAtIQ/9MIuIhs4G/yAAAQiUSsCSuykASo1qZrssIspsKsNBAAIQgMCUgCV3UwAgo1MELCICIQQgAAEI9EPAkrspAPqJWXGjWkRUnDMYBAEIQGAkBCy5mwJgJCJZ5aZFRKv65nMIQAACEEhDwJK7KQDSxKS6Xi0iqs5ZDIYABCAwEAKW3E0BMBARWN2wiMg6Nu0hAAEIQGA9ApbcTQGwHvPBtbKIaHAwcAgCEIBAJQQsuZsCoJIgpzbTIqLUttE/BCAAAQgsJmDJ3RQAi5mO7l2LiEYHC4chAAEIFELAkrspAAoJYt9mWETUt+2MDwEIQGCsBCy5mwJgrKqZ89siormu+BMCEIAABDIRsORuCoBMQSp9GIuISvcN+yAAAQgMlYAld1MADFUVHf2yiKjjUBwOAQhAAAKRCFhyNwVApCDU3o1FRLX7jv0QgAAEaiVgyd0UALVGPbLdFhFFNoXuIAABCECgJQFL7qYAaAl56IdZRDR0NvgHAQhAoFQCltxNAVBqVDPbZRFRZlMZDgIQgAAEpgQsuZsCABmdImAREQghAAEIQKAfApbcTQHQT8yKG9UiouKcwSAIQAACIyFgyd0UACMRySo3LSJa1TefQwACEIBAGgKW3E0BkCYm1fVqEVF1zmIwBCAAgYEQsORuCoCBiMDqhkVE1rFpDwEIQAAC6xGw5G4KgPWYD66VRUSDg4FDEIAABCohYMndFACVBDm1mRYRpbaN/iEAAQhAYDEBS+6mAFjMdHTvWkQ0Olg4DAEIQKAQApbcTQFQSBD7NsMior5tZ3wIQAACYyVgyd0UAGNVzZzfFhHNdcWfEIAABCCQiYAld1MAZApS6cNYRFS6b9gHAQhAYKgELLmbAmCoqujol0VEHYficAhAAAIQiETAkrspACIFofZuLCKq3XfshwAEIFArAUvupgCoNeqR7baIKLIpdAcBCEAAAi0JWHI3BUBLyEM/zCKiobPBPwhAAAKlErDkbgqAUqOa2S6LiDKbynAQgAAEIDAlYMndFADI6BQBi4hACAEIQAAC/RCw5G4KgH5iVtyoFhEV5wwGQQACEBgJAUvupgAYiUhWuSnp6N7e3nVWHcfnEIAABCBQDgEKgHJigSUQgAAEIACBbAQoALKhZiAIQAACEIBAOQQoAMqJBZZAAAIQgAAEshGgAMiGmoEgAAEIQAAC5RCgACgnFlgCAQhAAAIQyEaAAiAbagaCAAQgAAEIlEOAAqCcWGAJBCAAAQhAIBsBCoBsqBkIAhCAAAQgUA4BCoByYoElEIAABCAAgWwEKACyoWYgCEAAAhCAQDkEKADKiQWWQAACEIAABLIRoADIhpqBIAABCEAAAuUQoAAoJxZYAgEIQAACEMhGgAIgG2oGggAEIAABCJRDgAKgnFjktuSw934i6SHOuWdIep2k90s6T9LFVmHQXl+CAQzQQDYNhJwVclfIYa+d5rSHNE2ztbGxcTh3cq1lPKs+a/ETOzc2No4cOXKG9/5ezrk/lnS+Nfi0z5bcKCYEa+bb2hoIue7lzrkfDDmQxeDLBKya+nJPvCqWwGQyuZWkp0v6jDXgtF87CbGIs4ijgf41cIGkcyTdstiEndEwaz7PaCpDdSWwtbV1a0nPl/R5a6Bpz8KPBtDAgDTweefcc8PJUde8OqTjrfEcEovB+CLpWpJ+ke/ySdjWCU57NDRwDVzmvX/MWL8asMZ2MIvmUByRdFTSe6yBpT2JHw2ggRFp4N1N09xuKOtAWz+s8W07DsdlICDppyRdZg0q7Un8aAANjFADl3rvH5ghVRczhDXGxTgyckMOOeeebA0m7Un6aAANoAGdM5afDlpjPfJ1t3/3w/f9zrkXWgNJexI/GkADaOC0Bv5gb2/vmv1n+LQWWOOd1jp6X0Xg0PQuf35e1P/Pi4gBMUADw9LAi4Z+JYACYNUSW/Dnkp5qDSDtT1f8JO9hJW/iSTzNGvDeP6XgJcBsmjX/mw2gg/UITG/4MwvcKgDaU0CgATQwZA045x6wXpYuv5U1buV7OEALvfe3l3SpNXi0J3GjATSABlZq4PLJZHLmAJeSDWvsh8ikaJ/ChhX8zn/lhOXKCJd/0QAaiKmBd29ubl676MVhDeMoANaA1mcTSY+yBo32FBBoAA2ggc4a+JU+c3+Ksa0aSGETfS4hsL29/Q1s9NN50sY8C6AvzirRwHg1cOnQnh1AAbBksS3xbX7yx+JvnbC0R0NowKSB3y9xbVjXJqsW1h2Xdh0JNE1zC0lXWANGe9Pk5+xvvGd/xJ7YBw18fkhXAazrQcdljMPXJSDp6dZg0Z7FHw2gATRg1kDYKngQ/1m1MAgIpTsR7j6VdL41WLQ3T3zOAjkLRANo4IKhPD7YuiaUvnYOwj7v/b2tgaI9iz8aQANoII4GnHP3HMLiYtXDEBgU74Okl1sDRfs4Ex+OcEQDaMB7/5LiF44WBlq13GIIDjESOCzp09ZA0Z6khQbQABqIpoHzh/CgIKsejGsbzVcR8N5PrEGifbRJz/e/fP+LBtDAKQ04546tyt+lf25dG0r3r3r7nHM/Zw0S7SkA0AAaQAPRNfDg2hcYqyZq9794+51zz7AGifbRJz5ngZwFogE0cHbxC8gKA61rw4ru+dhKQNLrrEGiPQUAGkADaCCuBrz3r7bm977bWzXRt/2DH1/S+61Bon3ciQ9PeKIBNCDpvbUvQFYd1+5/8fZLOs8aJNqTrNAAGkAD0TXw8eIXkBUGWjWxons+thKQdKk1SLSPPvH5/pfvf9EAGrjYmt/7bm9dG/q2f/DjSzphDRLtKQDQABpAA9E1cKL2Bciqidr9L95+a4BoH33Sc+bHmR8aQAOnNFD8ArLCQOv6sKJ7PrYSsAaI9hQAaAANoIE0GrDm977bW3XRt/2DH98aINqnmfhwhSsaQAO1L0BWDdfuf/H2WwNEe5IUGkADaCCNBopfQFYYaNXFiu752ErAGiDap5n4cIUrGkAD1vzed3urhvu2f/DjWwNEe5IUGkADaCCNBmpfgKy6qN3/4u23Boj2aSY+XOGKBtBA8QvICgOtGl7RPR9bCVgDRHuSFBpAA2ggjQas+b3v9lZd9G3/4Me3Boj2aSY+XOGKBtBA7QuQVcO1+1+8/dYA0Z4khQbQABpIo4HiF5AVBlp1saJ7PrYSsAaI9mkmPlzhigbQgDW/993equG+7R/8+NYA0Z4khQbQABpIo4HaFyCrLmr3v3j7rQGifZqJD1e4ogE0UPwCssJAq4ZXdM/HVgLWANGeJIUG0AAaSKMBa37vu71VF33bP/jxrQGifZqJD1e4ogE0UPsCZNVw7f4Xb781QLTvlKTO896/VdKrJP2BpKdKepL3/jGSHhH+994/PrznnHva9JhXOefeIumjkq4cMe/LJL1P0hu89/9d0jMDp+n/j5rnJ+lsSf/NOfe/JP2DpE+OmB2PF6708cLFLyArDLTOuRXd87GVgDVAtF9YAFzuvX+zpHOcc/d3zmlnZ+cG1lhtbm5ee3t7+xu999/rvf9/pwXCuwdYGJw7Xbwf6py769bW1q03NjYOWflJumGIhXPuPpIeK+mVkj6BhhdqmKKhgKLBqvm+21vnVt/2D358a4Bofzp5/mM4o/fe32Vvb+86OYUj6T9MJpNvD1cSvPd/LemKyuISCqY/c849QNItc7ILY5155plfF4oC59zvSXpvZHYvze3PZDK5uaQTkf1YtyD4l9z+h/kg6dJC/F+X26l2udnFHs8ag9j20N8cAWuARt7+Y977pzjnjs1h7fXPkAC99/eYXiG4oOAYvdE59yNnnXXWV/QKbG7waUHwM9Ovai438rt4d3f3unNDJP9TUrgyZFp8YrT33j8vubNzA3jv7x3D9hL6mHOtuj+tDKtzuDaDrQEaY/twed8590N7e3vXLD3ekq4l6bskvejk9+TWxSzGgvJF7/0fSnJcOv48AAAgAElEQVSlswv2bW5uXl/ScUl/uu6VFefcPXP76r3/nRLmpvf+h3vw/SUl+B7DhtzsYo9nZRDbHvqbI2AN0MjahzPWO84hrObPra2trzx5M9yDJb2jj7h5718t6Wg1wOYM3d7evolz7uck/d+O/F4011XyPyV9X0cbYxR38318UdJXJXd2ZoBwtUXSxQX4Ps9irb9nXKvypTUOVTpdk9HWAI2k/Xudc3erKa6rbJ1MJt85vQkuJOm1klOHdp8YID8v6fktr6r825EjR85YFZOYn0+vXPR9L8jbYvrUpq9wtaWDLlPr3tx/G59LPsYai5J9G4Rt1gANvP3nnHOPzp28cwpL0sNSxnD6k72sZ4E5+YWrApI+uIqhc+77c9oVxnLO/dUquxJ//oTcPodfjyT2ybyod7EvN7/Y43XxddGxse2hvzkCi6Dz3qkz4nc4575lDtfg/pT0l4nifcI598jBAZtzSNJ/bHnH/Qvmmib/8+TPQ8P+CFkXrLnx7pTcyZkBQqEu6d/mbOjTf/PYM+5V+dIaiyqdrsloa4AG2v6/5P4pXx+a2draum3LxatrIgtXTu7Th0+5x5T0xJZz4DNhH4ec9knaaWlb1/i2Of6S3P6Gqyw9+tuGSedjcuolxVjWeKSwiT5nCFgDNLD2X5D0oBk8g37ZYfHqkriuDD/DGjS4qXPhVyCS/rXtHPDef09OLsePH7+GpM+0tS/yca/M6WsYyzn3wsg+dNF9kmNzM4w9njUese2hvzkC1gANqP2FzrnvmMMz2D+ni9fHI8fvhPf+gYOFNueYc+4HO/L7/bkukv85vQcjyeK0wvdfTO7czADhaoOkC1fY1AcH05gzLlb50hqPKp2uyWhrgAbS/sKmaZqa4ma1dbpRkCk5zcc+/PbcaldN7SW9Zp7Bir/Pz713xPRnn1HjvMLHU2Plvn+mkJ89Rudc03xYZGsbrRx0zKI+eS8igYPgj+Szz4T94SMiraKrsPVu5Pi+fci/lpgP6mQyuZWkzj+hbJrmzvN9pfzbOXckcpzbLHLZt/8NOw724GcbFqZjUmojR9/WmOSwcdRjWANUefuwM963jU0A073iw/0OpuQ00z48pbDaDX7Wib+kx83434Xjs9YZz9JG0ofWtLWLX6ePdc4912Jv17bT3S5L3vL6NJuucejKorTju/o7f3xp/gzOnnngI/o7/Ezt/oMLaAuHws/zIsf5OS2GHcwh0/snPrYmw/PCzXk5YUh69pq2rrVw5d7+1zn33Tn9yzlWTp2kGMvKKoVN9DlDwBqgWts7535zBsOYXh6S9IGIcbssPDxnTAC993e38PPe7+XkNX2WwVqL+Rp+Zt/+N3eBswaTtdnn1EmKsaysUthEnzMErAGqtP3rc9+MNYO815eS7hQ5Zs/v1aEeBpf0Py0MnXPPyGn2dLfCzvcrrOOj9/6tOX2b/tTxU+vYWkObnCxTjGVlnMIm+pwhYA1Qhe0/0zTNLWYQjOpl7K1Sm6a5w5gA7uzsfP3JHfbCPQ9rn9WFvQM2NjYO5+QWFmajzW39zbr97/SZFm1tq+64nBpJMZZVcylsos8ZAtYA1dbee/+TM+6P6uXRo0dvJOmyiDF776gAbmxsnNw58ddj8PPen5WTnaQnxLB7VR89fL3xrFU21fx5To2kGMvKPoVN9DlDwBqgmtp77/96Y2Pj0Iz7o3rpvf9PkeN1zqgAbmwclvSRGAydc0/LyS5schXD7hV9XJL5p6AhHp9YYVN1Z/2z/uTUSIqxZn1Z53UKm+hzhsA6Qam0zRcmk8nmjOtFvNzZ2bnB9vb2N4Sf0TVNc5utra1bhzP1FMZJ+vuYsQs3w6Wwc0Wf4SbGsMf9gyWdI+lFkl4h6U8kvWx6Q9hjnXM/HS4PTyaTm67or/XH3vvvjcjv3JzF6PRBOZdGtH/Rwpp1+99wtSGxP4t8zPpea3EWeqA1PoW6NRyzrAGqqH0RP1WT5MJl5OmjWs8/gN/nJP3z9Gl9T3fOPcB7f/t1lTcdN2ry2t3dvfG69nRtN/2t98Ml/csBzJb5d17Y+Mg598vOuW9d92d40yJj2RjrvL/TlYPl+DV2LuzqU9btf8PNlGtooatPvR5viXcJba3xKcGHQdtgDVAl7fv+qdqh8HS8SDdihf37ny/pB7pcbpX0zMixOi/XxAhXRJxzb4po/yfDlYLw+/G2T6yTdDNJMTdP+pL3/im5GIZxJIUCKtmClnn733D5v/WDmFL6nbLvnPpIMZaVTQqb6HOGgDVAlbR/+ozLWV82TXM7SW9IxOkC59zvOefueNDl5N3d3esmeFDK6zOBDJf8u+6532WRuyh8jeC9v9dBBVWCzZOCjf+cieGpYZxzxxLpMPjy0Zy+hB08E/rSRT9Jj83JNMVY1hilsIk+ZwhYA1RB+y+E79hnXM72Mpz1S7okE6Nwc9rjwja/8w567380gQ0vmB8nxd/OubsmsH1Z0g5XBp4Q9vmf8yWcbabaTtfNjZXyz1BMnZeCZw/b/56dwo/S+kwphhx9W3nmsHHUY1gDVHp759yL+wiwpJ8/+V3/iR74fD74HL7r3vd7er/BskVv3fezXFWR9PQeGF7pnPsfofgIv9eX9F0Jbcj6u/nY+0Dsc8m8/W8oZNa5F2RdrffWbn8O1/rvvj7W/bdWv6uxe93A1NJuMpl8e+5geO8f2NPif5VE5Zx7i6SHJbLliTm4eu9f0rPW3n/yfot3JLThfTk47o/hnPuJBL5k3f53MpnsJvDhKnOnlP7341brv1aOtfpdjd3WABXe/oMHfTeeIkhN0zSSwh38RSaUiHb9Wgp+831K+u2INhcZk/Dd/Lzfqf4Oz22IzTP39r9j0MR+jFLpIFe/+36s+28uO0c7zrqBqaTdo3IGdnNz8/oJvysubfF6XA624QbHSrRmic9jc7DcH+Pkw4HeE5lpzq8xwuX/KJsxRWZgif/Stvsxq/VfK+Na/a7GbmuASm6/vb39jTkDMaYzk+BrLraSXlWyziLY9p5cLMM40w2Uli46Xf3Juf3v9ApbNNu7+pr7+Jy6SDGWlVcKm+hzhoA1QAW3/8cZN5O/DLsMxv6deMFsQwJ+VnKo0wEkfZWkdxXOw7Qo5fwNvXPubhFZXtx2L4UYenHOPTmi7aaY5bAjBrM++7Ay6tP2UYxtDVDB7bPcpLYvkumWtMUnlIjxevm+7zn+DZsBee9fHdH+0mKV5Z6KEKuzzjrrKyR9PhLLrNv/TnfHLC12yezJMbdSjmHVWErb6PvfLwcmE681+Jb2mS9L3ibCI2Jri8Pf9TGBJP24pIO2UK6N476978jJU9LrLfNrpm227X9TbGc948d+HIr6N6cmUoxl5ZvCJvqcIWANUKHtr5D0H2bcTPrSe//4QjmkTGYXJoV6QOfTxxo/KfKjjVOyatW39/6bDnA76kfheRQxNJvzqwtJT4xhc019RA16D51ZWfdg8riGtAao0PZvzBXF8GCZsWxKMh/rpmm+NhfnReM0TXML7/3zBnTvxa8s8jPFe5F+S597+9+wJ0OrYmoox6WIfc4+rXHIaesox7IGqND2v5UrmE3T3KFQBskTpff+3rk4HzTO9HHK4WFHl1cei7cd5GfMz/b29q4pKTwHYW2d5Nz+dzKZnGmxtda2MWPeR19W7n3YPKoxrQEqtP39cgXROfebhTJYO7F38OfsXJzbjHPs2LGv9t4/xrqwdfA/OuOmaW7TxtcYx1gfbxyedRHDjjZ9SPqNPuPS19ht2JR8jJVbyb4NwjZrgEps772/fa7gTLfbjb4QlMh1gU3/lItzl3G2t7dvMi0ELlhgc+mx+qUuvlqOlfQQA5+s2/9K+keDraXHfKl9lviW0NYasxJ8GLQN1gAV2D7cAHitHEHb29u7TsSfUy1NAgUyPm3rZDLxOVivM0b4uZtz7pclfaJkhnO2/c06vq7TJmyUNTf26biuej/n9r/TR2q3tm2V7TV9vk5cS2pjZV2SL4O0xRqgAtuH/f+z/BfpRqraE9s5WWAbBpkWauFst4YtZE+EmxsN7nZqui6T8MuXTgMZDnbOPbrAPJNl3hqwFdHUGrcinBiyEdYAldbee/+/c8VL0oNL878Hey4MP8vLxdwyTtixzjn30yf3EvhwD5y6LBg5f1v/nHVY5NxnY+i7QB7E36L3Etoe5Fubz0rwYdA2tAlCZcc8J1fARrb3/0EL2G/kYh5jnPAVkff+xySV+rOyN8Tws00f4Ua+Neb3JUeOHDmjTf/WY8LeCGvYd5BWq/rMyq/v9tbY9W3/4Me3BqjA9lmeUheE4Zz7HwX630eC+2zfewKsM1FDIeCce4CkjxUWx3CD3c3W8alrm+lzFsJ4XXSTbfvfkztsPqqjbV38KP7YrvEs7Xhr7ErzZ3D2WANUYPucl0/fXqD/fSW1P611ckz3xj+7pO2cnXM/l4unpL/rqONfyGjbOzra1pf+k4ybi3OqcayxS2UX/U4JWANUWnvv/Y/mCu5YdwBcFnPn3P1zsU8xjvd+Iun/LvMv8/v/J4WPi/qUFLZVbr2A5dr+d2tr67Zd7BrisYviVdN71pjU5GuVtloDVGD778sViAHsPNc66beM88VN02zl4p9onMPT38df2tLn2Az3+7sybGyUyMerdNs0zZ07+Jpt+19Jv9LBrn1ug/r3KoGq8A9r/Cp0uS6TrQEqrf1kMvnOHBGY/rRsUMkmUiz/ZTKZ3DxHDFKOMZlMNvu++9w59zMpfdzve6rly9rEP+f2v5Le1samIR+zH6Na/7XGpla/q7HbGqDS2jvn7pgD/s7Ozg1K870ge95Z402B87oJT5SU9Ioeub5u3qZUf0t6bRs/c23/O32+w+gL7FTxztVvG00ddEwuO0c7zkHwK/1sJ0cwp3dPjz5BHaCR90m6ZY5YJB7jsHPuaQf4mVIDXwjbGif271T30x0TV/mSbfvflvassrf6z3PEPuUY1nmT0jb63tjYsAaotPZN0zQ5Aruzs/M1pfleoD0flZSlIEsdc+fck/vg671/YGrfQv/h3o1V/uXc/regmzF7LSJyxD7lGKs0terzlLbR9wALAEnfliOwu7u7N14lXj4/dWd5eDbDz+eISeoxnHO/10NMX5Xar2n/4ebHzxzkXyiCctgymUxuJenEQbaM5bMcvFOOYY1TStvoe4AFQLijOUdgNzc3r28V98ja/0ntNweGjYMk/UXmuF2xtbX1lTk07b3/sxW+ZfmFjaSHrbCj17PynLbliHvKMaysUtpG3wMsAJxzd8sR2OliMJpEZJ3I0/YXee9/dmNj41COGKUYIxQxJ69oZH3McNi2OIUv832u+N79Skk3nG+T4m/n3Jsi6a36+ZmCb84+rXHMaesox7IGqLT23vt75wqkpL5/K15rgnuj9347V5xij3PyYUI/nlP3Ycvp2D4s6s85960H+PV3i9rEfm9nZ+frufz/5U2ZYvPN3d8BemqVu3LbO7rxrAEqrX3O3egknVua/xXZE77jfalz7kiFk+6Qc+4tGVlfHrYrTs1pelXrkkV+ee9/J/X4of+T9yH8wqLxx/peDuYpx7DGLaVt9D3MrwBK3kO9VdVrnTSVtb/Ce/+7tf1k0Dl315ycvff3zZGwwuO0F/mV6/f/kl6/aPyxvpcj5inHsMYtpW30PcACwHv/+FyB5WmAX75UaZ3okj7vnHthePxrrvhZx5H0DxH8blUUOuf+2Gpvm/bOuUcv8mlra+vWbdpbjgmbR0nq+mTCVvwW+VTDexaeJbS1Mi7Bh0HbYA1Qge2fnytgkn67QP9rT4jhZrMXOeeO5YrjuuNkvlx96bFjx663rq1t24WttBdo+lNt21uOC09AXDB27Xo22W/hWUJbazxL8GHQNlgDVGD71+YKmKQHF+i/KeEU5M8J7/2rJd0pVzy7jjM9Yw0FSy7mx7va2PX46RbX82fhr+zazzrHS/rLjCxzxcw0zjocS2pjjWdJvgzSFmuACmz/rlyBaprmDgX6b0o4hfrz9vBTuL29vWvmim3bcST9bS5m3vuXtLXLcpykd8/59OuW/tq0ne6smbOYqmKetGFX8jFzOurMvGTfBmGbNUAFtr8wV2B2d3evG767LpBB54lWiQ8fkPSg8PS6XDFeNY6kJ2Rkd3HQ3CqbrJ+HJ/7N+uS9/x5rn6vah/0hZsfk9b9fVVrFrfTPrXEs3b/q7bMGqMT2Z5555tflCkzmn4MNdWHv6tcnJT0iPK0vV5yXjeO9v3vmOfADy2yJ9X54DPGsT+HsPFbfy/pxzv2v2TF5TQEQNLBML7wficAQJ1qOM5Z9/JIeN0SGlfj0qVAI9HlFIPdja733f7ivvVT/TiaTM2fi/4lU4+z3O32y5hdmxuxaEA72+H1Gtf5rjWmtfldjtzVAhbZ/RK4AhKfdFcpgsElxAe8Pe+9/NFfM58Y5dLIIuXyBTan4X3TkyJEz5myI+ufx48evIWl/Q6DXRe18QWeSfiojv1RxSdLvAlxVvWWNa1XO1misNUCFtn9RxliEp6h9qFAOSZJSwb7+yfb29k0yxv7UULnjn+N5FzOP4/2t1DwlvaZgTfU6h1KzT92/Na6p7Rt9/9YAFdr+3TkD65x7ZKEcek1ePTE5t2ma2+SMv/f+zZl9Tb7XhaTfDz6lvrIyfaw2N9Iu+SlpTh2nGMs6L1LYRJ8zBKwBKrT9iWPHjn31jJtJX05/wsSDgZYksR40Eq7I3Cxp0Gc67+EGts+EfftnTIj+0jn30BC31BsyOece0IM+qimMowc2c4fW2GY2d3zDWQNUcPv75Yym9/4pBbOoJuFFZJjtayBJ/zOi3a1iFZ5FkFLf0x0Br0x9v4GkV+ZmV9N4KWOco28r6xw2jnoMa4AKbp/8MumscMJ3z5I+XTCPVgvLgOwPl5Wz/ExQ0mt74PacWf3Ffj29qnVu7H5n+9va2vpKSVf0wK6auTDLq8bX1tjW6HNVNlsDVHD7j+UORHhiWsE8Yie9x57cCz9cio7db7T+Ul++3tdXT3tBfDrxzojhkcd/vu9jin/D/QUl66cE21Jwz9mnlWFOW0c5ljVAJbcPv2fOHVTv/fNKZhLLtsA1PKN+uiHPebH6jdnPZDL59hzxlxR2KIxWuLTtK1ymT+mfpF9J2T9P01ytmZT8c/TdVsvLjsth46jHWAZ+IO8/NXdwNzc3r73smeo9Mw2XxMP3rfeLYccs17A97fRmrrfF6DtWH5PJ5FazdqZ63eNXP89M5VPodzKZ7Kbqf/rQoZz7J2Qv0GLoOBX/XP1aGeSyc7TjWANUePtPJL5MulA34bGtkl5VAJsTzrk3hcesTiaTm+4bG8Ou/b7m/3XOfatz7oUzG8n0lXj/Yd62FH+Hm+Qk9fUQm0+ETXtS+BX6TPlLg1iFaAwtl9xHqtjm6tfKNpedox3HGqDS2+fYNGWReELhIem3Jc0/WjXHgvgu7/2vLvs9fIyYLfJ59r1QBDnnfiR8jyypj21ek++ZH/yd2zY3R2yvMkaurzlmYxvjtaRXxNDh0PuIwbrPPqzx6dP2UYxtDVDp7Z1zf9xnIL33e5LemYHTeyU9djKZbK7yN4Ytq8aY/Tzs9T694eulki6KMf5BfXjvHz87fsrX4THFB9mS4bOnp/QvRd+bm5vXl3RZBjZXKZZqHC8F/5x9WpnntHWUY1kDVEH7K7e2tm7bc3APe+9/2Hv/15JORGIWfj71hrDoN02z1cW/GON3GW/22HBZeVoU/bqk10m6OIY90z4+7b3/ydnxUr+W9JyI9q+zYIVfuxxO7WfM/p1zP9Qzs3U499ImJvc++rLGuQ+bRzWmNUCVtH9BKUHd2tq6taQHO+defPJ70PdLWrUNavh++V8l/W3YnnW6Q9udLL9xjxGzWDzDVyXe+4lz7ickPXW6q95HW3DZT8hhB8a/CPc5hN+Vx7KrbT+S/jkGT0sfTdPcoa29JRwn6WUWf8fUtoR4WWywxsoyNm1bELAGqJL2X3DOHWmBI/shYQFsmuYWko42TdNMb6JTuGoxmUxunuImrxgxywDqcPA/8Gia5s7e+3tIOu69v6/3/u7Oue8Ij+Lt8+w3XHmJwdLah3PuaRniEWWIULgWcIPofvFY/L9RoPfYiVXbPZo+jqGtAaqofdadAUtWT4yYlexfLtskPSkGywh9fGRjY+NQLr8t43jv7xXB3+IX7lg+WliX0NbKoQQfBm2DNUAVtf+i9/6sQQezpXMxYtZyqMEeFvZ7OPlVzidjsIzRh/d+uwbY3vuXxPB3LH3UENODbLTG6aC++SwCAWuAKmv/npC4I2CruosYMasaQATjp/csFHMm6px7cgS3knaxt7d3HUmfjaG/sfSRNCAZOrfGKYOJ4x7CGqDa2jvnHj3uiJ/a4MW8cI2ZYbgvQ9L7CtP+h0qPiXPunoUxM8+D1P6UHtNV9ln5rOqfz40ErAGqsP0VXX82Z0RcXPMYMSvOqYwGee//UwyGsfsIv6bIiKHzUN77P4zt89D76wy5sAbW+BTmzvDMsQao0vYfDpvTDC+a7TyKEbN2Iw3vqGPHjn21pAtjMIzdR84NkLpGdrplcvJNoGIz7bu/rpxLO97KrzR/BmePNUAVt3/DWO8HiBGzwU2Elg5J+tMY/BL18b6WbmQ/zDn3/Yl8Lv4yvsXv7IGKPKDF99A2sjl0N0/AGqDK2yd9mto861L+jhGzUnzJaYekh8Rgl7iPozmZtB1L0gsS+z3IQqAt31KPs8a8VL8GY5c1QLW3994/ZTDBbOlIjJi1HGowhznn7igpbL9c9ELjvX9MadDD9s+SPlM6uxLtKy2WXe2xMu06Hsd3JGAN0EDahweqVLGRSsfwLjw8RswWdjzQN6dP/LsgBrcMfby7tDB4778ng99FF2br+l9aLLvas67f++26jsfxHQnsg+ZfPTvFtrsdw5Hl8BixzmJoAYOELZpPXvr/VAxmGfv45gLQnTbBOffcjL4PqhA4DbHSF9a4V+p2PWZbAzSk9s65vwr7z9cTvfUsjRGz9Uauq9X0qYVF3vG/IoaPKoX09PL/+SvsHdSiHdPXUuK4rh1WFuuOS7uWBKwBGmD7T0i6U0t8VR4WI2ZVOt7B6PB0QUmfi8Gqhz7e3sHVpId67+/Sg/+DKSiSBidD59bYZzBx3ENYAzTQ9uERvE+wPHK3ZFXFiFnJ/llsm0wmNx3C42pLefql9/6/xtDbWPuwaLmEtta4leDDoG2wBmjg7T/qnLvP0AQQI2bOuR8c2D0Th733P1rSA36McXpE37qdbplc2/0TRV096DuG1vGNGmYfAGsAVrW3BmgM7cO9AQN4kuCh6Xfaz48Ys7Cj4i8dPXr0Rqt0VvLn001q3hmRS++LiPf+rX0zd859x5CY9uFL3zG0jm9lZh2f9isIWAM0pvbOubdIul+4sWkF1mI+Ds89cM79pqSwWKdamC51zr2waZr/p6KfUx52zt3VOfemhFxS8W7T74mtra1b9ylESc8cKNs2/KMc02f8YoxtjX8MG+jjAALWAI20/cfCouqc0wFoe/kobG8czvTD42ElfbCH+HxA0uNKfeDS1tbWbacF0Ud7YBNlUehg98N7EeHGxsb08n+4oTa3z4Mar6/4xRrXGv9YdtDPEgLWANFe50o6ezKZfOfm5ub1l2BO9nZY8CeTye7J56w/zHv/Z5IuLigm/xzYeO/vsbu7e+NkEA7oOFytaZrmDid38fv/JL1B0omC+CRdrLz3bz4ATdKPwtWgsXBO6WfSIGXo3Momg4njHsIaINpf5Qwn/HrgXWHjE+/9z4aFZ7qvwGGrysJC3zTNbZqmubNz7qGSni3pbyRdXkkMvhjYSPqjsBh77+/eNM3tdnZ2bmBls98+FGBh175wg6KkR0l67cl7FC6phE/SYgAGV5mn1bDe13at/1p1V6vf1dhtDRDtWyWWsId8OBv+y+lPzMLi/SxJTwqXy08u4o/w3v/q9O8nee9/V9KLvPevlvS3kj4mKSyg1SSujrZ+VtJ7pmforwy+T78/DnzC/08MjML/08v3T53+vCwc9wpJb5TE5ebh6mOoul/pVzULyRJDO+aBq/FY0i1vxyJgDRDtB7soX20yEmtijQbyaiBWnu+rH6te+rJ7NONaA0T7vAkB3vBGA+PRQO0LkVWrtftfvP3WANF+PMmIWBNrNJBXA8UvICsMtOplRfd8bCVgDRDt8yYEeMMbDYxHA9b83nd7q1b7tn/w41sDRPvxJCNiTazRQF4N1L4AWfVSu//F228NEO3zJgR4wxsNjEcDxS8gKwy0anVF93xsJWANEO3Hk4yINbFGA3k1YM3vfbe36qVv+wc/vjVAtM+bEOANbzQwHg3UvgBZtVq7/8Xbbw0Q7ceTjIg1sUYDeTVQ/AKywkCrXlZ0z8dWAtYA0T5vQoA3vNHAeDRgze99t7dqtW/7Bz++NUC0H08yItbEGg3k1UDtC5BVL7X7X7z9Y3o6mlWMtM+b/OAN75Fr4ETxC8gKA63xW9E9H1sJ8LQ0kqx1ktIeDaGBJBq42Jrf+25v1UXf9g9+fEnnWYNE+ySTn4fx8HQ7NDBuDXy89gXIujbU7n/x9kt6vzVItKcAQANoAA1E18B7i19AVhho1cSK7vnYSkDS66xBon30ic+Z37jP/Ig/8f+S9/7V1vzed3vr2tC3/YMf3zn3DGuQaE8BgAbQABqIroGza1+ArJqo3f/i7Zf0EGuQaB994nMGyBkgGkADDyp+AVlhoHVtWNE9H1sJNE2zZQ0S7SkA0AAaQAPRNXDUmt/7bm/VRN/2j2H8w5I+bQ0U7aNPfs4AOQNEA+PVwCc3NjYO1b4AWdeF2v2vwn5JL7MGivYUAGgADaCBOBpwzr24isVjhZFWPazono9jEPDe38saKNrHmfhwhCMaQAPe+3vEyO1992HVct/2j2L8zc3Na0s63xos2pO40AAaQFAzHOwAAA3VSURBVANmDVxw5MiRM4aw+Fi1MAQGVfgg6RxrsGhvnvh85zve73yJPbHf10D1P//bX/Ssa8J+P/ybmEDTNLeQdIU1YLSnCEADaAANrK2Bz08mk1slTvfZurfqIJuhDLSx4b1/njVgtF974u9X//zLmSAaGK8Gnj2ktci6HgyJRfG+hMpT0qXWoNGeIgANoAE00FkDl4QrscUvFB0MtGqgw1AcGoOAc+6R1qDRvvPE54xvvGd8xJ7Yn9KA9/4/x8jhJfVhXQtK8mUUtkx/EfBua+BoTxGABtAAGmitgXeF3Du0RcYa/6HxqMKfpmlux1cBrScuZ3CcwaEBNGDRwCWTyWSzisWho5EUAB2BlXK49/6B1uDRniICDaABNLBSAz9eSt6PbYc19rHtob8OBCT9ljWAtF85+S1nDrTlzBMN1K2BJ3ZIydUdas3/1Tk8MIMP8dNAFnDrJKY9GkIDCzXw34bwwJ+D1jxr3A/qm88yENjb27umpD+wBpL2CxMAZ291n70RP+K3rgZeEHJrhhTe6xDWvN+r8Qx+mkC4EvAYazBpTxGABtAAGtA5Gxsbh09n1wG/sMZ6wGjqc8059wB+HUACt05q2qOhkWrgEkmDveFv0YpmjfOiPnmvRwLTnwiyTwCXPte99Ek7tDNGDbxrqD/1O2g5ogA4iE6ln0m6lqRflHSxNcC052wQDaCBAWvg0vD16VAe79t1ybLGtet4HJ+RQHh2gHPuuTxFkARunei0R0MD00B4supzhra3f9flxRrTruNxfA8EJN1S0jmSLrAGnPYsBGgADVSsgfMlnT32hX9/GbLGcb8f/q2AQNjL2jl3T0kvlfQpa/Bpz0KABtBABRr4lPf+Jd77ewxxP3/L0mONnWVs2vZL4JBz7pikB0+vDrxG0vskfVzSZ63CoD0LAxpAAxk1EHJWyF0hh4VcdrakB0k6OvTNfCzLiDU+lrFpCwEIQAACEIBATwQoAHoCz7AQgAAEIACBPglQAPRJn7EhAAEIQAACPRGgAOgJPMNCAAIQgAAE+iRAAdAnfcaGAAQgAAEI9ESAAqAn8AwLAQhAAAIQ6JMABUCf9BkbAhCAAAQg0BMBCoCewDMsBCAAAQhAoE8CFAB90mdsCEAAAhCAQE8EKAB6As+wEIAABCAAgT4JUAD0SZ+xIQABCEAAAj0RoADoCTzDQgACEIAABPokQAHQJ33GhgAEIAABCPREgAKgJ/AMCwEIQAACEOiTAAVAn/QZGwIQgAAEINATAQqAnsAzLAQgAAEIQKBPAhQAfdIfyNgWEQ0EAW5AAAIQqI6AJXeHttU5jMHxCVhEFN8aeoQABCAAgTYELLmbAqAN4REcYxHRCPDgIgQgAIEiCVhyNwVAkSHNb5RFRPmtZUQIQAACEAgELLmbAgANnSJgEREIIQABCECgHwKW3E0B0E/MihvVIqLinMEgCEAAAiMhYMndFAAjEckqNy0iWtU3n0MAAhCAQBoCltxNAZAmJtX1ahFRdc5iMAQgAIGBELDkbgqAgYjA6oZFRNaxaQ8BCEAAAusRsORuCoD1mA+ulUVEg4OBQxCAAAQqIWDJ3RQAlQQ5tZkWEaW2jf4hAAEIQGAxAUvupgBYzHR071pENDpYOAwBCECgEAKW3E0BUEgQ+zbDIqK+bWd8CEAAAmMlYMndFABjVc2c3xYRzXXFnxCAAAQgkImAJXdTAGQKUunDWERUum/YBwEIQGCoBCy5mwJgqKro6JdFRB2H4nAIQAACEIhEwJK7KQAiBaH2biwiqt137IcABCBQKwFL7qYAqDXqke22iCiyKXQHAQhAAAItCVhyNwVAS8hDP8wioqGzwT8IQAACpRKw5G4KgFKjmtkui4gym8pwEIAABCAwJWDJ3RQAyOgUAYuIQAgBCEAAAv0QsORuCoB+YlbcqBYRFecMBkEAAhAYCQFL7qYAGIlIVrlpEdGqvvkcAhCAAATSELDkbgqANDGprleLiKpzFoMhAAEIDISAJXdTAAxEBFY3LCKyjk17CEAAAhBYj4Ald1MArMd8cK0sIhocDByCAAQgUAkBS+6mAKgkyKnNtIgotW30DwEIQAACiwlYcjcFwGKmo3vXIqLRwcJhCEAAAoUQsORuCoBCgti3GRYR9W0740MAAhAYKwFL7qYAGKtq5vy2iGiuK/6EAAQgAIFMBCy5mwIgU5BKH8YiotJ9wz4IQAACQyVgyd0UAENVRUe/LCLqOBSHQwACEIBAJAKW3E0BECkItXdjEVHtvmM/BCAAgVoJWHI3BUCtUY9st0VEkU2hOwhAAAIQaEnAkrspAFpCHvphFhENnQ3+QQACECiVgCV3UwCUGtXMdllElNlUhoMABCAAgSkBS+6mAEBGpwhYRARCCEAAAhDoh4Ald1MA9BOz4ka1iKg4ZzAIAhCAwEgIWHI3BcBIRLLKTYuIVvXN5xCAAAQgkIaAJXdTAKSJSXW9WkRUnbMYDAEIQGAgBCy5mwJgICKwumERkXVs2kMAAhCAwHoELLmbAmA95oNrZRHR4GDgEAQgAIFKCFhyNwVAJUFObaZFRKlto38IQAACEFhMwJK7KQAWMx3duxYRjQ4WDkMAAhAohIAld1MAFBLEvs2wiKhv2xkfAhCAwFgJWHI3BcBYVTPnt0VEc13xJwQgAAEIZCJgyd0UAJmCVPowFhGV7hv2QQACEBgqAUvupgAYqio6+mURUcehOBwCEIAABCIRsORuCoBIQai9G4uIavcd+yEAAQjUSsCSuykAao16ZLstIopsCt1BAAIQgEBLApbcTQHQEvLQD7OIaOhs8A8CEIBAqQQsuZsCoNSoZrbLIqLMpjIcBCAAAQhMCVhyNwUAMjpFwCIiEEIAAhCAQD8ELLmbAqCfmBU3qkVExTmDQRCAAARGQsCSuykARiKSVW5aRLSqbz6HAAQgAIE0BCy5mwIgTUyq69UiouqcxWAIQAACAyFgyd0UAAMRgdUNi4isY9MeAhCAAATWI2DJ3RQA6zEfXCuLiAYHA4cgAAEIVELAkrspACoJcmozLSJKbRv9QwACEIDAYgKW3E0BsJjp6N61iGh0sHAYAhCAQCEELLmbAqCQIPZthqQr1xXS8ePHr9G3/YwPAQhAYGwEJF1r3bw9bXfl2Jjh7wICki4yCOmGC7rkLQhAAAIQSEhgMpnc3JC3vxTyfkLz6LoWApI+tq6QvPe3r8VP7IQABCAwFALe+8m6eXva7qNDYYEfBgKS3rWukLz39zUMTVMIQAACEFiDgPf+7uvm7Wm7d64xLE2GRkDSKwxCes7QeOAPBCAAgdIJOOeeZsjb4SuAV5TuI/ZlICDpiQYhnX/kyJEzMpjJEBCAAAQgMCVguXI7zfdPBCYENpxz9zcUAF8K7cEIAQhAAAJ5CDjnjkg6Ycnb3vsfy2MtoxRNoGmaW1iEJOnDXAUoOsQYBwEIDIiA9/6/GnP2l7a2tm49ICS4YiEg6QNGQT3cMj5tIQABCEBgNYGdnZ2vkXS5MV+fu3okjhgNAe/97xoFdUnTNFujAYajEIAABHogIOllxlz9pXAFoQfTGbJUAs65b7WKStK5oTot1UfsggAEIFAzAe/9AyPk6VAA7NXMAdsTEJD0Xqu4vPdvpQhIEBy6hAAERk2gaZo7SLrYmqMlhQ2ADo8aJs5fnYCkh0UQV/h96Uecc8euPgLvQAACEIBAVwLe+7tIuiRGfnbOPbrr+Bw/AgLHjh27nqRPxxDZtFJ92Obm5rVHgA4XIQABCKQgcEjSz0v6XKy8vL29fZMUhtLnAAh47381ktDClYDw/wedc/cJT64aAB5cgAAEIJCDwKGmae4s6W8j5+On5jCeMSolML0KcG5k0YVC4Lxw56n3/ofDA4SOHj16o0oRYTYEIACBqARC3p1MJrdyzn33dGdW8/1YC3L4+Zz9Rw3bMDtzzt1zgXj2z+j599+vbMABDmgADdSkgQcNc8XCq+gEJP0JRcCprzBqmuDYyoKEBtDAIg38zfHjx68RfaGgw2ESCJfowxa/FAEUAWgADaCBqjVw0fb29jcMc6XCq2QEJpPJrqQrmPxVT/5FZwO8x1kiGhiHBk44534o2SJBx8MmEG7ak/RFigCKADSABtBAdRr4tWGvUHiXnICkX2DiVzfxOcMbxxkecSbOyzTw7OSLAwOMg4Bz7ue4EkARQCGIBtBAFRp4wd7e3jXHsTrhZRYC3vv7ck9AFZN/2RkB73O2iAaGr4EnbGxsHMqyKDDIuAhMJhMv6UOcBVAIoAE0gAaK0sBl3vufHNeKhLfZCezu7t6YfQKKmvic1Q3/rI4YE+ODNPDupmlul30xYMDxEnDOfX948h9nARQDaAANoIFeNBDO+h9z5MiRM8a7EuF5bwQ2NzevL+lRks4nAfSSAA46K+AzzhrRwDA18AVJz2eDn96WPgaeJRAKAefcL0t6P4UAhQAaQANoIIkGLpL0rKZpbjObf3kNgWIIeO/PkvTM8ChgkkCSJMBZ3TDP6ogrcV2kgQslvSL8Cmt3d/e6xSR6DIHAKgLhEZfe+x+T9KQgYknvkfRRSUHUi8TOe3BBA2hgbBq4VNInpydNfzE9gfoF7/02D/FZtcrwOQQgAAEIQAACEIAABCAAAQhAAAIQgAAEIAABCEAAAhCAAAQgAAEIQAACEIAABCAAAQhAAAIQgAAEIAABCEAAAhCAAAQgAAEIQAACEIAABCAAAQhAAAJ9EPj/AYhTZx/4s4MaAAAAAElFTkSuQmCC;" parent="1" vertex="1">
          <mxGeometry x="308" y="130" width="60" height="60" as="geometry" />
        </mxCell>
        <mxCell id="q4-OsenWkqFwDgvqK5dO-5" style="shape=image;editableCssRules=.*;image=data:image/svg+xml,PHN2ZyB2aWV3Qm94PSIwIDAgMjQgMjQiIHhtbG5zPSJodHRwOi8vd3d3LnczLm9yZy8yMDAwL3N2ZyI+PHN0eWxlPip7ZmlsbDojN0VCQzZGfTwvc3R5bGU+PHBhdGggZD0iTTIuNjcyIDIzLjk2OWMtLjM1Mi0uMDg5LS41MzQtLjIzNC0xLjQ3MS0xLjE2OEMuMDg1IDIxLjY4OC4wMTQgMjEuNTc5LjAxOCAyMC45OTljMC0uNjQ1LS4xOTYtLjQxNCAzLjM2OC0zLjk4NiAzLjYtMy42MDggMy40MTUtMy40NTEgNC4wNjQtMy40NDkuMzAyIDAgLjM3OC4wMTYuNjIuMTRsLjI3Ny4xNCAxLjc0NC0xLjc0NC0uMjE4LS4zNDNjLS40MjUtLjY2Mi0uODI1LTEuNjI5LTEuMDA2LTIuNDI5YTcuNjU3IDcuNjU3IDAgMCAxIDEuNDc5LTYuNDRjMi40OS0zLjEyIDYuOTU5LTMuODEyIDEwLjI2LTEuNTg4IDEuODEyIDEuMjE4IDIuOTkgMy4wOTkgMy4zMjggNS4zMTQuMDcuNDY3LjA3IDEuNTc5IDAgMi4wNzRhNy41NTQgNy41NTQgMCAwIDEtMi4yMDUgNC40MDIgNi43MTIgNi43MTIgMCAwIDEtMS45NDMgMS40MDFjLS45NTkuNDgzLTEuNzc1LjcxLTIuODgxLjgwMy0xLjU3My4xMzEtMy4zMi0uMzA1LTQuNjU2LTEuMTYzbC0uMzQzLS4yMTgtMS43NDQgMS43NDQuMTQuMjhjLjEyNS4yNDEuMTQuMzE2LjE0LjYxNy4wMDMuNjUxLjE1Ni40NjctMy40MjYgNC4wNDktMi43NjEgMi43NTYtMy4xODYgMy4xNjQtMy4zOTggMy4yNjEtLjI3MS4xMjUtLjY5LjE3MS0uOTQ1LjEwNnpNMTcuNDg1IDEzLjk1YTYuNDI1IDYuNDI1IDAgMCAwIDQuNjAzLTMuNTFjMS4zOTEtMi44OTkuNDU1LTYuMzA2LTIuMjI3LTguMTA4LS42MzgtLjQzLTEuNTI5LS43OTQtMi4zNjctLjk2Mi0uNTgxLS4xMTctMS44MDktLjEwNC0yLjQxNC4wMjVhNi41OTMgNi41OTMgMCAwIDAtMi40NTIgMS4wNjRjLS40NDQuMzE1LTEuMTc3IDEuMDQ4LTEuNDg3IDEuNDg3YTYuMzg0IDYuMzg0IDAgMCAwIC4zOCA3LjkwNyA2LjQwNiA2LjQwNiAwIDAgMCAzLjkwMSAyLjEzNmMuNTA5LjA3OCAxLjU0Mi4wNTggMi4wNjUtLjAzN3ptLTMuNzM4IDcuMzc2YTgwLjk3IDgwLjk3IDAgMCAxLTIuMTk2LS42NTFjLS4wMjUtLjAyOCAxLjIwNy00LjM5NiAxLjI1Ny00LjQ0OS4wMjMtLjAyNiA0LjI0MiAxLjE1MiA0LjQxNCAxLjIzNi4wNjIuMDI2LS4wMDMuMjg4LS41MjUgMi4xMDJhMzk4LjUxMyAzOTguNTEzIDAgMCAwLS42MzUgMi4yMzZjLS4wMjUuMDg3LS4wNjkuMTU2LS4wOTcuMTU2LS4wMjgtLjAwMy0xLjAyOC0uMjg3LTIuMjE5LS42MzF6bTIuOTEyLjUyNGMwLS4wNTMgMS4yMjctNC4zMzMgMS4yNDYtNC4zNDcuMDQ3LS4wMzQgNC4zMjQtMS4yMyA0LjM0MS0xLjIxMS4wMTkuMDE5LTEuMTk5IDQuMzM3LTEuMjMgNC4zNi0uMDIuMDE5LTQuMTI2IDEuMTkxLTQuMjU5IDEuMjE4LS4wNTQuMDExLS4wOTggMC0uMDk4LS4wMTl6bS03LjEwNS0xLjkxMWMuODQ2LS44NTIgMS41OTktMS42MjcgMS42NzQtMS43MjguMTcxLS4yMTguNDA1LS43MzIuNDcyLTEuMDE1LjAyNi0uMTE4LjA1My0uMzUyLjA1OC0uNTIybC4wMTEtLjMwNy4xODItLjA1MWMuMTAzLS4wMjguMTkzLS4wNDQuMjAyLS4wMzQuMDIzLjAyNS0xLjIwNyA0LjMyMS0xLjI0NiA0LjM2LS4wMi4wMTYtLjY3Ny4yMTMtMS40NjQuNDM2bC0xLjQyNS40MDUgMS41MzctMS41NDJ6bTguMjg5LTMuMDZhMS4zNzEgMS4zNzEgMCAwIDEtLjA1OS0uMTg3bC0uMDQ0LS4xNTYuMTU2LS4wMjhjMS4zMzktLjIyNyAyLjc3Ni0uODU2IDMuOTA4LTEuNzEzLjE2LS4xMjUuMjUyLS4xNzEuMjY1LS4xMzQuMDU0LjE2NS4yNzIuOTUuMjY1Ljk1OS0uMDM0LjAzNC00LjQ4IDEuMjgyLTQuNDkyIDEuMjYxem0tMTUuMDgzLTEuM2MtLjA1LS4wMzktMS4xNzktMy44NjYtMS4yNjQtNC4yOS0uMDE2LS4wODQuMTQ2LS4wNDQgMi4xNzQuNTM2IDIuMTIxLjYwNCAyLjE5Mi42MjkgMi4yMjIuNzQuMDI4LjA5OC4wMTEuMTI5LS4xMjUuMjIzLS4wODQuMDU5LS43NjkuNzI0LTEuNTIzIDEuNDc5YTYzLjg3NyA2My44NzcgMCAwIDEtMS4zOSAxLjM2N2MtLjAxNiAwLS4wNTYtLjAyNS0uMDkzLS4wNTR6bS44MjEtNC4zNzhjLTEuMTg4LS4zNDMtMi4xNjQtLjYyMy0yLjE2Ny0uNjI2LS4wMTYtLjAxMiAxLjI2MS00LjQzMyAxLjI4NS00LjQ2LjAyMi0uMDIyIDQuNDIyIDEuMjExIDQuNDY5IDEuMjUyLjAwOS4wMDktLjI2OSAxLjAxNy0uNjE4IDIuMjM5LS41NzYgMi4wMi0uNjQzIDIuMjI0LS43MjMgMi4yMi0uMDUtLjAwMy0xLjA1OS0uMjg1LTIuMjQ3LS42MjZ6bTIuOTU5LjUzOGMuMDEyLS4wMzEuMjEyLS43MjMuNDQ0LTEuNTM0bC40Mi0xLjQ3Ni4wNTYuMzIxYy4wOTMuNTU2LjI2NSAxLjE4OC40NjQgMS43NDEuMTA2LjI5Ni4xODcuNTM5LjE4MS41NDUtLjAwOC4wMDYtLjMzMi4xMDEtLjcxOS4yMTItLjM4OS4xMDktLjc0MS4yMS0uNzg2LjIyNC0uMDU4LjAxNi0uMDc1LjAwNi0uMDU5LS4wMzR6TTQuOTA1IDYuMTEyYy0xLjE4Ny0uMzM5LTIuMTY3LS42MzUtMi4xOC0uNjU0LS4wNC0uMDYyLTEuMjQ2LTQuMzIxLTEuMjMtNC4zMzguMDI2LS4wMjUgNC4zMSAxLjIwNCA0LjM1MSAxLjI0Ni4wNDcuMDUxIDEuMjggNC4zNzkgMS4yNDYgNC4zNzZMNC45MSA2LjExM3ptMi4xNDgtMS43MTNsLS41MTktMS44MDYtLjA3OC0uMjggMS42OTMtLjQ4M2MuOTM0LS4yNjUgMS43MjQtLjQ5NSAxLjc2LS41MDguMDM0LS4wMTYtLjA4My4xNC0uMjYuMzM2QTguNzI5IDguNzI5IDAgMCAwIDcuNjkgNS4yM2E0LjM0OCA0LjM0OCAwIDAgMC0uMTMyLjU2MWMwIC4yOTMtLjExNS0uMDI1LS41MDUtMS4zOXoiLz48L3N2Zz4=;" vertex="1" parent="1">
          <mxGeometry x="140" y="-188.5" width="30" height="34" as="geometry" />
        </mxCell>
        <mxCell id="q4-OsenWkqFwDgvqK5dO-7" style="edgeStyle=orthogonalEdgeStyle;rounded=0;orthogonalLoop=1;jettySize=auto;html=1;entryX=0.433;entryY=1.076;entryDx=0;entryDy=0;entryPerimeter=0;" edge="1" parent="1" source="nApf8z-3uc3gBv6YrtkV-2" target="nApf8z-3uc3gBv6YrtkV-5">
          <mxGeometry relative="1" as="geometry" />
        </mxCell>
        <mxCell id="q4-OsenWkqFwDgvqK5dO-8" value="search GPS coordinates" style="edgeLabel;html=1;align=center;verticalAlign=middle;resizable=0;points=[];" vertex="1" connectable="0" parent="q4-OsenWkqFwDgvqK5dO-7">
          <mxGeometry x="-0.5241" y="-1" relative="1" as="geometry">
            <mxPoint as="offset" />
          </mxGeometry>
        </mxCell>
        <mxCell id="q4-OsenWkqFwDgvqK5dO-9" value="" style="shape=image;verticalLabelPosition=bottom;labelBackgroundColor=#9E9E9E;verticalAlign=top;aspect=fixed;imageAspect=0;image=https://openweathermap.org/themes/openweathermap/assets/img/logo_white_cropped.png;imageBackground=none;" vertex="1" parent="1">
          <mxGeometry x="368" y="-181.9" width="67.5" height="28.82" as="geometry" />
        </mxCell>
        <mxCell id="q4-OsenWkqFwDgvqK5dO-11" style="edgeStyle=orthogonalEdgeStyle;rounded=0;orthogonalLoop=1;jettySize=auto;html=1;entryX=0.5;entryY=1;entryDx=0;entryDy=0;entryPerimeter=0;" edge="1" parent="1" source="nApf8z-3uc3gBv6YrtkV-15" target="q4-OsenWkqFwDgvqK5dO-10">
          <mxGeometry relative="1" as="geometry" />
        </mxCell>
        <mxCell id="q4-OsenWkqFwDgvqK5dO-12" value="GET Weather forecast" style="edgeLabel;html=1;align=center;verticalAlign=middle;resizable=0;points=[];" vertex="1" connectable="0" parent="q4-OsenWkqFwDgvqK5dO-11">
          <mxGeometry x="0.2967" y="1" relative="1" as="geometry">
            <mxPoint as="offset" />
          </mxGeometry>
        </mxCell>
        <mxCell id="q4-OsenWkqFwDgvqK5dO-13" value="" style="shape=image;verticalLabelPosition=bottom;labelBackgroundColor=default;verticalAlign=top;aspect=fixed;imageAspect=0;image=data:image/png,iVBORw0KGgoAAAANSUhEUgAAAK0AAAAqCAIAAABOeEx0AAAGc0lEQVR4Ae1bvZEiPRQkFPLAIQgCIABywCIETIoqIsDBpNbHWBcTZ4sASECnvT56+vpphtn9dvYr9nSFoZGe3uvX70di2BuNJuv6qQyMKgWVgXcGKguVgZoH9Uy8M1CroTJQ+8G9GupluVZDZaD2g9oP7gwUq2E8281XR/1MF/vxbFcUHnqSMPoAWG5Ol+vtcr31ER4a+TPpj1ini31q+Xe53pabU9wy6Ew2CjiX663b0Hx1JPCHwt2q/rnV6DB5J6c2eHl9i7uGm1E808W+w9D2cFaotSV0cOVL/jxZK5Vt4+/sCv3zoPaDGM2+M1FOY8/6G892y82JS9/ZdfvnwWiyXm5OL69vy82JyKODdabAQJxisFNKtpop5qotDff4oTwYDsYP1xzdY6Rj0XfnwXi22x7OCNvlent5fdsezh2HNHoMdOKSvz2cYx235cF0sX95feMHG/lIu+gQ+erAswwzKSUY5bxRQTFIwhc1avLxMd+4i0qiZE8qtoezssomHR2B6Yc+Nkia0f2dWkcedCxpilAMOIpE61mu8nls8m15oPO4umZeqIpJrJfH+epYxElhsDGe7VS56tRxpI4z49muaKhISBsVGUMbFZfrrbgL8nqC9wRc+L1Rd04Xe37UMataXeJ2HZg/RaAqr19JNCS0q9FNKaH6NQ94qJmkWtGxIlSLKqNjSx1mwGiyNhi6C2Pd+2kqoloqb1uar46K86/xXw+/W0KbFs5rkHA14xLz3di/XG8Mob2fQNbzQKEqBkajAiWmge5ZAOCaIaF+VQvYkLfAEB43YqCxNA6tKvLjcnOar45qsegIbalkNlekgjA6HIxIDGrz2IzCuWCe85GwsJfzKSUGG2Wh/pA4Bbc9nAkgR1FjQHlVAv2qQZOyZx4AP24zCj66Y8oVCeERPwbWro0QmouOfJSKlBILQHmDCcZIa6YN8ztycyPXN7FigDuITdKMuq2eQG0RhKoy63YwgyxjX7fzRICePnnQFhioMg28bEK/0t3GqVYnWaKb49kO5yxm1BfKYPCQCstRVaWBMI/MSvPYjEr9gKxldcoCS1/dZnqqTo3idLHvzpvRZK0KwaNqUG+JgeaKPqtCC57J41cVNUHNGBTT2mQUraWRST6kQttepMLYVtgdS4aheWxGIQ+MNQsS8lGxMmlUp/JieRDLxW4byGvVoN7msWmwuAKG5oEWClZVIYqVM9F9jVxcjQqVhzhWbeYIhLXwIhWWZIRtPdIafITxZyYuUGN0NRaEsvwwD6zgtLMRhiqMRWA5YQj/ex4UNRCbRs5MU+ZhYVBStcUEtaqLVFAPBowavyhRoGOJMl33g+iqBglR7HZG8wb4lOiofzRZa6TR33QGP3+rY8qgKicdilmFI33j2c40mLzGuAi+GLyG63vHRcGoraI2dTxSYWqVk/5LjWQzuqOkRgNnNxdwpM7kjdrf7F0KOVU2OQkYGjMGUukAgyqmf2pgYKJOM2c9E51W4cEjJJ8a1e+ZfMOI7VoYeNujDIMTEqu2DJuZgxKlQtWaI/2XGslmVMqD7eGMjyJAovAU0GMspYQXnzaph5Y1icv1ln3G348wBfVLkZqOlZRSIoNfkgemRCHpGLFUXzBj2Q94OTn0BXPWg4LR7cit/lRY4BRb/6VGshmFPFDVNu6oe5PEI5MG5mKW2C69OsQ8sOskvzhYCGFLC4sZQ6/VLm9eD+GxH2j1t8FQExwTyUNbbVTQBQyomX2UAh1LlOm6H+h+jnNUNAmgKAegzZ/YG7GlTT4bMv3FPLBDirVInKSjOw9UOfMgvgRD4LWNFy1Sg8FTVNHBz1HRhPB3AasJW1LYttQ8NqN7P+BPdjbIcC1Ctne62Ovr4WLG6BZkD1FCnlRS8uX1De+y9OU0QoXf34ATpzglESd0Dk6yCqkcbRwaoml8wcFb4dFkrdVPVfjtyrABnp0FcNBaI5B8ggq6gAF9pOMUYFziEmUK/aBZu2dGnQEDTFm9vvQhJ2ZYn13fKvOtxp4nsdAhtofzfHXMt7l4jX2C0H6I7ZoHkQG9Uui5y3H3+RgVPsHME0D8UF5/hbBeHhl7DvQC/3PY+zmefEUG4H7X8WdL9hPOz2Hv53jyRXlAQvCzE14B/Y//nYt4hh0Mq/2rY1PRDsXAUHprBjwXAzUPKgPvDFQWKgM1D+7/+/+5evgQaGs1VAZqP6j94A8DvwCfNLSde0idfgAAAABJRU5ErkJggg==;" vertex="1" parent="1">
          <mxGeometry x="533" y="-222.9" width="173" height="42" as="geometry" />
        </mxCell>
        <mxCell id="q4-OsenWkqFwDgvqK5dO-15" value="" style="sketch=0;pointerEvents=1;shadow=0;dashed=0;html=1;strokeColor=none;fillColor=#505050;labelPosition=center;verticalLabelPosition=bottom;verticalAlign=top;outlineConnect=0;align=center;shape=mxgraph.office.concepts.web_page;" vertex="1" parent="1">
          <mxGeometry x="615" y="-170" width="50" height="54" as="geometry" />
        </mxCell>
        <mxCell id="q4-OsenWkqFwDgvqK5dO-18" style="edgeStyle=orthogonalEdgeStyle;rounded=0;orthogonalLoop=1;jettySize=auto;html=1;entryX=0.455;entryY=1.004;entryDx=0;entryDy=0;entryPerimeter=0;" edge="1" parent="1" source="nApf8z-3uc3gBv6YrtkV-16" target="q4-OsenWkqFwDgvqK5dO-16">
          <mxGeometry relative="1" as="geometry" />
        </mxCell>
        <mxCell id="q4-OsenWkqFwDgvqK5dO-19" value="Web Scraping" style="edgeLabel;html=1;align=center;verticalAlign=middle;resizable=0;points=[];" vertex="1" connectable="0" parent="q4-OsenWkqFwDgvqK5dO-18">
          <mxGeometry x="-0.1916" y="1" relative="1" as="geometry">
            <mxPoint as="offset" />
          </mxGeometry>
        </mxCell>
        <mxCell id="q4-OsenWkqFwDgvqK5dO-21" style="edgeStyle=orthogonalEdgeStyle;rounded=0;orthogonalLoop=1;jettySize=auto;html=1;exitX=1;exitY=0.25;exitDx=0;exitDy=0;entryX=0.003;entryY=0.648;entryDx=0;entryDy=0;entryPerimeter=0;" edge="1" parent="1" source="nApf8z-3uc3gBv6YrtkV-2" target="nApf8z-3uc3gBv6YrtkV-16">
          <mxGeometry relative="1" as="geometry" />
        </mxCell>
        <mxCell id="q4-OsenWkqFwDgvqK5dO-25" value="" style="shape=image;verticalLabelPosition=bottom;labelBackgroundColor=default;verticalAlign=top;aspect=fixed;imageAspect=0;image=data:image/png,iVBORw0KGgoAAAANSUhEUgAAAgAAAAIACAYAAAD0eNT6AAAAAXNSR0IArs4c6QAAIABJREFUeAHtvQm4ZElZ532rWBoGBAFRQVlkCpcLVX0z/nHu9dLid1EQFwQRSgRxATfAUflABz9EWZRVxG5wwAFZxEE2Bx0HZJlxVDYdQEEWZRNoRGigm27pjYam+CrKvEV2dubNc/KNiBNxzq+fp5/Km3ki4n1/7z/eeM/Jk3E2NvgPAhCAAAQgAAEIQAACEIAABCAAAQhAAAIQgAAEIAABCEAAAhCAAAQgAAEIQAACEIAABCAAAQhAAAIQgAAEIAABCEAAAhCAAAQgAAEIQAACEIAABCAAAQhAYB0Ch5um2ZL0EElP996/WtJ7JX1C0kWSvsT/MEADg9DAw9dJELSBAAQGRGBzc/P6ku4n6U8lXUhyH0Ryp1CjWG2jgV8aUCrDFQhAoC0B59wxSS+QdCmLPos+GhinBpxzv9w2Z3AcBCBQOYHJZOIlvUbSCZL+OJM+cSfusxrw3v/nytMa5kMAAgcRaJrma733z5P0xdnJz2sWAzSABiQ94qD8wWcQgEClBJxz95R0PomeRI8G0MABGvi1SlMcZkMAAvMEjhw5coakZx8w4dvcKMQx3FCGBkaiAefcI+fzCH9DAAKVETh69OiNnHN/xeLPGR8aQAMdNfDrlaU7zIUABPYJ7OzsfL2kf+o46TnLG8lZHrqgIGihAb4O2E+o/AuBWghMJpObSvrHFhOcBZ8FHw2ggaUacM49upa8h50QGD2BnZ2dG0h6B4s/Z3hoAA3E0ABFwOiXFQBUQuCQpJfHmPT0weKBBtDAjAaeVEkOxEwIjJNA2NFrZsIuvazHMSR2NIAG1tDA48aZWfEaAoUTkPTNkj63xqSmUOA7YDSABlppwDn35MJTIeZBYHQEDkt6I4s/Z3VoAA2k1oD3/imjy7A4DIFSCTjnfiLRpH+fpLO99/eYTCZnSrrZ3t7eNUvlgF0QgMBVCXjv7y3pigT54QlXHYm/IACB7ATCgizpgxEn+Bedcy/23t8+uzMMCAEIRCfgnLtroid+PjG6sXQIAQi0JxDz7D/sGuic+5b2o3MkBCBQAwHv/VmSLox4orB/zwC/DqhBANg4TAKS/j7CpA6PBT5H0rWGSQmvIACBcFVP0scj5Iv9xX//36dCFwIQyExg+r38/iRc998T3vsfy2w6w0EAAj0Q8N5/U4ICIOSe3+rBHYaEwHgJOOeeFmEyP3y8BPEcAuMjECFnLDvZ4ErA+OSEx30RiPCwn+f3ZTvjQgAC/RBIWACEwuC3+/GKUSEwIgKTyeTmxon8b03TfO2IkOEqBCCwsbFhzBvLzv5Pv++9/52NjY1DwIYABBIRcM79iGUiO+cemsg0uoUABAomYMkbbdtSBBQsAEyrn4CkJ7adjAuOu+jYsWPXq58CHkAAAl0JLMgHp8/eY37mnPs9rgR0jQ7HQ6AFAUmvMEzWF7QYgkMgAIEBEjDkjXUKhadTBAxQRLjULwFJ71p3IoevD/q1ntEhAIG+CKybN9Zt55x7BkVAX9Fm3EESkPSxdSck2/wOUhI4BYFWBNbNG8Z2z6YIaBUeDoLAagKSLjJMyBuuHoEjIACBIRIw5I11vgKYbfNfKAKGqCh8yk5A0pXrTuTjx49fI7vBDAgBCBRBYN28EandsygCipABRtRMwDIZa/Yb2yEAARsBS+6I1PY5Gxsbh21e0BoCIyZgmYgjxobrEBg9AUvuiNj29ykCRi9FAKxLwDIR1x2TdhCAQP0ELLkjcluKgPrlhAd9ELBMxD7sZUwIQKAMApbcEbutc+65XAkoQxdYUREBy0SsyE1MhQAEIhOw5I4UbSkCIgeY7oZPwDIRh08HDyEAgWUELLkjVVuKgGXR4n0ILCBgmYgLuuMtCEBgJAQsuUPSgySdMPYxuzfA7Os/4ifKIxEhbtoIWCagbWRaQwACNROw5g7v/c+mKgKccy+mCKhZXdiehYB1EmcxkkEgAIHiCMTIHc65n0lZBOzt7V2zOHAYBIFSCMSYxKX4gh0QgEA+ArFyh3PupyV90dLfsrbe+5dQBOTTBCNVRmDZxGnzfmWuYi4EIBCRQJscseyYeTMoAuaJ8DcEMhBYNkHbvJ/BPIaAAAQKJdAmRyw7ZpFLJ59M+lOprgRIeilXAhZR571RE1g2Qdu8P2pwOA+BkRNokyOWHbMMnff+JykCltHhfQhEJrBsgrZ5P7IpdAcBCFREoE2OWHbMQW567x+YsAh4GVcCDqLPZ6MisGyCtnl/VKBwFgIQuAqBNjli2TFX6WjBHxQBC6DwFgRiE1g2Qdu8H9sW+oMABOoh0CZHLDumjZfe+/tKunJZH8b3Xy7pWm3s4BgIDJaAZRINFgqOQQACKwnkyB3e+x+W9AXLWAe0pQhYGWUOGDSBAybH7NaaC18PGgzOQQACBxLIlTtSFgHOuT/mSsCBYebDIRPINYmHzBDfIDBGAjlzh3PuPqmuBFAEjFG9+HyKQM5JDHIIQGA4BHLnDufcD6UqArz3/50rAcPRJp60JJB7Erc0i8MgAIHCCfSROyQdT1UESHrlkSNHzigcO+ZBIB6BPiZxPOvpCQIQ6ItAX7nDe39vioC+os64gyLQ1yQeFEScgcAICfSZO6ZFwOctNhzQ9lVcCRihoMfo8gGTYOGd/7PHj5EXPkMAAv9OYDYXdH0dg6H3/l6SkhQBzrk/pwiIESX6KJpA14k7e3zRjmEcBCCQlMBsLuj6OpZhzrm7Sfpc1/HbHB+KgL29vevEspV+IFAcgTYTYdkxxTmDQRCAQDYCy/JCm/djGinp+ygCYhKlr9EQaDNZlx0zGkg4CgEIXI3AsrzQ5v2rdWZ8w3v/vamKAO/9q7kSYAwQzcsk0GayLjumTI+wCgIQyEFgWV5o834K+7z33yPp8jbjdz2GIiBFxOizdwJdJ8Ls8b0bjwEQgEBvBGZzQdfXqYxOWQRIeg1XAlJFjn57IdB14s4e34vBDAoBCBRBYDYXdH2d0gHn3HenuhIg6bW7u7vXTWk/fUMgG4GuE3f2+GxGMhAEIFAcgdlc0PV1amecc3elCEhNmf6rJ9B14s4eX73zOAABCKxNYDYXdH299qAdGkr6LoqADsA4dHwEuk7c2ePHRwuPIQCBfQKzuaDr6/0+Uv87LQIu62pfy+Nfx9cBqSNI/0kJtBT6wl0BkxpG5xCAQNEEaskd3vu7SEpSBHjv//rYsWPXKzpQGAeBZQRqmcTL7Od9CECgHwI15Y7JZPLtki622LysbSgCNjc3r99PFBgVAgYCy0Td5n3DsDSFAAQqJ9AmRyw7pg/XKQL6oM6YRRNYNkHbvF+0YxgHAQgkJdAmRyw7JqlhB3TunLtjqisBkl7PlYAD4PNReQSWTdA275fnDRZBAAK5CLTJEcuOyWXjonEkfZukzy6zzfg+RcAi6LxXJgGL2Mv0CKsgAIEcBGrOHYmLgDdwJSCHAhnDTKDmSWx2ng4gAIG1CdSeO7z3ZyW8EvCGs8466yvWhktDCOQgUPskzsGIMSAAgasTGELuaJrmDpL+zeLLAW3fSBFwdd3wTkEEDhDvwt/+zx5fkBuYAgEIZCYwmwu6vs5s6oHDUQQciIcPh0yg68SdPX7IXPANAhA4mMBsLuj6+uCe8386mUx2uRKQnzsj9kyg68SdPb5n0xkeAhDokcBsLuj6ukezlw7tnJOkz3T1pc3xzrk37ezs3GDp4HwAgT4ItBHvsmP6sJcxIQCBMggsywtt3i/Dg6tbMS0CLmjjQ9djKAKuzpt3eibQVcSzx/dsOsNDAAI9EpjNBV1f92j2yqElhUsBSYoA7/2buRKwMgQckItA14k7e3wuGxkHAhAoj8BsLuj6ujxvrmqR934i6fyufrU8/m1Hjx690VVH5C8I9ECgpWAX/iKgB3MZEgIQKITA0HMHRUAhQsOMdASGPonTkaNnCIybwBhyR9M0WymvBOzu7t543CrC+14JjGES9wqYwSEwUAJjyR3TIuDTFn8PaPt3FAEDnSA1uHWAMBde9p89vgb/sBECEEhDYDYXdH2dxqJ0vU4mkzMlUQSkQ0zPfRDoOnFnj+/DXsaEAATKICDp87P5oOPra5XhRXsrUhYBzrm3bG1tfWV7azgSAhEIdJy0V7kqEGF4uoAABColYNk0p9bL3s65Y5I+Zcmby9p679/KrwMqnQy1mr1MjG3er9Vn7IYABOwEJH20TZ5YdMxkMvF2C/rpQdI3S/r4Ir8ivPf27e3tm/TjGaOOjoBFsKODhcMQgMBpApLetm7+cM799OmOKnzRNM3tJJ23rv8r2nFjYIWaqNLkFUK8yiX/+WOrdBijIQCBKAQk/dF8Tujw98uiGNFjJ5PJZDNhEfD3tX5N0mNIGLorgQ4T9mrFQNexOB4CEBgOAefcow354/Ih3PTmvf8mSf9q4HC1vDrT1zskfdVwFIMnxRGYEdtBQlz4WXHOYBAEIJCNgPf+Hpb84b1/TDZjEw7EPQEJ4dJ1WgKWCZzWMnqHAARKJhDO4CVdacghlzVNc4uSfWxr2/b29jdK+piBxcKTrGl/XAloGwiO60bAIthuI3E0BCAwNALhp2uWHOK9f8lQmCQuAv6BrwOGopSC/LBM3oLcwBQIQKAHApJ+zZJDQlvn3CN7MD3JkFtbW7eV9C9WJkvav3Mymdw0ieF0Ok4CS4R20OWo05+NkxheQwAC+wS2trZufbII+KIlj0g64Zy7/36ftf/rnDtCEVB7FEdiv2XijgQRbkIAAgcQkPR/LHlk2vaEpN/Y2Ng4fMBQ1Xwk6T9aNkpawfNdx44d++pqYGBouQRWCO302f6i48r1CssgAIFcBJxzd1uUH9Z87zXhMnou21OO0zTNbSSduyaHA3OvpHfv7Ox8TUr76XsEBCziHAEeXIQABFYTOCTp7y25ZK7tFyQ9Jyygq4cu+4jt7e1vkPSROf9WLe5tP38PRUDZ8S/eOoswi3cOAyEAgSwEvPd3t+SSA9q+w3v/+Mlk8p2Sbnns2LHrZXEo4iDT+yQ+fICPbRf8Rce9p2mar41oLl2NiYBFlGPihK8QgMDBBLz3f2bJJ7TVogW+zXvvnUwmNz84OnwKgQUELJNuQXe8BQEIjJTA9Ez3UktOoe3aRcA/SbrZSKWH2+sSsEy4dcekHQQgMEwC3vsHWnIKbdcuAMKVgvdxJWCY8yqZV5YJl8woOoYABKol4L1/niWv0NZWBJx55plfV614MDwvActky2spo0EAAjUQ2N3dva5z7k2W3EJbWxHAlYAaZkoBNlomWgHmYwIEIFAgAUk3jPzTwDY3w3GMThcO7+dKQIETozSTKABKiwj2QGAYBMLP0ySFh9iwMPfD4P07OztfPww14UUSApbJmcQgOoUABAZDYHNz8/qSXmPJM7Q1FVAfDr/OGIygcCQuAcvkimsJvUEAAkMksLm5eW3v/e9acg1tTUXAB5umucUQtYVPRgKWiWUcmuYQgMCICEj6AUkXWHIObdcuBCgCRjTXWrtqmVCtB+FACEAAAhsbG9vb2zeRdE6ERwhzX0H3+wo+Ep5NgBAhcJoABcBpFLyAAAQyEZC0I+l1lvxD27WuBnxoMpncKlOYGaZ0ApZJVLpv2AcBCJRNwDkn7/1LJF1uyUW07VQMUASUPS3yWWeZOPmsZCQIQGDIBMK+Ac65Bzjn/lzSxZa8RNtWxcCHh6wnfGtJwDJZWg7BYRCAAARaE9jb27vmZDLZdc49VNKzvPf/W9IHJJ0n6RJLzqLtl4uD1gHhwOESsEyI4VLBMwhAAAJFETgk6UWWfD3ftijvMKYfAvOi6PJ3PxYzKgQgAIHxEdjb27uO9/7NXXL0QceOjyAeX43AQQJZ9dnVOuMNCEAAAhBIRkDSV02/DjH/DDKZkXRcD4FVi/xBn9fjJZZCAAIQGAYB59y3SLrwoNzc5rNh0MALE4E2Qll2jGlgGkMAAhCAwFoEvPd3WZaX276/1sA0GhaBtmJZdNywSOANBCAAgXoILMrJXd6rx1MsTUagi2Dmj01mFB1DAAIQgMCBBObzcde/D+ycD8dBoKtoZo8fByG8hAAEIFAegdlcvM7r8jzCouwE1hHOfpvsxjIgBCAAAQicIrCfh9f9F4wQ2FhXPKEd+CAAAQhAoB8CltxN/u4nZsWNahFRcc5gEAQgAIGRELDkbgqAkYhklZsWEa3qm88hAAEIQCANAUvupgBIE5PqerWIqDpnMRgCEIDAQAhYcjcFwEBEYHXDIiLr2LSHAAQgAIH1CFhyNwXAeswH18oiosHBwCEIQAAClRCw5G4KgEqCnNpMi4hS20b/EIAABCCwmIAld1MALGY6unctIhodLByGAAQgUAgBS+6mACgkiH2bYRFR37YzPgQgAIGxErDkbgqAsapmzm+LiOa64k8IQAACEMhEwJK7KQAyBan0YSwiKt037IMABCAwVAKW3E0BMFRVdPTLIqKOQ3E4BCAAAQhEImDJ3RQAkYJQezcWEdXuO/ZDAAIQqJWAJXdTANQa9ch2W0QU2RS6gwAEIACBlgQsuZsCoCXkoR9mEdHQ2eAfBCAAgVIJWHI3BUCpUc1sl0VEmU1lOAhAAAIQmBKw5G4KAGR0ioBFRCCEAAQgAIF+CFhyNwVAPzErblSLiIpzBoMgAAEIjISAJXdTAIxEJKvctIhoVd98DgEIQAACaQhYcjcFQJqYVNerRUTVOYvBEIAABAZCwJK7KQAGIgKrGxYRWcemPQQgAAEIrEfAkrspANZjPrhWFhENDgYOQQACEKiEgCV3UwBUEuTUZlpElNo2+ocABCAAgcUELLmbAmAx09G9axHR6GDhMAQgAIFCCFhyNwVAIUHs2wyLiPq2nfEhAAEIjJWAJXdTAIxVNXN+W0Q01xV/QgACEIBAJgKW3E0BkClIpQ9jEVHpvmEfBCAAgaESsORuCoChqqKjXxYRdRyKwyEAAQhAIBIBS+6mAIgUhNq7sYiodt+xHwIQgECtBCy5mwKg1qhHttsiosim0B0EIAABCLQkYMndFAAtIQ/9MIuIhs4G/yAAAQiUSsCSuykASo1qZrssIspsKsNBAAIQgMCUgCV3UwAgo1MELCICIQQgAAEI9EPAkrspAPqJWXGjWkRUnDMYBAEIQGAkBCy5mwJgJCJZ5aZFRKv65nMIQAACEEhDwJK7KQDSxKS6Xi0iqs5ZDIYABCAwEAKW3E0BMBARWN2wiMg6Nu0hAAEIQGA9ApbcTQGwHvPBtbKIaHAwcAgCEIBAJQQsuZsCoJIgpzbTIqLUttE/BCAAAQgsJmDJ3RQAi5mO7l2LiEYHC4chAAEIFELAkrspAAoJYt9mWETUt+2MDwEIQGCsBCy5mwJgrKqZ89siormu+BMCEIAABDIRsORuCoBMQSp9GIuISvcN+yAAAQgMlYAld1MADFUVHf2yiKjjUBwOAQhAAAKRCFhyNwVApCDU3o1FRLX7jv0QgAAEaiVgyd0UALVGPbLdFhFFNoXuIAABCECgJQFL7qYAaAl56IdZRDR0NvgHAQhAoFQCltxNAVBqVDPbZRFRZlMZDgIQgAAEpgQsuZsCABmdImAREQghAAEIQKAfApbcTQHQT8yKG9UiouKcwSAIQAACIyFgyd0UACMRySo3LSJa1TefQwACEIBAGgKW3E0BkCYm1fVqEVF1zmIwBCAAgYEQsORuCoCBiMDqhkVE1rFpDwEIQAAC6xGw5G4KgPWYD66VRUSDg4FDEIAABCohYMndFACVBDm1mRYRpbaN/iEAAQhAYDEBS+6mAFjMdHTvWkQ0Olg4DAEIQKAQApbcTQFQSBD7NsMior5tZ3wIQAACYyVgyd0UAGNVzZzfFhHNdcWfEIAABCCQiYAld1MAZApS6cNYRFS6b9gHAQhAYKgELLmbAmCoqujol0VEHYficAhAAAIQiETAkrspACIFofZuLCKq3XfshwAEIFArAUvupgCoNeqR7baIKLIpdAcBCEAAAi0JWHI3BUBLyEM/zCKiobPBPwhAAAKlErDkbgqAUqOa2S6LiDKbynAQgAAEIDAlYMndFADI6BQBi4hACAEIQAAC/RCw5G4KgH5iVtyoFhEV5wwGQQACEBgJAUvupgAYiUhWuSnp6N7e3nVWHcfnEIAABCBQDgEKgHJigSUQgAAEIACBbAQoALKhZiAIQAACEIBAOQQoAMqJBZZAAAIQgAAEshGgAMiGmoEgAAEIQAAC5RCgACgnFlgCAQhAAAIQyEaAAiAbagaCAAQgAAEIlEOAAqCcWGAJBCAAAQhAIBsBCoBsqBkIAhCAAAQgUA4BCoByYoElEIAABCAAgWwEKACyoWYgCEAAAhCAQDkEKADKiQWWQAACEIAABLIRoADIhpqBIAABCEAAAuUQoAAoJxZYAgEIQAACEMhGgAIgG2oGggAEIAABCJRDgAKgnFjktuSw934i6SHOuWdIep2k90s6T9LFVmHQXl+CAQzQQDYNhJwVclfIYa+d5rSHNE2ztbGxcTh3cq1lPKs+a/ETOzc2No4cOXKG9/5ezrk/lnS+Nfi0z5bcKCYEa+bb2hoIue7lzrkfDDmQxeDLBKya+nJPvCqWwGQyuZWkp0v6jDXgtF87CbGIs4ijgf41cIGkcyTdstiEndEwaz7PaCpDdSWwtbV1a0nPl/R5a6Bpz8KPBtDAgDTweefcc8PJUde8OqTjrfEcEovB+CLpWpJ+ke/ySdjWCU57NDRwDVzmvX/MWL8asMZ2MIvmUByRdFTSe6yBpT2JHw2ggRFp4N1N09xuKOtAWz+s8W07DsdlICDppyRdZg0q7Un8aAANjFADl3rvH5ghVRczhDXGxTgyckMOOeeebA0m7Un6aAANoAGdM5afDlpjPfJ1t3/3w/f9zrkXWgNJexI/GkADaOC0Bv5gb2/vmv1n+LQWWOOd1jp6X0Xg0PQuf35e1P/Pi4gBMUADw9LAi4Z+JYACYNUSW/Dnkp5qDSDtT1f8JO9hJW/iSTzNGvDeP6XgJcBsmjX/mw2gg/UITG/4MwvcKgDaU0CgATQwZA045x6wXpYuv5U1buV7OEALvfe3l3SpNXi0J3GjATSABlZq4PLJZHLmAJeSDWvsh8ikaJ/ChhX8zn/lhOXKCJd/0QAaiKmBd29ubl676MVhDeMoANaA1mcTSY+yBo32FBBoAA2ggc4a+JU+c3+Ksa0aSGETfS4hsL29/Q1s9NN50sY8C6AvzirRwHg1cOnQnh1AAbBksS3xbX7yx+JvnbC0R0NowKSB3y9xbVjXJqsW1h2Xdh0JNE1zC0lXWANGe9Pk5+xvvGd/xJ7YBw18fkhXAazrQcdljMPXJSDp6dZg0Z7FHw2gATRg1kDYKngQ/1m1MAgIpTsR7j6VdL41WLQ3T3zOAjkLRANo4IKhPD7YuiaUvnYOwj7v/b2tgaI9iz8aQANoII4GnHP3HMLiYtXDEBgU74Okl1sDRfs4Ex+OcEQDaMB7/5LiF44WBlq13GIIDjESOCzp09ZA0Z6khQbQABqIpoHzh/CgIKsejGsbzVcR8N5PrEGifbRJz/e/fP+LBtDAKQ04546tyt+lf25dG0r3r3r7nHM/Zw0S7SkA0AAaQAPRNfDg2hcYqyZq9794+51zz7AGifbRJz5ngZwFogE0cHbxC8gKA61rw4ru+dhKQNLrrEGiPQUAGkADaCCuBrz3r7bm977bWzXRt/2DH1/S+61Bon3ciQ9PeKIBNCDpvbUvQFYd1+5/8fZLOs8aJNqTrNAAGkAD0TXw8eIXkBUGWjWxons+thKQdKk1SLSPPvH5/pfvf9EAGrjYmt/7bm9dG/q2f/DjSzphDRLtKQDQABpAA9E1cKL2Bciqidr9L95+a4BoH33Sc+bHmR8aQAOnNFD8ArLCQOv6sKJ7PrYSsAaI9hQAaAANoIE0GrDm977bW3XRt/2DH98aINqnmfhwhSsaQAO1L0BWDdfuf/H2WwNEe5IUGkADaCCNBopfQFYYaNXFiu752ErAGiDap5n4cIUrGkAD1vzed3urhvu2f/DjWwNEe5IUGkADaCCNBmpfgKy6qN3/4u23Boj2aSY+XOGKBtBA8QvICgOtGl7RPR9bCVgDRHuSFBpAA2ggjQas+b3v9lZd9G3/4Me3Boj2aSY+XOGKBtBA7QuQVcO1+1+8/dYA0Z4khQbQABpIo4HiF5AVBlp1saJ7PrYSsAaI9mkmPlzhigbQgDW/993equG+7R/8+NYA0Z4khQbQABpIo4HaFyCrLmr3v3j7rQGifZqJD1e4ogE0UPwCssJAq4ZXdM/HVgLWANGeJIUG0AAaSKMBa37vu71VF33bP/jxrQGifZqJD1e4ogE0UPsCZNVw7f4Xb781QLTvlKTO896/VdKrJP2BpKdKepL3/jGSHhH+994/PrznnHva9JhXOefeIumjkq4cMe/LJL1P0hu89/9d0jMDp+n/j5rnJ+lsSf/NOfe/JP2DpE+OmB2PF6708cLFLyArDLTOuRXd87GVgDVAtF9YAFzuvX+zpHOcc/d3zmlnZ+cG1lhtbm5ee3t7+xu999/rvf9/pwXCuwdYGJw7Xbwf6py769bW1q03NjYOWflJumGIhXPuPpIeK+mVkj6BhhdqmKKhgKLBqvm+21vnVt/2D358a4Bofzp5/mM4o/fe32Vvb+86OYUj6T9MJpNvD1cSvPd/LemKyuISCqY/c849QNItc7ILY5155plfF4oC59zvSXpvZHYvze3PZDK5uaQTkf1YtyD4l9z+h/kg6dJC/F+X26l2udnFHs8ag9j20N8cAWuARt7+Y977pzjnjs1h7fXPkAC99/eYXiG4oOAYvdE59yNnnXXWV/QKbG7waUHwM9Ovai438rt4d3f3unNDJP9TUrgyZFp8YrT33j8vubNzA3jv7x3D9hL6mHOtuj+tDKtzuDaDrQEaY/twed8590N7e3vXLD3ekq4l6bskvejk9+TWxSzGgvJF7/0fSnJcOv48AAAgAElEQVSlswv2bW5uXl/ScUl/uu6VFefcPXP76r3/nRLmpvf+h3vw/SUl+B7DhtzsYo9nZRDbHvqbI2AN0MjahzPWO84hrObPra2trzx5M9yDJb2jj7h5718t6Wg1wOYM3d7evolz7uck/d+O/F4011XyPyV9X0cbYxR38318UdJXJXd2ZoBwtUXSxQX4Ps9irb9nXKvypTUOVTpdk9HWAI2k/Xudc3erKa6rbJ1MJt85vQkuJOm1klOHdp8YID8v6fktr6r825EjR85YFZOYn0+vXPR9L8jbYvrUpq9wtaWDLlPr3tx/G59LPsYai5J9G4Rt1gANvP3nnHOPzp28cwpL0sNSxnD6k72sZ4E5+YWrApI+uIqhc+77c9oVxnLO/dUquxJ//oTcPodfjyT2ybyod7EvN7/Y43XxddGxse2hvzkCi6Dz3qkz4nc4575lDtfg/pT0l4nifcI598jBAZtzSNJ/bHnH/Qvmmib/8+TPQ8P+CFkXrLnx7pTcyZkBQqEu6d/mbOjTf/PYM+5V+dIaiyqdrsloa4AG2v6/5P4pXx+a2draum3LxatrIgtXTu7Th0+5x5T0xJZz4DNhH4ec9knaaWlb1/i2Of6S3P6Gqyw9+tuGSedjcuolxVjWeKSwiT5nCFgDNLD2X5D0oBk8g37ZYfHqkriuDD/DGjS4qXPhVyCS/rXtHPDef09OLsePH7+GpM+0tS/yca/M6WsYyzn3wsg+dNF9kmNzM4w9njUese2hvzkC1gANqP2FzrnvmMMz2D+ni9fHI8fvhPf+gYOFNueYc+4HO/L7/bkukv85vQcjyeK0wvdfTO7czADhaoOkC1fY1AcH05gzLlb50hqPKp2uyWhrgAbS/sKmaZqa4ma1dbpRkCk5zcc+/PbcaldN7SW9Zp7Bir/Pz713xPRnn1HjvMLHU2Plvn+mkJ89Rudc03xYZGsbrRx0zKI+eS8igYPgj+Szz4T94SMiraKrsPVu5Pi+fci/lpgP6mQyuZWkzj+hbJrmzvN9pfzbOXckcpzbLHLZt/8NOw724GcbFqZjUmojR9/WmOSwcdRjWANUefuwM963jU0A073iw/0OpuQ00z48pbDaDX7Wib+kx83434Xjs9YZz9JG0ofWtLWLX6ePdc4912Jv17bT3S5L3vL6NJuucejKorTju/o7f3xp/gzOnnngI/o7/Ezt/oMLaAuHws/zIsf5OS2GHcwh0/snPrYmw/PCzXk5YUh69pq2rrVw5d7+1zn33Tn9yzlWTp2kGMvKKoVN9DlDwBqgWts7535zBsOYXh6S9IGIcbssPDxnTAC993e38PPe7+XkNX2WwVqL+Rp+Zt/+N3eBswaTtdnn1EmKsaysUthEnzMErAGqtP3rc9+MNYO815eS7hQ5Zs/v1aEeBpf0Py0MnXPPyGn2dLfCzvcrrOOj9/6tOX2b/tTxU+vYWkObnCxTjGVlnMIm+pwhYA1Qhe0/0zTNLWYQjOpl7K1Sm6a5w5gA7uzsfP3JHfbCPQ9rn9WFvQM2NjYO5+QWFmajzW39zbr97/SZFm1tq+64nBpJMZZVcylsos8ZAtYA1dbee/+TM+6P6uXRo0dvJOmyiDF776gAbmxsnNw58ddj8PPen5WTnaQnxLB7VR89fL3xrFU21fx5To2kGMvKPoVN9DlDwBqgmtp77/96Y2Pj0Iz7o3rpvf9PkeN1zqgAbmwclvSRGAydc0/LyS5schXD7hV9XJL5p6AhHp9YYVN1Z/2z/uTUSIqxZn1Z53UKm+hzhsA6Qam0zRcmk8nmjOtFvNzZ2bnB9vb2N4Sf0TVNc5utra1bhzP1FMZJ+vuYsQs3w6Wwc0Wf4SbGsMf9gyWdI+lFkl4h6U8kvWx6Q9hjnXM/HS4PTyaTm67or/XH3vvvjcjv3JzF6PRBOZdGtH/Rwpp1+99wtSGxP4t8zPpea3EWeqA1PoW6NRyzrAGqqH0RP1WT5MJl5OmjWs8/gN/nJP3z9Gl9T3fOPcB7f/t1lTcdN2ry2t3dvfG69nRtN/2t98Ml/csBzJb5d17Y+Mg598vOuW9d92d40yJj2RjrvL/TlYPl+DV2LuzqU9btf8PNlGtooatPvR5viXcJba3xKcGHQdtgDVAl7fv+qdqh8HS8SDdihf37ny/pB7pcbpX0zMixOi/XxAhXRJxzb4po/yfDlYLw+/G2T6yTdDNJMTdP+pL3/im5GIZxJIUCKtmClnn733D5v/WDmFL6nbLvnPpIMZaVTQqb6HOGgDVAlbR/+ozLWV82TXM7SW9IxOkC59zvOefueNDl5N3d3esmeFDK6zOBDJf8u+6532WRuyh8jeC9v9dBBVWCzZOCjf+cieGpYZxzxxLpMPjy0Zy+hB08E/rSRT9Jj83JNMVY1hilsIk+ZwhYA1RB+y+E79hnXM72Mpz1S7okE6Nwc9rjwja/8w567380gQ0vmB8nxd/OubsmsH1Z0g5XBp4Q9vmf8yWcbabaTtfNjZXyz1BMnZeCZw/b/56dwo/S+kwphhx9W3nmsHHUY1gDVHp759yL+wiwpJ8/+V3/iR74fD74HL7r3vd7er/BskVv3fezXFWR9PQeGF7pnPsfofgIv9eX9F0Jbcj6u/nY+0Dsc8m8/W8oZNa5F2RdrffWbn8O1/rvvj7W/bdWv6uxe93A1NJuMpl8e+5geO8f2NPif5VE5Zx7i6SHJbLliTm4eu9f0rPW3n/yfot3JLThfTk47o/hnPuJBL5k3f53MpnsJvDhKnOnlP7341brv1aOtfpdjd3WABXe/oMHfTeeIkhN0zSSwh38RSaUiHb9Wgp+831K+u2INhcZk/Dd/Lzfqf4Oz22IzTP39r9j0MR+jFLpIFe/+36s+28uO0c7zrqBqaTdo3IGdnNz8/oJvysubfF6XA624QbHSrRmic9jc7DcH+Pkw4HeE5lpzq8xwuX/KJsxRWZgif/Stvsxq/VfK+Na/a7GbmuASm6/vb39jTkDMaYzk+BrLraSXlWyziLY9p5cLMM40w2Uli46Xf3Juf3v9ApbNNu7+pr7+Jy6SDGWlVcKm+hzhoA1QAW3/8cZN5O/DLsMxv6deMFsQwJ+VnKo0wEkfZWkdxXOw7Qo5fwNvXPubhFZXtx2L4UYenHOPTmi7aaY5bAjBrM++7Ay6tP2UYxtDVDB7bPcpLYvkumWtMUnlIjxevm+7zn+DZsBee9fHdH+0mKV5Z6KEKuzzjrrKyR9PhLLrNv/TnfHLC12yezJMbdSjmHVWErb6PvfLwcmE681+Jb2mS9L3ibCI2Jri8Pf9TGBJP24pIO2UK6N476978jJU9LrLfNrpm227X9TbGc948d+HIr6N6cmUoxl5ZvCJvqcIWANUKHtr5D0H2bcTPrSe//4QjmkTGYXJoV6QOfTxxo/KfKjjVOyatW39/6bDnA76kfheRQxNJvzqwtJT4xhc019RA16D51ZWfdg8riGtAao0PZvzBXF8GCZsWxKMh/rpmm+NhfnReM0TXML7/3zBnTvxa8s8jPFe5F+S597+9+wJ0OrYmoox6WIfc4+rXHIaesox7IGqND2v5UrmE3T3KFQBskTpff+3rk4HzTO9HHK4WFHl1cei7cd5GfMz/b29q4pKTwHYW2d5Nz+dzKZnGmxtda2MWPeR19W7n3YPKoxrQEqtP39cgXROfebhTJYO7F38OfsXJzbjHPs2LGv9t4/xrqwdfA/OuOmaW7TxtcYx1gfbxyedRHDjjZ9SPqNPuPS19ht2JR8jJVbyb4NwjZrgEps772/fa7gTLfbjb4QlMh1gU3/lItzl3G2t7dvMi0ELlhgc+mx+qUuvlqOlfQQA5+s2/9K+keDraXHfKl9lviW0NYasxJ8GLQN1gAV2D7cAHitHEHb29u7TsSfUy1NAgUyPm3rZDLxOVivM0b4uZtz7pclfaJkhnO2/c06vq7TJmyUNTf26biuej/n9r/TR2q3tm2V7TV9vk5cS2pjZV2SL4O0xRqgAtuH/f+z/BfpRqraE9s5WWAbBpkWauFst4YtZE+EmxsN7nZqui6T8MuXTgMZDnbOPbrAPJNl3hqwFdHUGrcinBiyEdYAldbee/+/c8VL0oNL878Hey4MP8vLxdwyTtixzjn30yf3EvhwD5y6LBg5f1v/nHVY5NxnY+i7QB7E36L3Etoe5Fubz0rwYdA2tAlCZcc8J1fARrb3/0EL2G/kYh5jnPAVkff+xySV+rOyN8Tws00f4Ua+Neb3JUeOHDmjTf/WY8LeCGvYd5BWq/rMyq/v9tbY9W3/4Me3BqjA9lmeUheE4Zz7HwX630eC+2zfewKsM1FDIeCce4CkjxUWx3CD3c3W8alrm+lzFsJ4XXSTbfvfkztsPqqjbV38KP7YrvEs7Xhr7ErzZ3D2WANUYPucl0/fXqD/fSW1P611ckz3xj+7pO2cnXM/l4unpL/rqONfyGjbOzra1pf+k4ybi3OqcayxS2UX/U4JWANUWnvv/Y/mCu5YdwBcFnPn3P1zsU8xjvd+Iun/LvMv8/v/J4WPi/qUFLZVbr2A5dr+d2tr67Zd7BrisYviVdN71pjU5GuVtloDVGD778sViAHsPNc66beM88VN02zl4p9onMPT38df2tLn2Az3+7sybGyUyMerdNs0zZ07+Jpt+19Jv9LBrn1ug/r3KoGq8A9r/Cp0uS6TrQEqrf1kMvnOHBGY/rRsUMkmUiz/ZTKZ3DxHDFKOMZlMNvu++9w59zMpfdzve6rly9rEP+f2v5Le1samIR+zH6Na/7XGpla/q7HbGqDS2jvn7pgD/s7Ozg1K870ge95Z402B87oJT5SU9Ioeub5u3qZUf0t6bRs/c23/O32+w+gL7FTxztVvG00ddEwuO0c7zkHwK/1sJ0cwp3dPjz5BHaCR90m6ZY5YJB7jsHPuaQf4mVIDXwjbGif271T30x0TV/mSbfvflvassrf6z3PEPuUY1nmT0jb63tjYsAaotPZN0zQ5Aruzs/M1pfleoD0flZSlIEsdc+fck/vg671/YGrfQv/h3o1V/uXc/regmzF7LSJyxD7lGKs0terzlLbR9wALAEnfliOwu7u7N14lXj4/dWd5eDbDz+eISeoxnHO/10NMX5Xar2n/4ebHzxzkXyiCctgymUxuJenEQbaM5bMcvFOOYY1TStvoe4AFQLijOUdgNzc3r28V98ja/0ntNweGjYMk/UXmuF2xtbX1lTk07b3/sxW+ZfmFjaSHrbCj17PynLbliHvKMaysUtpG3wMsAJxzd8sR2OliMJpEZJ3I0/YXee9/dmNj41COGKUYIxQxJ69oZH3McNi2OIUv832u+N79Skk3nG+T4m/n3Jsi6a36+ZmCb84+rXHMaesox7IGqLT23vt75wqkpL5/K15rgnuj9347V5xij3PyYUI/nlP3Ycvp2D4s6s85960H+PV3i9rEfm9nZ+frufz/5U2ZYvPN3d8BemqVu3LbO7rxrAEqrX3O3egknVua/xXZE77jfalz7kiFk+6Qc+4tGVlfHrYrTs1pelXrkkV+ee9/J/X4of+T9yH8wqLxx/peDuYpx7DGLaVt9D3MrwBK3kO9VdVrnTSVtb/Ce/+7tf1k0Dl315ycvff3zZGwwuO0F/mV6/f/kl6/aPyxvpcj5inHsMYtpW30PcACwHv/+FyB5WmAX75UaZ3okj7vnHthePxrrvhZx5H0DxH8blUUOuf+2Gpvm/bOuUcv8mlra+vWbdpbjgmbR0nq+mTCVvwW+VTDexaeJbS1Mi7Bh0HbYA1Qge2fnytgkn67QP9rT4jhZrMXOeeO5YrjuuNkvlx96bFjx663rq1t24WttBdo+lNt21uOC09AXDB27Xo22W/hWUJbazxL8GHQNlgDVGD71+YKmKQHF+i/KeEU5M8J7/2rJd0pVzy7jjM9Yw0FSy7mx7va2PX46RbX82fhr+zazzrHS/rLjCxzxcw0zjocS2pjjWdJvgzSFmuACmz/rlyBaprmDgX6b0o4hfrz9vBTuL29vWvmim3bcST9bS5m3vuXtLXLcpykd8/59OuW/tq0ne6smbOYqmKetGFX8jFzOurMvGTfBmGbNUAFtr8wV2B2d3evG767LpBB54lWiQ8fkPSg8PS6XDFeNY6kJ2Rkd3HQ3CqbrJ+HJ/7N+uS9/x5rn6vah/0hZsfk9b9fVVrFrfTPrXEs3b/q7bMGqMT2Z5555tflCkzmn4MNdWHv6tcnJT0iPK0vV5yXjeO9v3vmOfADy2yJ9X54DPGsT+HsPFbfy/pxzv2v2TF5TQEQNLBML7wficAQJ1qOM5Z9/JIeN0SGlfj0qVAI9HlFIPdja733f7ivvVT/TiaTM2fi/4lU4+z3O32y5hdmxuxaEA72+H1Gtf5rjWmtfldjtzVAhbZ/RK4AhKfdFcpgsElxAe8Pe+9/NFfM58Y5dLIIuXyBTan4X3TkyJEz5myI+ufx48evIWl/Q6DXRe18QWeSfiojv1RxSdLvAlxVvWWNa1XO1misNUCFtn9RxliEp6h9qFAOSZJSwb7+yfb29k0yxv7UULnjn+N5FzOP4/2t1DwlvaZgTfU6h1KzT92/Na6p7Rt9/9YAFdr+3TkD65x7ZKEcek1ePTE5t2ma2+SMv/f+zZl9Tb7XhaTfDz6lvrIyfaw2N9Iu+SlpTh2nGMs6L1LYRJ8zBKwBKrT9iWPHjn31jJtJX05/wsSDgZYksR40Eq7I3Cxp0Gc67+EGts+EfftnTIj+0jn30BC31BsyOece0IM+qimMowc2c4fW2GY2d3zDWQNUcPv75Yym9/4pBbOoJuFFZJjtayBJ/zOi3a1iFZ5FkFLf0x0Br0x9v4GkV+ZmV9N4KWOco28r6xw2jnoMa4AKbp/8MumscMJ3z5I+XTCPVgvLgOwPl5Wz/ExQ0mt74PacWf3Ffj29qnVu7H5n+9va2vpKSVf0wK6auTDLq8bX1tjW6HNVNlsDVHD7j+UORHhiWsE8Yie9x57cCz9cio7db7T+Ul++3tdXT3tBfDrxzojhkcd/vu9jin/D/QUl66cE21Jwz9mnlWFOW0c5ljVAJbcPv2fOHVTv/fNKZhLLtsA1PKN+uiHPebH6jdnPZDL59hzxlxR2KIxWuLTtK1ymT+mfpF9J2T9P01ytmZT8c/TdVsvLjsth46jHWAZ+IO8/NXdwNzc3r73smeo9Mw2XxMP3rfeLYccs17A97fRmrrfF6DtWH5PJ5FazdqZ63eNXP89M5VPodzKZ7Kbqf/rQoZz7J2Qv0GLoOBX/XP1aGeSyc7TjWANUePtPJL5MulA34bGtkl5VAJsTzrk3hcesTiaTm+4bG8Ou/b7m/3XOfatz7oUzG8n0lXj/Yd62FH+Hm+Qk9fUQm0+ETXtS+BX6TPlLg1iFaAwtl9xHqtjm6tfKNpedox3HGqDS2+fYNGWReELhIem3Jc0/WjXHgvgu7/2vLvs9fIyYLfJ59r1QBDnnfiR8jyypj21ek++ZH/yd2zY3R2yvMkaurzlmYxvjtaRXxNDh0PuIwbrPPqzx6dP2UYxtDVDp7Z1zf9xnIL33e5LemYHTeyU9djKZbK7yN4Ytq8aY/Tzs9T694eulki6KMf5BfXjvHz87fsrX4THFB9mS4bOnp/QvRd+bm5vXl3RZBjZXKZZqHC8F/5x9WpnntHWUY1kDVEH7K7e2tm7bc3APe+9/2Hv/15JORGIWfj71hrDoN02z1cW/GON3GW/22HBZeVoU/bqk10m6OIY90z4+7b3/ydnxUr+W9JyI9q+zYIVfuxxO7WfM/p1zP9Qzs3U499ImJvc++rLGuQ+bRzWmNUCVtH9BKUHd2tq6taQHO+defPJ70PdLWrUNavh++V8l/W3YnnW6Q9udLL9xjxGzWDzDVyXe+4lz7ickPXW6q95HW3DZT8hhB8a/CPc5hN+Vx7KrbT+S/jkGT0sfTdPcoa29JRwn6WUWf8fUtoR4WWywxsoyNm1bELAGqJL2X3DOHWmBI/shYQFsmuYWko42TdNMb6JTuGoxmUxunuImrxgxywDqcPA/8Gia5s7e+3tIOu69v6/3/u7Oue8Ij+Lt8+w3XHmJwdLah3PuaRniEWWIULgWcIPofvFY/L9RoPfYiVXbPZo+jqGtAaqofdadAUtWT4yYlexfLtskPSkGywh9fGRjY+NQLr8t43jv7xXB3+IX7lg+WliX0NbKoQQfBm2DNUAVtf+i9/6sQQezpXMxYtZyqMEeFvZ7OPlVzidjsIzRh/d+uwbY3vuXxPB3LH3UENODbLTG6aC++SwCAWuAKmv/npC4I2CruosYMasaQATjp/csFHMm6px7cgS3knaxt7d3HUmfjaG/sfSRNCAZOrfGKYOJ4x7CGqDa2jvnHj3uiJ/a4MW8cI2ZYbgvQ9L7CtP+h0qPiXPunoUxM8+D1P6UHtNV9ln5rOqfz40ErAGqsP0VXX82Z0RcXPMYMSvOqYwGee//UwyGsfsIv6bIiKHzUN77P4zt89D76wy5sAbW+BTmzvDMsQao0vYfDpvTDC+a7TyKEbN2Iw3vqGPHjn21pAtjMIzdR84NkLpGdrplcvJNoGIz7bu/rpxLO97KrzR/BmePNUAVt3/DWO8HiBGzwU2Elg5J+tMY/BL18b6WbmQ/zDn3/Yl8Lv4yvsXv7IGKPKDF99A2sjl0N0/AGqDK2yd9mto861L+jhGzUnzJaYekh8Rgl7iPozmZtB1L0gsS+z3IQqAt31KPs8a8VL8GY5c1QLW3994/ZTDBbOlIjJi1HGowhznn7igpbL9c9ELjvX9MadDD9s+SPlM6uxLtKy2WXe2xMu06Hsd3JGAN0EDahweqVLGRSsfwLjw8RswWdjzQN6dP/LsgBrcMfby7tDB4778ng99FF2br+l9aLLvas67f++26jsfxHQnsg+ZfPTvFtrsdw5Hl8BixzmJoAYOELZpPXvr/VAxmGfv45gLQnTbBOffcjL4PqhA4DbHSF9a4V+p2PWZbAzSk9s65vwr7z9cTvfUsjRGz9Uauq9X0qYVF3vG/IoaPKoX09PL/+SvsHdSiHdPXUuK4rh1WFuuOS7uWBKwBGmD7T0i6U0t8VR4WI2ZVOt7B6PB0QUmfi8Gqhz7e3sHVpId67+/Sg/+DKSiSBidD59bYZzBx3ENYAzTQ9uERvE+wPHK3ZFXFiFnJ/llsm0wmNx3C42pLefql9/6/xtDbWPuwaLmEtta4leDDoG2wBmjg7T/qnLvP0AQQI2bOuR8c2D0Th733P1rSA36McXpE37qdbplc2/0TRV096DuG1vGNGmYfAGsAVrW3BmgM7cO9AQN4kuCh6Xfaz48Ys7Cj4i8dPXr0Rqt0VvLn001q3hmRS++LiPf+rX0zd859x5CY9uFL3zG0jm9lZh2f9isIWAM0pvbOubdIul+4sWkF1mI+Ds89cM79pqSwWKdamC51zr2waZr/p6KfUx52zt3VOfemhFxS8W7T74mtra1b9ylESc8cKNs2/KMc02f8YoxtjX8MG+jjAALWAI20/cfCouqc0wFoe/kobG8czvTD42ElfbCH+HxA0uNKfeDS1tbWbacF0Ud7YBNlUehg98N7EeHGxsb08n+4oTa3z4Mar6/4xRrXGv9YdtDPEgLWANFe50o6ezKZfOfm5ub1l2BO9nZY8CeTye7J56w/zHv/Z5IuLigm/xzYeO/vsbu7e+NkEA7oOFytaZrmDid38fv/JL1B0omC+CRdrLz3bz4ATdKPwtWgsXBO6WfSIGXo3Momg4njHsIaINpf5Qwn/HrgXWHjE+/9z4aFZ7qvwGGrysJC3zTNbZqmubNz7qGSni3pbyRdXkkMvhjYSPqjsBh77+/eNM3tdnZ2bmBls98+FGBh175wg6KkR0l67cl7FC6phE/SYgAGV5mn1bDe13at/1p1V6vf1dhtDRDtWyWWsId8OBv+y+lPzMLi/SxJTwqXy08u4o/w3v/q9O8nee9/V9KLvPevlvS3kj4mKSyg1SSujrZ+VtJ7pmforwy+T78/DnzC/08MjML/08v3T53+vCwc9wpJb5TE5ebh6mOoul/pVzULyRJDO+aBq/FY0i1vxyJgDRDtB7soX20yEmtijQbyaiBWnu+rH6te+rJ7NONaA0T7vAkB3vBGA+PRQO0LkVWrtftfvP3WANF+PMmIWBNrNJBXA8UvICsMtOplRfd8bCVgDRDt8yYEeMMbDYxHA9b83nd7q1b7tn/w41sDRPvxJCNiTazRQF4N1L4AWfVSu//F228NEO3zJgR4wxsNjEcDxS8gKwy0anVF93xsJWANEO3Hk4yINbFGA3k1YM3vfbe36qVv+wc/vjVAtM+bEOANbzQwHg3UvgBZtVq7/8Xbbw0Q7ceTjIg1sUYDeTVQ/AKywkCrXlZ0z8dWAtYA0T5vQoA3vNHAeDRgze99t7dqtW/7Bz++NUC0H08yItbEGg3k1UDtC5BVL7X7X7z9Y3o6mlWMtM+b/OAN75Fr4ETxC8gKA63xW9E9H1sJ8LQ0kqx1ktIeDaGBJBq42Jrf+25v1UXf9g9+fEnnWYNE+ySTn4fx8HQ7NDBuDXy89gXIujbU7n/x9kt6vzVItKcAQANoAA1E18B7i19AVhho1cSK7vnYSkDS66xBon30ic+Z37jP/Ig/8f+S9/7V1vzed3vr2tC3/YMf3zn3DGuQaE8BgAbQABqIroGza1+ArJqo3f/i7Zf0EGuQaB994nMGyBkgGkADDyp+AVlhoHVtWNE9H1sJNE2zZQ0S7SkA0AAaQAPRNXDUmt/7bm/VRN/2j2H8w5I+bQ0U7aNPfs4AOQNEA+PVwCc3NjYO1b4AWdeF2v2vwn5JL7MGivYUAGgADaCBOBpwzr24isVjhZFWPazono9jEPDe38saKNrHmfhwhCMaQAPe+3vEyO1992HVct/2j2L8zc3Na0s63xos2pO40AAaQFAzHOwAAA3VSURBVANmDVxw5MiRM4aw+Fi1MAQGVfgg6RxrsGhvnvh85zve73yJPbHf10D1P//bX/Ssa8J+P/ybmEDTNLeQdIU1YLSnCEADaAANrK2Bz08mk1slTvfZurfqIJuhDLSx4b1/njVgtF974u9X//zLmSAaGK8Gnj2ktci6HgyJRfG+hMpT0qXWoNGeIgANoAE00FkDl4QrscUvFB0MtGqgw1AcGoOAc+6R1qDRvvPE54xvvGd8xJ7Yn9KA9/4/x8jhJfVhXQtK8mUUtkx/EfBua+BoTxGABtAAGmitgXeF3Du0RcYa/6HxqMKfpmlux1cBrScuZ3CcwaEBNGDRwCWTyWSzisWho5EUAB2BlXK49/6B1uDRniICDaABNLBSAz9eSt6PbYc19rHtob8OBCT9ljWAtF85+S1nDrTlzBMN1K2BJ3ZIydUdas3/1Tk8MIMP8dNAFnDrJKY9GkIDCzXw34bwwJ+D1jxr3A/qm88yENjb27umpD+wBpL2CxMAZ291n70RP+K3rgZeEHJrhhTe6xDWvN+r8Qx+mkC4EvAYazBpTxGABtAAGtA5Gxsbh09n1wG/sMZ6wGjqc8059wB+HUACt05q2qOhkWrgEkmDveFv0YpmjfOiPnmvRwLTnwiyTwCXPte99Ek7tDNGDbxrqD/1O2g5ogA4iE6ln0m6lqRflHSxNcC052wQDaCBAWvg0vD16VAe79t1ybLGtet4HJ+RQHh2gHPuuTxFkARunei0R0MD00B4supzhra3f9flxRrTruNxfA8EJN1S0jmSLrAGnPYsBGgADVSsgfMlnT32hX9/GbLGcb8f/q2AQNjL2jl3T0kvlfQpa/Bpz0KABtBABRr4lPf+Jd77ewxxP3/L0mONnWVs2vZL4JBz7pikB0+vDrxG0vskfVzSZ63CoD0LAxpAAxk1EHJWyF0hh4VcdrakB0k6OvTNfCzLiDU+lrFpCwEIQAACEIBATwQoAHoCz7AQgAAEIACBPglQAPRJn7EhAAEIQAACPRGgAOgJPMNCAAIQgAAE+iRAAdAnfcaGAAQgAAEI9ESAAqAn8AwLAQhAAAIQ6JMABUCf9BkbAhCAAAQg0BMBCoCewDMsBCAAAQhAoE8CFAB90mdsCEAAAhCAQE8EKAB6As+wEIAABCAAgT4JUAD0SZ+xIQABCEAAAj0RoADoCTzDQgACEIAABPokQAHQJ33GhgAEIAABCPREgAKgJ/AMCwEIQAACEOiTAAVAn/QZGwIQgAAEINATAQqAnsAzLAQgAAEIQKBPAhQAfdIfyNgWEQ0EAW5AAAIQqI6AJXeHttU5jMHxCVhEFN8aeoQABCAAgTYELLmbAqAN4REcYxHRCPDgIgQgAIEiCVhyNwVAkSHNb5RFRPmtZUQIQAACEAgELLmbAgANnSJgEREIIQABCECgHwKW3E0B0E/MihvVIqLinMEgCEAAAiMhYMndFAAjEckqNy0iWtU3n0MAAhCAQBoCltxNAZAmJtX1ahFRdc5iMAQgAIGBELDkbgqAgYjA6oZFRNaxaQ8BCEAAAusRsORuCoD1mA+ulUVEg4OBQxCAAAQqIWDJ3RQAlQQ5tZkWEaW2jf4hAAEIQGAxAUvupgBYzHR071pENDpYOAwBCECgEAKW3E0BUEgQ+zbDIqK+bWd8CEAAAmMlYMndFABjVc2c3xYRzXXFnxCAAAQgkImAJXdTAGQKUunDWERUum/YBwEIQGCoBCy5mwJgqKro6JdFRB2H4nAIQAACEIhEwJK7KQAiBaH2biwiqt137IcABCBQKwFL7qYAqDXqke22iCiyKXQHAQhAAAItCVhyNwVAS8hDP8wioqGzwT8IQAACpRKw5G4KgFKjmtkui4gym8pwEIAABCAwJWDJ3RQAyOgUAYuIQAgBCEAAAv0QsORuCoB+YlbcqBYRFecMBkEAAhAYCQFL7qYAGIlIVrlpEdGqvvkcAhCAAATSELDkbgqANDGprleLiKpzFoMhAAEIDISAJXdTAAxEBFY3LCKyjk17CEAAAhBYj4Ald1MArMd8cK0sIhocDByCAAQgUAkBS+6mAKgkyKnNtIgotW30DwEIQAACiwlYcjcFwGKmo3vXIqLRwcJhCEAAAoUQsORuCoBCgti3GRYR9W0740MAAhAYKwFL7qYAGKtq5vy2iGiuK/6EAAQgAIFMBCy5mwIgU5BKH8YiotJ9wz4IQAACQyVgyd0UAENVRUe/LCLqOBSHQwACEIBAJAKW3E0BECkItXdjEVHtvmM/BCAAgVoJWHI3BUCtUY9st0VEkU2hOwhAAAIQaEnAkrspAFpCHvphFhENnQ3+QQACECiVgCV3UwCUGtXMdllElNlUhoMABCAAgSkBS+6mAEBGpwhYRARCCEAAAhDoh4Ald1MA9BOz4ka1iKg4ZzAIAhCAwEgIWHI3BcBIRLLKTYuIVvXN5xCAAAQgkIaAJXdTAKSJSXW9WkRUnbMYDAEIQGAgBCy5mwJgICKwumERkXVs2kMAAhCAwHoELLmbAmA95oNrZRHR4GDgEAQgAIFKCFhyNwVAJUFObaZFRKlto38IQAACEFhMwJK7KQAWMx3duxYRjQ4WDkMAAhAohIAld1MAFBLEvs2wiKhv2xkfAhCAwFgJWHI3BcBYVTPnt0VEc13xJwQgAAEIZCJgyd0UAJmCVPowFhGV7hv2QQACEBgqAUvupgAYqio6+mURUcehOBwCEIAABCIRsORuCoBIQai9G4uIavcd+yEAAQjUSsCSuykAao16ZLstIopsCt1BAAIQgEBLApbcTQHQEvLQD7OIaOhs8A8CEIBAqQQsuZsCoNSoZrbLIqLMpjIcBCAAAQhMCVhyNwUAMjpFwCIiEEIAAhCAQD8ELLmbAqCfmBU3qkVExTmDQRCAAARGQsCSuykARiKSVW5aRLSqbz6HAAQgAIE0BCy5mwIgTUyq69UiouqcxWAIQAACAyFgyd0UAAMRgdUNi4isY9MeAhCAAATWI2DJ3RQA6zEfXCuLiAYHA4cgAAEIVELAkrspACoJcmozLSJKbRv9QwACEIDAYgKW3E0BsJjp6N61iGh0sHAYAhCAQCEELLmbAqCQIPZthqQr1xXS8ePHr9G3/YwPAQhAYGwEJF1r3bw9bXfl2Jjh7wICki4yCOmGC7rkLQhAAAIQSEhgMpnc3JC3vxTyfkLz6LoWApI+tq6QvPe3r8VP7IQABCAwFALe+8m6eXva7qNDYYEfBgKS3rWukLz39zUMTVMIQAACEFiDgPf+7uvm7Wm7d64xLE2GRkDSKwxCes7QeOAPBCAAgdIJOOeeZsjb4SuAV5TuI/ZlICDpiQYhnX/kyJEzMpjJEBCAAAQgMCVguXI7zfdPBCYENpxz9zcUAF8K7cEIAQhAAAJ5CDjnjkg6Ycnb3vsfy2MtoxRNoGmaW1iEJOnDXAUoOsQYBwEIDIiA9/6/GnP2l7a2tm49ICS4YiEg6QNGQT3cMj5tIQABCEBgNYGdnZ2vkXS5MV+fu3okjhgNAe/97xoFdUnTNFujAYajEIAABHogIOllxlz9pXAFoQfTGbJUAs65b7WKStK5oTot1UfsggAEIFAzAe/9AyPk6VAA7NXMAdsTEJD0Xqu4vPdvpQhIEBy6hAAERk2gaZo7SLrYmqMlhQ2ADo8aJs5fnYCkh0UQV/h96Uecc8euPgLvQAACEIBAVwLe+7tIuiRGfnbOPbrr+Bw/AgLHjh27nqRPxxDZtFJ92Obm5rVHgA4XIQABCKQgcEjSz0v6XKy8vL29fZMUhtLnAAh47381ktDClYDw/wedc/cJT64aAB5cgAAEIJCDwKGmae4s6W8j5+On5jCeMSolML0KcG5k0YVC4Lxw56n3/ofDA4SOHj16o0oRYTYEIACBqARC3p1MJrdyzn33dGdW8/1YC3L4+Zz9Rw3bMDtzzt1zgXj2z+j599+vbMABDmgADdSkgQcNc8XCq+gEJP0JRcCprzBqmuDYyoKEBtDAIg38zfHjx68RfaGgw2ESCJfowxa/FAEUAWgADaCBqjVw0fb29jcMc6XCq2QEJpPJrqQrmPxVT/5FZwO8x1kiGhiHBk44534o2SJBx8MmEG7ak/RFigCKADSABtBAdRr4tWGvUHiXnICkX2DiVzfxOcMbxxkecSbOyzTw7OSLAwOMg4Bz7ue4EkARQCGIBtBAFRp4wd7e3jXHsTrhZRYC3vv7ck9AFZN/2RkB73O2iAaGr4EnbGxsHMqyKDDIuAhMJhMv6UOcBVAIoAE0gAaK0sBl3vufHNeKhLfZCezu7t6YfQKKmvic1Q3/rI4YE+ODNPDupmlul30xYMDxEnDOfX948h9nARQDaAANoIFeNBDO+h9z5MiRM8a7EuF5bwQ2NzevL+lRks4nAfSSAA46K+AzzhrRwDA18AVJz2eDn96WPgaeJRAKAefcL0t6P4UAhQAaQANoIIkGLpL0rKZpbjObf3kNgWIIeO/PkvTM8ChgkkCSJMBZ3TDP6ogrcV2kgQslvSL8Cmt3d/e6xSR6DIHAKgLhEZfe+x+T9KQgYknvkfRRSUHUi8TOe3BBA2hgbBq4VNInpydNfzE9gfoF7/02D/FZtcrwOQQgAAEIQAACEIAABCAAAQhAAAIQgAAEIAABCEAAAhCAAAQgAAEIQAACEIAABCAAAQhAAAIQgAAEIAABCEAAAhCAAAQgAAEIQAACEIAABCAAAQhAAAJ9EPj/AYhTZx/4s4MaAAAAAElFTkSuQmCC;" vertex="1" parent="1">
          <mxGeometry x="400" y="130" width="60" height="60" as="geometry" />
        </mxCell>
        <mxCell id="q4-OsenWkqFwDgvqK5dO-33" value="" style="dashed=0;outlineConnect=0;html=1;align=center;labelPosition=center;verticalLabelPosition=bottom;verticalAlign=top;shape=mxgraph.weblogos.json" vertex="1" parent="1">
          <mxGeometry x="575" y="114.2" width="70" height="75.8" as="geometry" />
        </mxCell>
        <mxCell id="q4-OsenWkqFwDgvqK5dO-55" style="edgeStyle=orthogonalEdgeStyle;rounded=0;orthogonalLoop=1;jettySize=auto;html=1;" edge="1" parent="1" source="q4-OsenWkqFwDgvqK5dO-37" target="q4-OsenWkqFwDgvqK5dO-38">
          <mxGeometry relative="1" as="geometry" />
        </mxCell>
        <mxCell id="q4-OsenWkqFwDgvqK5dO-58" style="edgeStyle=orthogonalEdgeStyle;rounded=0;orthogonalLoop=1;jettySize=auto;html=1;exitX=0.5;exitY=1;exitDx=0;exitDy=0;" edge="1" parent="1" source="q4-OsenWkqFwDgvqK5dO-37" target="nApf8z-3uc3gBv6YrtkV-4">
          <mxGeometry relative="1" as="geometry" />
        </mxCell>
        <mxCell id="q4-OsenWkqFwDgvqK5dO-37" value="Store RAW data" style="rounded=1;whiteSpace=wrap;html=1;" vertex="1" parent="1">
          <mxGeometry x="60" y="250" width="120" height="60" as="geometry" />
        </mxCell>
        <mxCell id="q4-OsenWkqFwDgvqK5dO-56" style="edgeStyle=orthogonalEdgeStyle;rounded=0;orthogonalLoop=1;jettySize=auto;html=1;exitX=1;exitY=0.5;exitDx=0;exitDy=0;entryX=0;entryY=0.5;entryDx=0;entryDy=0;" edge="1" parent="1" source="q4-OsenWkqFwDgvqK5dO-38" target="q4-OsenWkqFwDgvqK5dO-52">
          <mxGeometry relative="1" as="geometry" />
        </mxCell>
        <mxCell id="q4-OsenWkqFwDgvqK5dO-38" value="&lt;div&gt;Transform and&lt;/div&gt;store structured data" style="rounded=1;whiteSpace=wrap;html=1;" vertex="1" parent="1">
          <mxGeometry x="300" y="250" width="120" height="60" as="geometry" />
        </mxCell>
        <mxCell id="q4-OsenWkqFwDgvqK5dO-54" style="edgeStyle=orthogonalEdgeStyle;rounded=0;orthogonalLoop=1;jettySize=auto;html=1;" edge="1" parent="1" source="q4-OsenWkqFwDgvqK5dO-52" target="q4-OsenWkqFwDgvqK5dO-53">
          <mxGeometry relative="1" as="geometry" />
        </mxCell>
        <mxCell id="q4-OsenWkqFwDgvqK5dO-52" value="Build recommandations" style="rounded=1;whiteSpace=wrap;html=1;" vertex="1" parent="1">
          <mxGeometry x="550" y="250" width="120" height="60" as="geometry" />
        </mxCell>
        <mxCell id="q4-OsenWkqFwDgvqK5dO-53" value="Maps of recommended destinations&amp;nbsp;&lt;div&gt;and hotels&lt;/div&gt;" style="verticalLabelPosition=bottom;sketch=0;aspect=fixed;html=1;verticalAlign=top;strokeColor=none;align=center;outlineConnect=0;shape=mxgraph.citrix.reporting;" vertex="1" parent="1">
          <mxGeometry x="760" y="245.5" width="61.5" height="69" as="geometry" />
        </mxCell>
        <mxCell id="q4-OsenWkqFwDgvqK5dO-57" style="edgeStyle=orthogonalEdgeStyle;rounded=0;orthogonalLoop=1;jettySize=auto;html=1;exitX=0.5;exitY=1;exitDx=0;exitDy=0;entryX=0.486;entryY=0.041;entryDx=0;entryDy=0;entryPerimeter=0;" edge="1" parent="1" source="q4-OsenWkqFwDgvqK5dO-38" target="MCWtsF1nj_VE4NP892tD-5">
          <mxGeometry relative="1" as="geometry" />
        </mxCell>
        <mxCell id="q4-OsenWkqFwDgvqK5dO-60" style="edgeStyle=orthogonalEdgeStyle;rounded=0;orthogonalLoop=1;jettySize=auto;html=1;entryX=0.5;entryY=0;entryDx=0;entryDy=0;" edge="1" parent="1" source="q4-OsenWkqFwDgvqK5dO-59" target="q4-OsenWkqFwDgvqK5dO-37">
          <mxGeometry relative="1" as="geometry" />
        </mxCell>
        <mxCell id="q4-OsenWkqFwDgvqK5dO-59" value="" style="shape=curlyBracket;whiteSpace=wrap;html=1;rounded=1;labelPosition=left;verticalLabelPosition=middle;align=right;verticalAlign=middle;direction=north;" vertex="1" parent="1">
          <mxGeometry x="82.5" y="190" width="600" height="20" as="geometry" />
        </mxCell>
      </root>
    </mxGraphModel>
  </diagram>
</mxfile>
